<?xml version="1.0" encoding="UTF-8"?><svg xmlns="http://www.w3.org/2000/svg" viewBox="0 0 314.35 239.1"><defs><style>.cls-1{fill:#be623d;opacity:.5;}.cls-2{stroke-width:1px;}.cls-2,.cls-3{fill:none;opacity:.82;stroke:#be623d;stroke-miterlimit:10;}.cls-4{fill:#3b3b43;}.cls-3{stroke-width:1.03px;}</style></defs><g id="_レイヤー_1"><rect class="cls-1" x="11.69" y="15.86" width="116.04" height="207.39" rx="58.02" ry="58.02"/><rect class="cls-2" x="5.2" y="6.33" width="129.02" height="226.45" rx="64.51" ry="64.51"/><rect class="cls-3" x=".52" y=".52" width="138.38" height="238.07" rx="69.19" ry="69.19"/></g><g id="_レイヤー_5"><path class="cls-4" d="M186.03,64.53l-44.78,105h-8.9l-44.63-105h29.03l32.38,77.1,32.82-77.1h4.08Z"/></g><g id="_レイヤー_6"><g><path class="cls-4" d="M217.67,158.92c0,2.75-3.46,4.9-8.02,4.9-5.19,0-8.91-3.23-8.91-7.54v-18.86h-2.99v-1.08h2.99v-5.71l9.85-2.05v7.76h6.08v1.08h-6.08v20.48c0,2.1,1.26,3.67,2.99,3.67s2.99-1.13,2.99-2.64h1.1Z"/><path class="cls-4" d="M246.86,136.34l-14.93,35.08c-1.57,3.56-3.77,4.26-6.29,4.26-2.99,0-5.61-2.32-5.61-5.12h1.1c0,2.26,2.1,4.04,4.51,4.04,1.99,0,3.88-.65,4.92-3.18l2.78-6.58-12.16-28.51h10.43l6.81,16.44,6.97-16.44h1.47Z"/><path class="cls-4" d="M281.13,149.81c0,7.98-4.82,14.01-11.21,14.01-3.25,0-6.24-1.62-8.07-4.15v15.47h-9.85v-37.51l9.85-1.56v4.1c1.73-2.64,4.82-4.37,8.17-4.37,6.34,0,11.11,6.04,11.11,14.01Zm-10.06,0c0-6.68-1.99-11.16-4.82-11.16-1.78,0-3.41,1.51-4.4,3.88v14.88c1,2.21,2.51,3.56,4.19,3.56,3.04,0,5.03-4.42,5.03-11.16Z"/><path class="cls-4" d="M312.36,157.95h1.21c-1.62,3.5-6.08,5.88-11.27,5.88-9.01,0-15.41-6.04-15.41-14.07s6.29-13.96,14.15-13.96,13.31,5.82,13.31,13.58h-17.4c.16,8.78,3.04,12.72,8.12,12.72,3.04,0,5.76-1.51,7.28-4.15Zm-15.41-9.65h8.28c-.1-7.22-1.57-11.43-3.98-11.43-2.67,0-4.24,4.9-4.3,11.43Z"/></g></g></svg>