<?xml version="1.0" encoding="UTF-8"?><svg id="_レイヤー_1" xmlns="http://www.w3.org/2000/svg" viewBox="0 0 519.15 174.66"><defs><style>.cls-1{fill:#231815;}</style></defs><g><g><g><path class="cls-1" d="m111.22,159.32c-1.02-.78-2.55-1.28-4.68-1.56-1.35-.17-2.61-.25-3.72-.31-1.62-.09-3.02-.17-4.05-.54-.86-.31-1.25-.72-1.25-1.33,0-1.22,1.84-1.95,4.92-1.95,2.5,0,4.9.6,7.32,1.83l.19.1,2.01-2.23-.26-.18c-2.43-1.64-5.47-2.47-9.05-2.47-2.67,0-4.79.47-6.28,1.39-1.49.92-2.27,2.26-2.27,3.88s.65,2.74,2.05,3.44c1.17.59,2.91.92,5.8,1.12.34.02.67.04.98.06,4.43.28,6.38.48,6.38,2.32,0,1.65-2.14,2.63-5.72,2.63-2.98,0-5.58-.74-8.16-2.32l-.21-.13-1.81,2.38.21.17c2.41,1.9,5.66,2.83,9.95,2.83,2.93,0,5.22-.5,6.81-1.48.79-.49,1.4-1.1,1.81-1.81.41-.72.62-1.54.62-2.44,0-1.46-.52-2.57-1.59-3.39Z"/><polygon class="cls-1" points="124.77 158.63 117.9 151.09 113.78 151.09 123.11 161.41 123.11 168.06 126.38 168.06 126.38 161.41 135.71 151.09 131.59 151.09 124.77 158.63"/><polygon class="cls-1" points="150.02 164.45 142.53 155.06 142.53 168.06 139.26 168.06 139.26 151.09 143.05 151.09 150.02 159.84 156.98 151.09 160.77 151.09 160.77 168.06 157.5 168.06 157.5 155.06 150.02 164.45"/><path class="cls-1" d="m183.88,159.28c1.23-.85,1.8-1.94,1.8-3.42s-.52-2.62-1.5-3.47c-.99-.85-2.42-1.3-4.12-1.3h-13.54v16.97h13.36c2.09,0,3.71-.39,4.8-1.15,1.12-.78,1.69-1.94,1.69-3.43,0-1.11-.25-2.04-.76-2.78-.41-.61-.99-1.09-1.73-1.42Zm-14.1,1.71h10.55c.96,0,1.63.17,2.07.52.42.34.63.86.63,1.59,0,.96-.37,1.95-3.13,1.95h-10.12v-4.06Zm10.32-3.02h-10.32v-3.85h10.43c1.4,0,2.27.73,2.27,1.9,0,1.09-1.05,1.95-2.38,1.95Z"/><path class="cls-1" d="m208.39,152.85c-1.9-1.45-4.58-2.28-7.36-2.28s-5.43.81-7.38,2.28c-2.3,1.74-3.47,3.99-3.47,6.71s1.15,5.02,3.42,6.73c1.89,1.43,4.59,2.26,7.42,2.26s5.46-.79,7.38-2.23h0c2.27-1.71,3.42-3.98,3.42-6.75,0-1.34-.29-2.59-.87-3.72-.58-1.12-1.44-2.13-2.57-2.99Zm-1.92,10.98c-1.33,1.09-3.21,1.67-5.43,1.67s-4.13-.57-5.46-1.66c-1.31-1.06-2-2.54-2-4.28s.73-3.17,2.05-4.24c1.35-1.1,3.27-1.7,5.41-1.7,1.95,0,3.75.53,5.08,1.49,1.55,1.14,2.34,2.64,2.34,4.45s-.69,3.21-1.98,4.27Z"/><polygon class="cls-1" points="219.98 165.04 219.98 151.09 216.71 151.09 216.71 168.06 232.66 168.06 232.66 165.04 219.98 165.04"/></g><g><path class="cls-1" d="m77.55,156.8l2.29-1.32-11.81-6.82-11.81,6.82,10.21,5.89-2.41,1.39-12.62-7.28,16.63-9.6,16.63,9.6-4.7,2.72-2.41-1.39Zm-4.01,5.1l-5.51,3.18-2.41-1.39,5.51-3.18,2.41,1.39Z"/><path class="cls-1" d="m58.51,162.36l-2.29,1.32,11.81,6.82,11.81-6.82-10.21-5.89,2.41-1.39,12.62,7.28-16.63,9.6-16.63-9.6,4.7-2.72,2.41,1.39Zm4.01-5.1l5.51-3.18,2.41,1.39-5.51,3.18-2.41-1.39Z"/></g></g><g><path class="cls-1" d="m9.63,143.74v10.07c.58-.95,1.34-1.68,2.26-2.2.79-.43,1.62-.65,2.49-.65,2.09,0,3.72.84,4.9,2.53,1.1,1.58,1.64,3.7,1.64,6.37,0,3.03-.76,5.39-2.27,7.09-1.22,1.37-2.71,2.06-4.48,2.06-2.21,0-3.82-1.04-4.84-3.12l-.8,2.67h-2.83v-24.84h3.93Zm0,13.28v6.06c.83,1.92,1.99,2.89,3.48,2.89,1.19,0,2.11-.55,2.78-1.66.65-1.05.97-2.51.97-4.38,0-2.08-.38-3.63-1.15-4.65-.6-.82-1.39-1.23-2.36-1.23-1.6,0-2.84.99-3.72,2.96Z"/><path class="cls-1" d="m38.53,151.33l-6.08,17.89c-.71,2.09-1.67,3.55-2.89,4.38-1.03.72-2.39,1.07-4.05,1.07-.75,0-1.46-.06-2.15-.17l-.15-3.01c.8.14,1.54.21,2.21.21,1.59,0,2.68-.89,3.27-2.67l.25-.75-5.85-16.95h4.18l2.06,7.23c.16.58.64,2.47,1.44,5.67h.31c.13-.47.4-1.48.81-3.02.29-1.07.53-1.98.74-2.7l1.98-7.17h3.93Z"/></g></g><g><path class="cls-1" d="m34.07,55.33L13.66,17.11v33.97c0,.84.19,1.47.57,1.91.38.43,1.05.78,2.03,1.05v1.3H0v-1.3c.97-.27,1.65-.62,2.03-1.05.38-.43.57-1.07.57-1.91V4.22c0-.81-.19-1.43-.57-1.86-.38-.43-1.05-.78-2.03-1.05V0h21.33v1.3c-1.27.32-1.91,1.07-1.91,2.23,0,.54.19,1.16.57,1.86l15.09,28.6,15.3-28.11c.67-1.24,1.01-2.15,1.01-2.72,0-1.11-.68-1.73-2.03-1.87V0h20.92v1.3c-.97.27-1.65.62-2.03,1.05-.38.43-.57,1.05-.57,1.86v46.86c0,.84.19,1.47.57,1.91.38.43,1.05.78,2.03,1.05v1.3h-17.27v-1.3c.95-.24,1.61-.59,2.01-1.03.39-.45.59-1.09.59-1.92V17.11l-21.54,38.22Z"/><path class="cls-1" d="m105.51,35.41v15.78c0,.84.19,1.48.57,1.93.38.45,1.05.82,2.03,1.12v1.09h-16.05v-1.09c.97-.27,1.65-.63,2.03-1.08.38-.45.57-1.1.57-1.97v-15.78l-13.46-18.51c-1.51-2.08-2.72-3.5-3.63-4.27-.91-.77-1.98-1.29-3.22-1.56v-1.13h20.46v1.13c-1.76.46-2.64,1.28-2.64,2.47,0,.59.64,1.78,1.91,3.56l6.59,9.13,6.44-9.13c1.27-1.81,1.91-3.01,1.91-3.6,0-1.13-.87-1.94-2.59-2.43l-.04-1.13h19.45v1.13c-1.24.27-2.32.79-3.22,1.56-.91.77-2.12,2.19-3.63,4.27l-13.46,18.51Z"/><path class="cls-1" d="m179.2,26.35c6.21,2.35,9.32,6.7,9.32,13.05,0,5.05-1.81,9.01-5.43,11.88-1.84,1.43-3.97,2.47-6.38,3.1-2.42.63-5.41.95-8.98.95h-37.82v-1.3c.97-.27,1.65-.62,2.03-1.05.38-.43.57-1.07.57-1.91V4.26c0-.84-.19-1.47-.57-1.9-.38-.43-1.05-.78-2.03-1.05V0h37.45C170.96,0,173.85.27,176.04.81c2.19.54,4.11,1.46,5.76,2.76,3.27,2.57,4.9,6.27,4.9,11.11,0,5.41-2.5,9.3-7.5,11.67Zm-34.62-4.34h21.2c3.22,0,5.46-.47,6.73-1.42,1.43-1.08,2.15-2.76,2.15-5.03s-.68-3.98-2.03-4.97c-1.35-.99-3.63-1.48-6.85-1.48h-21.2v12.89Zm0,24.2h20.51c3.81,0,6.55-.53,8.23-1.58,1.92-1.22,2.88-3.2,2.88-5.96s-.96-4.71-2.88-5.96c-1.65-1.05-4.39-1.58-8.23-1.58h-20.51v15.08Z"/><path class="cls-1" d="m221.37,8.96c7.22,0,13.24,1.84,18.05,5.51,5.76,4.43,8.64,10.61,8.64,18.52,0,7.43-2.88,13.36-8.64,17.79-4.76,3.68-10.75,5.51-17.97,5.51s-13.21-1.84-17.97-5.51c-5.79-4.43-8.68-10.48-8.68-18.16s2.89-13.81,8.68-18.16c4.79-3.59,10.75-5.43,17.89-5.51Zm.04,8.59c-4.68,0-8.5,1.5-11.45,4.5-2.73,2.81-4.1,6.34-4.1,10.58s1.37,7.73,4.1,10.54c2.95,3.03,6.78,4.54,11.49,4.54s8.5-1.51,11.45-4.54c2.73-2.78,4.1-6.23,4.1-10.34,0-4.46-1.37-8.05-4.1-10.78-2.98-2.94-6.81-4.44-11.49-4.5Z"/><path class="cls-1" d="m257.59,51.19V14.07c0-.84-.19-1.47-.57-1.91-.38-.43-1.05-.8-2.03-1.09v-1.13h26.63c5.54,0,9.9.69,13.09,2.07,4.48,1.95,7.71,5.16,9.69,9.65,1.38,3.14,2.07,6.8,2.07,10.99,0,7.76-2.31,13.63-6.93,17.63-2.08,1.78-4.53,3.07-7.36,3.87-2.82.8-6.34,1.2-10.56,1.2h-26.63v-1.13c.95-.24,1.61-.59,2.01-1.05s.59-1.11.59-1.95Zm10.86-4.09h11.59c5.32,0,9.19-1.22,11.59-3.65,2.51-2.54,3.77-6.15,3.77-10.82s-1.26-8.28-3.77-10.82c-1.24-1.27-2.78-2.19-4.62-2.78-1.84-.58-4.16-.87-6.97-.87h-11.59v28.94Z"/><path class="cls-1" d="m339.71,35.41v15.78c0,.84.19,1.48.57,1.93.38.45,1.05.82,2.03,1.12v1.09h-16.05v-1.09c.97-.27,1.65-.63,2.03-1.08.38-.45.57-1.1.57-1.97v-15.78l-13.46-18.51c-1.51-2.08-2.72-3.5-3.63-4.27-.91-.77-1.98-1.29-3.22-1.56v-1.13h20.46v1.13c-1.76.46-2.64,1.28-2.64,2.47,0,.59.64,1.78,1.91,3.56l6.59,9.13,6.44-9.13c1.27-1.81,1.91-3.01,1.91-3.6,0-1.13-.87-1.94-2.59-2.43l-.04-1.13h19.45v1.13c-1.24.27-2.32.79-3.22,1.56-.91.77-2.12,2.19-3.63,4.27l-13.46,18.51Z"/></g><g><path class="cls-1" d="m2.59,120.63v-46.82c0-.84-.19-1.47-.57-1.9-.38-.43-1.05-.78-2.03-1.05v-1.3h30.87c6.76,0,11.95.77,15.58,2.31,5.19,2.24,9.03,5.95,11.52,11.11,1.97,4.05,2.96,8.8,2.96,14.23,0,9.54-2.93,16.81-8.8,21.81-2.46,2.11-5.34,3.61-8.64,4.52s-7.5,1.36-12.61,1.36H0v-1.3c.97-.27,1.65-.62,2.03-1.05.38-.43.57-1.07.57-1.91Zm12.08-4.86h15.18c4.84,0,8.48-.66,10.92-1.99,5.22-2.84,7.83-8.36,7.83-16.58,0-5.94-1.41-10.5-4.22-13.66-1.57-1.76-3.46-3.01-5.68-3.75-2.22-.74-5.17-1.11-8.85-1.11h-15.18v37.09Z"/><path class="cls-1" d="m102.98,113.54h-20.88l-2.35,4.95c-.57,1.19-.85,2.12-.85,2.8,0,1.3.87,2.12,2.59,2.47v1.13h-16.68v-1.13c1.03-.16,1.79-.47,2.29-.93.5-.46,1.09-1.36,1.76-2.72l16.58-33.56c.62-1.27.93-2.38.93-3.32,0-1.11-.76-1.97-2.27-2.59v-1.13h17.63v1.13c-1.49.59-2.23,1.51-2.23,2.76,0,.89.34,1.99,1.01,3.28l17.19,32.55c.95,1.77,1.69,2.91,2.23,3.44.54.52,1.36.89,2.47,1.1v1.13h-18.54v-1.13c1.75-.3,2.63-1.12,2.63-2.46,0-.83-.34-1.87-1.01-3.11l-2.51-4.64Zm-3.27-6.36l-7.43-14.6-7.08,14.6h14.51Z"/><path class="cls-1" d="m169.83,83.59l-5.47,10.58-.97-.53c0-.89-.28-1.59-.85-2.11-1.54-1.38-3.81-2.51-6.81-3.4-3-.89-6.04-1.34-9.12-1.34-2.62,0-4.95.37-6.97,1.09-2.92,1.05-4.38,2.58-4.38,4.58,0,1.32.7,2.26,2.11,2.82s4.12.99,8.15,1.32l6.4.49c5.59.43,9.85,1.51,12.77,3.24,1.62.97,2.96,2.27,4.01,3.89,1.32,2.03,1.99,4.31,1.99,6.85,0,4.62-2.08,8.27-6.24,10.94-3.97,2.57-9.35,3.85-16.13,3.85s-13.44-1.45-19.82-4.34c-.43-.19-.8-.28-1.09-.28-.54,0-1.04.32-1.5.97l-1.01-.41,4.66-11.11,1.01.41v.32c0,.7.27,1.3.81,1.78,1.35,1.19,3.69,2.22,7.01,3.1,3.32.88,6.61,1.32,9.85,1.32,2.86,0,5.43-.38,7.7-1.13,2.81-.92,4.22-2.4,4.22-4.46,0-1.65-.97-2.8-2.92-3.45-1.3-.43-3.63-.8-7.01-1.09l-6.36-.53c-3.43-.27-6.05-.62-7.86-1.05-1.81-.43-3.39-1.07-4.74-1.91-1.73-1.08-3.08-2.55-4.05-4.42s-1.46-3.9-1.46-6.12c0-4.97,2.13-8.77,6.4-11.39,3.89-2.38,8.7-3.57,14.43-3.57,3.11,0,6.01.34,8.69,1.03,2.69.69,5.9,1.9,9.63,3.63,1.11.51,1.88.77,2.31.77s.99-.3,1.66-.89l.97.53Z"/><path class="cls-1" d="m216.12,105.11h-25.37v15.61c0,.84.19,1.48.57,1.92.38.45,1.05.82,2.03,1.12v1.13h-16.05v-1.13c.95-.24,1.61-.59,2.01-1.05s.59-1.11.59-1.95v-37.13c0-.84-.19-1.47-.57-1.91-.38-.43-1.05-.8-2.03-1.09v-1.13h16.05v1.13c-.97.27-1.65.63-2.03,1.07-.38.44-.57,1.08-.57,1.92v13.26h25.37v-13.26c0-.83-.18-1.47-.55-1.9-.36-.43-1.05-.79-2.05-1.09v-1.13h16.05v1.13c-.97.27-1.65.63-2.03,1.07-.38.45-.57,1.09-.57,1.92v37.09c0,.84.19,1.48.57,1.92.38.45,1.05.82,2.03,1.11v1.13h-16.05v-1.13c.95-.24,1.61-.6,2.01-1.06.39-.46.59-1.11.59-1.95v-15.64Z"/><path class="cls-1" d="m279.23,100.49c2.24,1.03,3.89,2.05,4.95,3.08,1.97,1.95,2.96,4.57,2.96,7.86,0,4.43-1.68,7.85-5.03,10.25-2.97,2.13-7.07,3.2-12.28,3.2h-32.3v-1.13c.95-.24,1.61-.59,2.01-1.05s.59-1.11.59-1.95v-37.13c0-.84-.19-1.47-.57-1.91-.38-.43-1.05-.8-2.03-1.09v-1.13h31.78c5.57,0,9.65,1,12.24,3,2.76,2.11,4.13,5,4.13,8.67,0,2.16-.48,3.93-1.44,5.31s-2.63,2.72-5.01,4.01Zm-28.25-3.97h16.5c2.59,0,4.43-.33,5.51-.99s1.62-1.8,1.62-3.42-.53-2.72-1.6-3.38-2.91-.99-5.53-.99h-16.5v8.8Zm0,20.14h16.9c5.46,0,8.19-1.99,8.19-5.96s-2.73-5.96-8.19-5.96h-16.9v11.92Z"/><path class="cls-1" d="m319.3,78.52c7.22,0,13.24,1.84,18.05,5.51,5.76,4.43,8.64,10.61,8.64,18.52,0,7.43-2.88,13.36-8.64,17.79-4.76,3.68-10.75,5.51-17.97,5.51s-13.21-1.84-17.97-5.51c-5.79-4.43-8.68-10.48-8.68-18.16s2.89-13.81,8.68-18.16c4.79-3.59,10.75-5.43,17.89-5.51Zm.04,8.59c-4.68,0-8.5,1.5-11.45,4.5-2.73,2.81-4.1,6.34-4.1,10.58s1.37,7.73,4.1,10.54c2.95,3.03,6.78,4.54,11.49,4.54s8.5-1.51,11.45-4.54c2.73-2.78,4.1-6.23,4.1-10.34,0-4.46-1.37-8.05-4.1-10.78-2.98-2.94-6.81-4.44-11.49-4.5Z"/><path class="cls-1" d="m387.32,113.54h-20.88l-2.35,4.95c-.57,1.19-.85,2.12-.85,2.8,0,1.3.87,2.12,2.59,2.47v1.13h-16.68v-1.13c1.03-.16,1.79-.47,2.29-.93.5-.46,1.09-1.36,1.76-2.72l16.58-33.56c.62-1.27.93-2.38.93-3.32,0-1.11-.76-1.97-2.27-2.59v-1.13h17.63v1.13c-1.49.59-2.23,1.51-2.23,2.76,0,.89.34,1.99,1.01,3.28l17.19,32.55c.95,1.77,1.69,2.91,2.23,3.44.54.52,1.36.89,2.47,1.1v1.13h-18.54v-1.13c1.75-.3,2.63-1.12,2.63-2.46,0-.83-.34-1.87-1.01-3.11l-2.51-4.64Zm-3.27-6.36l-7.43-14.6-7.08,14.6h14.51Z"/><path class="cls-1" d="m423.98,106.24v14.48c0,.84.19,1.48.57,1.92.38.44,1.05.81,2.03,1.11v1.13h-16.05v-1.13c.95-.24,1.61-.59,2.01-1.05s.59-1.11.59-1.95v-37.13c0-.84-.19-1.47-.57-1.91-.38-.43-1.05-.8-2.03-1.09v-1.13h29.75c3.86,0,6.81.2,8.84.59,2.03.39,3.84,1.1,5.43,2.13,3.27,2.13,4.9,5.62,4.9,10.46,0,3.67-1.01,6.55-3.02,8.61s-5.26,3.56-9.75,4.48l8.59,11.97c1.57,2.21,2.82,3.71,3.75,4.51.93.8,1.99,1.3,3.18,1.52v1.13h-19.09v-1.13c1.41-.38,2.11-.98,2.11-1.82,0-.59-.43-1.5-1.3-2.71l-9.07-12.98h-10.87Zm0-8.23h16.38c2.49,0,4.32-.27,5.51-.81,1.67-.73,2.51-2.17,2.51-4.34,0-1.92-.59-3.26-1.76-4.01-1.18-.76-3.26-1.13-6.26-1.13h-16.38v10.29Z"/><path class="cls-1" d="m470.27,120.75v-37.13c0-.84-.19-1.47-.57-1.91-.38-.43-1.05-.8-2.03-1.09v-1.13h26.63c5.54,0,9.9.69,13.09,2.07,4.48,1.95,7.71,5.16,9.69,9.65,1.38,3.14,2.07,6.8,2.07,10.99,0,7.76-2.31,13.63-6.93,17.63-2.08,1.78-4.53,3.07-7.36,3.87-2.82.8-6.34,1.2-10.56,1.2h-26.63v-1.13c.95-.24,1.61-.59,2.01-1.05s.59-1.11.59-1.95Zm10.86-4.09h11.59c5.32,0,9.19-1.22,11.59-3.65,2.51-2.54,3.77-6.15,3.77-10.82s-1.26-8.28-3.77-10.82c-1.24-1.27-2.78-2.19-4.62-2.78-1.84-.58-4.16-.87-6.97-.87h-11.59v28.94Z"/></g></svg>