<svg id="レイヤー_1" data-name="レイヤー 1" xmlns="http://www.w3.org/2000/svg" viewBox="0 0 46 50"><defs><style>.cls-1{fill:none;stroke:#fff;stroke-linecap:round;stroke-linejoin:round;}.cls-2{fill:#cc848d;}.cls-3{fill:#fff;}.cls-4{fill:#dfb5b8;}.cls-5{fill:#cd8890;}.cls-6{fill:#b74962;}</style></defs><path class="cls-1" d="M36.2,15.51l-2.11-2.43-8.73,0H20.64l-8.73,0L9.8,15.51V47.7L23,41.41,36.2,47.7Z"/><path class="cls-1" d="M35,16.14l-1.92-2.27-7.94,0h-4.3l-7.94,0L11,16.14v30l12-5.86,12,5.86Z"/><path class="cls-1" d="M34.49,45.46,23,39.78,11.51,45.46v-29l1.86-2.24h0s4.23,0,7.55,0H25c3.32,0,7.51,0,7.55,0h0l1.86,2.24ZM23,39.6l0,0L34.33,45.2V16.5l-1.78-2.13-7.51,0H21l-7.51,0L11.67,16.5V45.2Z"/><polygon class="cls-1" points="23 24.23 23.94 26.13 26.03 26.43 24.51 27.91 24.87 30 23 29.01 21.13 30 21.49 27.91 19.97 26.43 22.06 26.13 23 24.23"/><rect class="cls-1" x="13.02" y="17.05" width="19.95" height="0.87"/><rect class="cls-1" x="13.02" y="36.31" width="19.95" height="0.87"/><path class="cls-2" d="M36.2,15.51l-2.11-2.43-8.73,0H20.64l-8.73,0L9.8,15.51V47.7L23,41.41,36.2,47.7Z"/><path class="cls-3" d="M35,16.14l-1.92-2.27-7.94,0h-4.3l-7.94,0L11,16.14v30l12-5.86,12,5.86Z"/><path class="cls-4" d="M34.49,45.46,23,39.78,11.51,45.46v-29l1.86-2.24h0s4.23,0,7.55,0H25c3.32,0,7.51,0,7.55,0h0l1.86,2.24ZM23,39.6l0,0L34.33,45.2V16.5l-1.78-2.13-7.51,0H21l-7.51,0L11.67,16.5V45.2Z"/><polygon class="cls-5" points="23 24.23 23.94 26.13 26.03 26.43 24.51 27.91 24.87 30 23 29.01 21.13 30 21.49 27.91 19.97 26.43 22.06 26.13 23 24.23"/><rect class="cls-4" x="13.02" y="17.05" width="19.95" height="0.87"/><rect class="cls-4" x="13.02" y="36.31" width="19.95" height="0.87"/><path class="cls-1" d="M17.2,4.4c0,.34,0,.86,0,1.55s0,1.22,0,1.56A2.28,2.28,0,0,1,16.76,9a1.77,1.77,0,0,1-1.42.52,2.8,2.8,0,0,1-1.53-.37c-.06,0-.09-.08-.09-.11s0-.18.12-.64c0,0,0-.07.06-.07l0,0a2.44,2.44,0,0,0,1.26.37,1.14,1.14,0,0,0,.68-.19.7.7,0,0,0,.31-.62c0-.06,0-.2,0-.41A1.44,1.44,0,0,1,15,8.11a1.6,1.6,0,0,1-1.26-.57,2,2,0,0,1-.48-1.36,2.15,2.15,0,0,1,.46-1.4A1.53,1.53,0,0,1,15,4.17a1.29,1.29,0,0,1,1.1.55q.06.09.09.09s0,0,0-.08V4.55a1.36,1.36,0,0,1,0-.18c0-.18,0-.26.05-.26a3.42,3.42,0,0,1,.45.08l.44.09A.12.12,0,0,1,17.2,4.4Zm-1,1.78A1.29,1.29,0,0,0,16,5.36.87.87,0,0,0,15.22,5a.86.86,0,0,0-.73.37,1.41,1.41,0,0,0,0,1.63.9.9,0,0,0,1.45,0A1.33,1.33,0,0,0,16.2,6.18Z"/><path class="cls-1" d="M22.42,6.32a2.22,2.22,0,0,1-.57,1.54,1.9,1.9,0,0,1-2.89,0,2.24,2.24,0,0,1-.57-1.54A2.22,2.22,0,0,1,19,4.79a1.93,1.93,0,0,1,2.89,0A2.2,2.2,0,0,1,22.42,6.32Zm-.88,0a1.35,1.35,0,0,0-.31-.9,1.07,1.07,0,0,0-1.65,0,1.36,1.36,0,0,0-.32.9,1.4,1.4,0,0,0,.32.9,1,1,0,0,0,.83.4,1,1,0,0,0,.82-.4A1.39,1.39,0,0,0,21.54,6.33Z"/><path class="cls-1" d="M27.46,6.32a2.22,2.22,0,0,1-.57,1.54,1.86,1.86,0,0,1-1.45.67A1.84,1.84,0,0,1,24,7.87a2.24,2.24,0,0,1-.57-1.54A2.22,2.22,0,0,1,24,4.79a1.93,1.93,0,0,1,2.89,0A2.2,2.2,0,0,1,27.46,6.32Zm-.88,0a1.35,1.35,0,0,0-.31-.9,1.07,1.07,0,0,0-1.65,0,1.36,1.36,0,0,0-.32.9,1.4,1.4,0,0,0,.32.9,1.05,1.05,0,0,0,1.65,0A1.39,1.39,0,0,0,26.58,6.33Z"/><path class="cls-1" d="M32.73,2.39c0,.38,0,.93,0,1.68s0,1.29,0,1.66c0,1.14,0,2,.07,2.59v0s0,.05-.11.06h-.76s-.06-.1-.07-.3,0-.3,0-.3l-.06,0a1.72,1.72,0,0,1-2.69,0,2.33,2.33,0,0,1-.52-1.52A2.35,2.35,0,0,1,29,4.81a1.73,1.73,0,0,1,1.41-.66,1.43,1.43,0,0,1,.92.32l.35.32s0,0,0-.06V3.33c0-.09,0-.24,0-.43s0-.34,0-.44,0-.1.07-.1l.45,0,.46,0S32.73,2.33,32.73,2.39Zm-1,3.94a1.45,1.45,0,0,0-.31-.91A1,1,0,0,0,30.56,5a1,1,0,0,0-.84.41,1.45,1.45,0,0,0-.32.94,1.35,1.35,0,0,0,.33.9,1.05,1.05,0,0,0,.83.41,1,1,0,0,0,.83-.41A1.47,1.47,0,0,0,31.69,6.33Z"/><path class="cls-6" d="M17.2,4.4c0,.34,0,.86,0,1.55s0,1.22,0,1.56A2.28,2.28,0,0,1,16.76,9a1.77,1.77,0,0,1-1.42.52,2.8,2.8,0,0,1-1.53-.37c-.06,0-.09-.08-.09-.11s0-.18.12-.64c0,0,0-.07.06-.07l0,0a2.44,2.44,0,0,0,1.26.37,1.14,1.14,0,0,0,.68-.19.7.7,0,0,0,.31-.62c0-.06,0-.2,0-.41A1.44,1.44,0,0,1,15,8.11a1.6,1.6,0,0,1-1.26-.57,2,2,0,0,1-.48-1.36,2.15,2.15,0,0,1,.46-1.4A1.53,1.53,0,0,1,15,4.17a1.29,1.29,0,0,1,1.1.55q.06.09.09.09s0,0,0-.08V4.55a1.36,1.36,0,0,1,0-.18c0-.18,0-.26.05-.26a3.42,3.42,0,0,1,.45.08l.44.09A.12.12,0,0,1,17.2,4.4Zm-1,1.78A1.29,1.29,0,0,0,16,5.36.87.87,0,0,0,15.22,5a.86.86,0,0,0-.73.37,1.41,1.41,0,0,0,0,1.63.9.9,0,0,0,1.45,0A1.33,1.33,0,0,0,16.2,6.18Z"/><path class="cls-6" d="M22.42,6.32a2.22,2.22,0,0,1-.57,1.54,1.9,1.9,0,0,1-2.89,0,2.24,2.24,0,0,1-.57-1.54A2.22,2.22,0,0,1,19,4.79a1.93,1.93,0,0,1,2.89,0A2.2,2.2,0,0,1,22.42,6.32Zm-.88,0a1.35,1.35,0,0,0-.31-.9,1.07,1.07,0,0,0-1.65,0,1.36,1.36,0,0,0-.32.9,1.4,1.4,0,0,0,.32.9,1,1,0,0,0,.83.4,1,1,0,0,0,.82-.4A1.39,1.39,0,0,0,21.54,6.33Z"/><path class="cls-6" d="M27.46,6.32a2.22,2.22,0,0,1-.57,1.54,1.86,1.86,0,0,1-1.45.67A1.84,1.84,0,0,1,24,7.87a2.24,2.24,0,0,1-.57-1.54A2.22,2.22,0,0,1,24,4.79a1.93,1.93,0,0,1,2.89,0A2.2,2.2,0,0,1,27.46,6.32Zm-.88,0a1.35,1.35,0,0,0-.31-.9,1.07,1.07,0,0,0-1.65,0,1.36,1.36,0,0,0-.32.9,1.4,1.4,0,0,0,.32.9,1.05,1.05,0,0,0,1.65,0A1.39,1.39,0,0,0,26.58,6.33Z"/><path class="cls-6" d="M32.73,2.39c0,.38,0,.93,0,1.68s0,1.29,0,1.66c0,1.14,0,2,.07,2.59v0s0,.05-.11.06h-.76s-.06-.1-.07-.3,0-.3,0-.3l-.06,0a1.72,1.72,0,0,1-2.69,0,2.33,2.33,0,0,1-.52-1.52A2.35,2.35,0,0,1,29,4.81a1.73,1.73,0,0,1,1.41-.66,1.43,1.43,0,0,1,.92.32l.35.32s0,0,0-.06V3.33c0-.09,0-.24,0-.43s0-.34,0-.44,0-.1.07-.1l.45,0,.46,0S32.73,2.33,32.73,2.39Zm-1,3.94a1.45,1.45,0,0,0-.31-.91A1,1,0,0,0,30.56,5a1,1,0,0,0-.84.41,1.45,1.45,0,0,0-.32.94,1.35,1.35,0,0,0,.33.9,1.05,1.05,0,0,0,.83.41,1,1,0,0,0,.83-.41A1.47,1.47,0,0,0,31.69,6.33Z"/></svg>