<svg id="レイヤー_1" data-name="レイヤー 1" xmlns="http://www.w3.org/2000/svg" viewBox="0 0 46 50"><defs><style>.cls-1{fill:none;stroke:#fff;stroke-linecap:round;stroke-linejoin:round;}.cls-2{fill:#898989;}.cls-3{fill:#fff;}.cls-4{fill:#727171;}.cls-5{fill:#9fa0a0;}.cls-6{fill:#c9caca;}.cls-7{fill:#231815;}</style></defs><path class="cls-1" d="M36.2,15.23,34.09,12.8l-8.73,0H20.64l-8.73,0L9.8,15.23V47.42L23,41.13l13.2,6.29Z"/><path class="cls-2" d="M36.2,15.23,34.09,12.8l-8.73,0H20.64l-8.73,0L9.8,15.23V47.42L23,41.13l13.2,6.29Z"/><path class="cls-3" d="M35,15.86l-1.92-2.27s-4.41,0-7.94,0h-4.3c-3.53,0-7.94,0-7.94,0L11,15.86v30L23,40l12,5.86Z"/><path class="cls-4" d="M34.49,45.19l-.11-.06L23,39.51,11.51,45.19v-29l1.86-2.23h0L21,14H25l7.55,0h0l1.86,2.23Zm-22.82-29v28.7L23,39.32l0,0,11.29,5.58V16.22l-1.78-2.13-7.51,0H21l-7.51,0Z"/><polygon class="cls-5" points="18.1 27.73 19.04 29.62 21.13 29.93 19.62 31.4 19.98 33.49 18.1 32.5 16.23 33.49 16.59 31.4 15.07 29.93 17.17 29.62 18.1 27.73"/><polygon class="cls-5" points="28.01 27.89 28.94 29.79 31.04 30.09 29.52 31.57 29.88 33.65 28.01 32.67 26.14 33.65 26.49 31.57 24.98 30.09 27.07 29.79 28.01 27.89"/><polygon class="cls-5" points="23.06 20.02 23.99 21.92 26.09 22.22 24.57 23.7 24.93 25.78 23.06 24.8 21.18 25.78 21.54 23.7 20.03 22.22 22.12 21.92 23.06 20.02"/><rect class="cls-6" x="13.08" y="16.77" width="19.95" height="0.87"/><rect class="cls-6" x="13.08" y="36.04" width="19.95" height="0.87"/><path class="cls-1" d="M16,4.12V5.68c0,.69,0,1.21,0,1.56a2.21,2.21,0,0,1-.44,1.51,1.88,1.88,0,0,1-1.48.52,3,3,0,0,1-1.59-.37c-.06,0-.09-.07-.09-.1s0-.18.13-.64c0-.05,0-.08.06-.08l.05,0a2.71,2.71,0,0,0,1.3.37,1.27,1.27,0,0,0,.71-.19A.72.72,0,0,0,15,7.66c0-.06,0-.2,0-.41a1.52,1.52,0,0,1-1.22.59,1.66,1.66,0,0,1-1.31-.58A2,2,0,0,1,12,5.9a2.12,2.12,0,0,1,.48-1.4,1.64,1.64,0,0,1,1.31-.61,1.35,1.35,0,0,1,1.14.55c0,.06.08.09.1.09s0,0,0-.08a1.53,1.53,0,0,0,0-.18c0-.08,0-.14,0-.18s0-.26.05-.26l.47.08A3.78,3.78,0,0,1,16,4S16,4.06,16,4.12ZM15,5.9a1.26,1.26,0,0,0-.27-.82A.9.9,0,0,0,14,4.71a.92.92,0,0,0-.75.37A1.28,1.28,0,0,0,13,5.9a1.26,1.26,0,0,0,.27.81.93.93,0,0,0,1.5,0A1.21,1.21,0,0,0,15,5.9Z"/><path class="cls-1" d="M19.84,4.09a5.61,5.61,0,0,1-.06.86c0,.07,0,.1-.09.1a1.53,1.53,0,0,1-.27,0l-.28,0a.72.72,0,0,0-.7.31,2.15,2.15,0,0,0-.09.78v.47c0,.16,0,.41,0,.74s0,.57,0,.73,0,.12-.1.12h-.81c-.07,0-.1,0-.1-.11,0-.23,0-.58,0-1s0-.83,0-1.06a5.74,5.74,0,0,0-.2-1.72.43.43,0,0,0,0,0s0-.06.06-.08l.45,0L18.13,4c.05,0,.08.08.09.25s0,.26.08.26h0l.36-.23a2,2,0,0,1,.4-.17,1.63,1.63,0,0,1,.43,0Q19.84,4,19.84,4.09Z"/><path class="cls-1" d="M24.51,5.83a.43.43,0,0,1-.27.43c-.13,0-1,.13-2.68.25a1,1,0,0,0,.42.65,1.22,1.22,0,0,0,.74.25A2,2,0,0,0,24,7l.14-.11h0l.16.3a2.72,2.72,0,0,1,.15.31s0,0-.06.1a2.18,2.18,0,0,1-3.83-1.52,2.3,2.3,0,0,1,.57-1.55,1.88,1.88,0,0,1,1.47-.69,1.75,1.75,0,0,1,1.36.6A2,2,0,0,1,24.51,5.83Zm-1-.27a.84.84,0,0,0-.28-.63.87.87,0,0,0-.64-.28,1,1,0,0,0-.7.32,1,1,0,0,0-.31.72q0,.09.15.09a10.27,10.27,0,0,0,1.53-.13C23.4,5.63,23.48,5.6,23.48,5.56Z"/><path class="cls-1" d="M29.85,4.24a.26.26,0,0,1,0,.07A10.68,10.68,0,0,0,29.67,6s0,.68.11,1.94V8c0,.09,0,.13-.11.13l-.36,0-.36,0c-.05,0-.09-.11-.12-.31s-.06-.3-.08-.3a1.18,1.18,0,0,0-.24.17,2.51,2.51,0,0,1-.47.31,1.48,1.48,0,0,1-.69.18,1.8,1.8,0,0,1-1.41-.67,2.27,2.27,0,0,1-.55-1.49,2.36,2.36,0,0,1,.55-1.59,1.92,1.92,0,0,1,1.52-.65,1.65,1.65,0,0,1,1.15.45l.23.25,0,0a.78.78,0,0,0,.07-.27c0-.19.07-.28.12-.28a2.28,2.28,0,0,1,.44.07C29.73,4.15,29.85,4.2,29.85,4.24ZM28.75,6a1.38,1.38,0,0,0-.32-.91,1,1,0,0,0-.85-.41,1.09,1.09,0,0,0-.86.41,1.39,1.39,0,0,0,0,1.82,1.08,1.08,0,0,0,.86.4,1,1,0,0,0,.85-.41A1.36,1.36,0,0,0,28.75,6Z"/><path class="cls-1" d="M33.5,7.35c0,.07,0,.15,0,.26s0,.23,0,.27,0,.08,0,.09a.18.18,0,0,1-.08.06,2.82,2.82,0,0,1-1.12.17c-.67,0-1-.3-1-.92,0-.24,0-.61,0-1.1s0-.86,0-1.1a.18.18,0,0,0-.18-.2h-.32c-.06,0-.09-.13-.09-.35a2.45,2.45,0,0,1,0-.27c0-.07.05-.11.14-.12h.21c.13,0,.2-.06.2-.17s0-.3,0-.53,0-.42,0-.53,0-.32.12-.32l.81.13c.07,0,.1,0,.1.1s0,.32,0,.57,0,.44,0,.57,0,.13.12.13h1s.07,0,.07,0a1.1,1.1,0,0,1,0,.16c0,.08,0,.14,0,.18a1.58,1.58,0,0,0,0,.19v.2q0,.09-.12.09l-.52,0-.53,0s0,.08-.05.24,0,.5,0,.86v.65a1.28,1.28,0,0,0,.07.52.42.42,0,0,0,.43.22,1.85,1.85,0,0,0,.39-.06,2.63,2.63,0,0,1,.38,0S33.5,7.3,33.5,7.35Z"/><path class="cls-7" d="M16,4.12V5.68c0,.69,0,1.21,0,1.56a2.21,2.21,0,0,1-.44,1.51,1.88,1.88,0,0,1-1.48.52,3,3,0,0,1-1.59-.37c-.06,0-.09-.07-.09-.1s0-.18.13-.64c0-.05,0-.08.06-.08l.05,0a2.71,2.71,0,0,0,1.3.37,1.27,1.27,0,0,0,.71-.19A.72.72,0,0,0,15,7.66c0-.06,0-.2,0-.41a1.52,1.52,0,0,1-1.22.59,1.66,1.66,0,0,1-1.31-.58A2,2,0,0,1,12,5.9a2.12,2.12,0,0,1,.48-1.4,1.64,1.64,0,0,1,1.31-.61,1.35,1.35,0,0,1,1.14.55c0,.06.08.09.1.09s0,0,0-.08a1.53,1.53,0,0,0,0-.18c0-.08,0-.14,0-.18s0-.26.05-.26l.47.08A3.78,3.78,0,0,1,16,4S16,4.06,16,4.12ZM15,5.9a1.26,1.26,0,0,0-.27-.82A.9.9,0,0,0,14,4.71a.92.92,0,0,0-.75.37A1.28,1.28,0,0,0,13,5.9a1.26,1.26,0,0,0,.27.81.93.93,0,0,0,1.5,0A1.21,1.21,0,0,0,15,5.9Z"/><path class="cls-7" d="M19.84,4.09a5.61,5.61,0,0,1-.06.86c0,.07,0,.1-.09.1a1.53,1.53,0,0,1-.27,0l-.28,0a.72.72,0,0,0-.7.31,2.15,2.15,0,0,0-.09.78v.47c0,.16,0,.41,0,.74s0,.57,0,.73,0,.12-.1.12h-.81c-.07,0-.1,0-.1-.11,0-.23,0-.58,0-1s0-.83,0-1.06a5.74,5.74,0,0,0-.2-1.72.43.43,0,0,0,0,0s0-.06.06-.08l.45,0L18.13,4c.05,0,.08.08.09.25s0,.26.08.26h0l.36-.23a2,2,0,0,1,.4-.17,1.63,1.63,0,0,1,.43,0Q19.84,4,19.84,4.09Z"/><path class="cls-7" d="M24.51,5.83a.43.43,0,0,1-.27.43c-.13,0-1,.13-2.68.25a1,1,0,0,0,.42.65,1.22,1.22,0,0,0,.74.25A2,2,0,0,0,24,7l.14-.11h0l.16.3a2.72,2.72,0,0,1,.15.31s0,0-.06.1a2.18,2.18,0,0,1-3.83-1.52,2.3,2.3,0,0,1,.57-1.55,1.88,1.88,0,0,1,1.47-.69,1.75,1.75,0,0,1,1.36.6A2,2,0,0,1,24.51,5.83Zm-1-.27a.84.84,0,0,0-.28-.63.87.87,0,0,0-.64-.28,1,1,0,0,0-.7.32,1,1,0,0,0-.31.72q0,.09.15.09a10.27,10.27,0,0,0,1.53-.13C23.4,5.63,23.48,5.6,23.48,5.56Z"/><path class="cls-7" d="M29.85,4.24a.26.26,0,0,1,0,.07A10.68,10.68,0,0,0,29.67,6s0,.68.11,1.94V8c0,.09,0,.13-.11.13l-.36,0-.36,0c-.05,0-.09-.11-.12-.31s-.06-.3-.08-.3a1.18,1.18,0,0,0-.24.17,2.51,2.51,0,0,1-.47.31,1.48,1.48,0,0,1-.69.18,1.8,1.8,0,0,1-1.41-.67,2.27,2.27,0,0,1-.55-1.49,2.36,2.36,0,0,1,.55-1.59,1.92,1.92,0,0,1,1.52-.65,1.65,1.65,0,0,1,1.15.45l.23.25,0,0a.78.78,0,0,0,.07-.27c0-.19.07-.28.12-.28a2.28,2.28,0,0,1,.44.07C29.73,4.15,29.85,4.2,29.85,4.24ZM28.75,6a1.38,1.38,0,0,0-.32-.91,1,1,0,0,0-.85-.41,1.09,1.09,0,0,0-.86.41,1.39,1.39,0,0,0,0,1.82,1.08,1.08,0,0,0,.86.4,1,1,0,0,0,.85-.41A1.36,1.36,0,0,0,28.75,6Z"/><path class="cls-7" d="M33.5,7.35c0,.07,0,.15,0,.26s0,.23,0,.27,0,.08,0,.09a.18.18,0,0,1-.08.06,2.82,2.82,0,0,1-1.12.17c-.67,0-1-.3-1-.92,0-.24,0-.61,0-1.1s0-.86,0-1.1a.18.18,0,0,0-.18-.2h-.32c-.06,0-.09-.13-.09-.35a2.45,2.45,0,0,1,0-.27c0-.07.05-.11.14-.12h.21c.13,0,.2-.06.2-.17s0-.3,0-.53,0-.42,0-.53,0-.32.12-.32l.81.13c.07,0,.1,0,.1.1s0,.32,0,.57,0,.44,0,.57,0,.13.12.13h1s.07,0,.07,0a1.1,1.1,0,0,1,0,.16c0,.08,0,.14,0,.18a1.58,1.58,0,0,0,0,.19v.2q0,.09-.12.09l-.52,0-.53,0s0,.08-.05.24,0,.5,0,.86v.65a1.28,1.28,0,0,0,.07.52.42.42,0,0,0,.43.22,1.85,1.85,0,0,0,.39-.06,2.63,2.63,0,0,1,.38,0S33.5,7.3,33.5,7.35Z"/></svg>