<svg width="29" height="28" viewBox="0 0 29 28" fill="none" xmlns="http://www.w3.org/2000/svg">
<g clip-path="url(#clip0_517_1813)">
<path d="M5.16667 7.00004H7.5V21H5.16667V7.00004ZM8.66667 7.00004H9.83333V21H8.66667V7.00004ZM11 7.00004H14.5V21H11V7.00004ZM15.6667 7.00004H16.8333V21H15.6667V7.00004ZM19.1667 7.00004H21.5V21H19.1667V7.00004ZM22.6667 7.00004H23.8333V21H22.6667V7.00004ZM2.83333 4.66671V9.33337H0.5V4.66671C0.5 4.04787 0.745833 3.45438 1.18342 3.01679C1.621 2.57921 2.21449 2.33337 2.83333 2.33337H7.5V4.66671H2.83333ZM26.1667 2.33337C26.7855 2.33337 27.379 2.57921 27.8166 3.01679C28.2542 3.45438 28.5 4.04787 28.5 4.66671V9.33337H26.1667V4.66671H21.5V2.33337H26.1667ZM2.83333 18.6667V23.3334H7.5V25.6667H2.83333C2.21449 25.6667 1.621 25.4209 1.18342 24.9833C0.745833 24.5457 0.5 23.9522 0.5 23.3334V18.6667H2.83333ZM26.1667 23.3334V18.6667H28.5V23.3334C28.5 23.9522 28.2542 24.5457 27.8166 24.9833C27.379 25.4209 26.7855 25.6667 26.1667 25.6667H21.5V23.3334H26.1667Z" fill="white"/>
</g>
<defs>
<clipPath id="clip0_517_1813">
<rect width="28" height="28" fill="white" transform="translate(0.5)"/>
</clipPath>
</defs>
</svg>
