<svg width="28" height="27" viewBox="0 0 28 27" fill="none" xmlns="http://www.w3.org/2000/svg">
<path d="M18.6547 11.5312H21.0172M18.6547 16.2562H21.0172M7.04297 17.4375C7.28647 16.7453 7.73885 16.1458 8.33764 15.7216C8.93644 15.2975 9.65212 15.0697 10.3859 15.0697C11.1197 15.0697 11.8354 15.2975 12.4342 15.7216C13.033 16.1458 13.4853 16.7453 13.7288 17.4375" stroke="black" stroke-width="2" stroke-linecap="round" stroke-linejoin="round"/>
<path d="M10.3859 15.075C11.6907 15.075 12.7484 14.0172 12.7484 12.7125C12.7484 11.4077 11.6907 10.35 10.3859 10.35C9.08116 10.35 8.02344 11.4077 8.02344 12.7125C8.02344 14.0172 9.08116 15.075 10.3859 15.075Z" stroke="black" stroke-width="2" stroke-linecap="round" stroke-linejoin="round"/>
<path d="M23.3797 5.625H4.47969C3.17491 5.625 2.11719 6.68273 2.11719 7.9875V19.8C2.11719 21.1048 3.17491 22.1625 4.47969 22.1625H23.3797C24.6845 22.1625 25.7422 21.1048 25.7422 19.8V7.9875C25.7422 6.68273 24.6845 5.625 23.3797 5.625Z" stroke="black" stroke-width="2" stroke-linecap="round" stroke-linejoin="round"/>
</svg>
