<svg id="レイヤー_1" data-name="レイヤー 1" xmlns="http://www.w3.org/2000/svg" viewBox="0 0 46 50"><defs><style>.cls-1{fill:none;stroke:#fff;stroke-linecap:round;stroke-linejoin:round;}.cls-2{fill:#e4c285;}.cls-3{fill:#fff;}.cls-4{fill:#c9a063;}.cls-5{fill:#d3c380;}.cls-6{fill:#c78212;}</style></defs><path class="cls-1" d="M36.2,15.48l-2.11-2.43-8.73,0H20.64l-8.73,0L9.8,15.48V47.67L23,41.38l13.2,6.29Z"/><path class="cls-1" d="M35,16.11l-1.92-2.27s-4.41,0-7.94,0h-4.3c-3.53,0-7.94,0-7.94,0L11,16.11v30l12-5.86,12,5.86Z"/><path class="cls-1" d="M34.49,45.44l-.11-.06L23,39.76,11.51,45.44v-29l1.86-2.23h0s4.23,0,7.55,0H25c3.32,0,7.51,0,7.55,0h0l1.86,2.23ZM23,39.57l0,0,11.29,5.58V16.47l-1.78-2.13-7.51,0s-.86,0-2,0-2,0-2,0l-7.51,0-1.78,2.13v28.7Z"/><polygon class="cls-1" points="18.1 27.98 19.04 29.87 21.13 30.18 19.62 31.65 19.98 33.74 18.1 32.75 16.23 33.74 16.59 31.65 15.07 30.18 17.17 29.87 18.1 27.98"/><polygon class="cls-1" points="18.39 20.27 19.33 22.17 21.42 22.47 19.91 23.95 20.26 26.03 18.39 25.05 16.52 26.03 16.88 23.95 15.36 22.47 17.46 22.17 18.39 20.27"/><polygon class="cls-1" points="28.01 28.14 28.94 30.04 31.04 30.34 29.52 31.82 29.88 33.9 28.01 32.92 26.14 33.9 26.49 31.82 24.98 30.34 27.07 30.04 28.01 28.14"/><polygon class="cls-1" points="28.01 20.27 28.94 22.17 31.04 22.47 29.52 23.95 29.88 26.03 28.01 25.05 26.14 26.03 26.49 23.95 24.98 22.47 27.07 22.17 28.01 20.27"/><rect class="cls-1" x="13.08" y="17.02" width="19.95" height="0.87"/><rect class="cls-1" x="13.08" y="36.29" width="19.95" height="0.87"/><path class="cls-2" d="M36.2,15.48l-2.11-2.43-8.73,0H20.64l-8.73,0L9.8,15.48V47.67L23,41.38l13.2,6.29Z"/><path class="cls-3" d="M35,16.11l-1.92-2.27s-4.41,0-7.94,0h-4.3c-3.53,0-7.94,0-7.94,0L11,16.11v30l12-5.86,12,5.86Z"/><path class="cls-4" d="M34.49,45.44l-.11-.06L23,39.76,11.51,45.44v-29l1.86-2.23h0s4.23,0,7.55,0H25c3.32,0,7.51,0,7.55,0h0l1.86,2.23ZM23,39.57l0,0,11.29,5.58V16.47l-1.78-2.13-7.51,0s-.86,0-2,0-2,0-2,0l-7.51,0-1.78,2.13v28.7Z"/><polygon class="cls-2" points="18.1 27.98 19.04 29.87 21.13 30.18 19.62 31.65 19.98 33.74 18.1 32.75 16.23 33.74 16.59 31.65 15.07 30.18 17.17 29.87 18.1 27.98"/><polygon class="cls-2" points="18.39 20.27 19.33 22.17 21.42 22.47 19.91 23.95 20.26 26.03 18.39 25.05 16.52 26.03 16.88 23.95 15.36 22.47 17.46 22.17 18.39 20.27"/><polygon class="cls-2" points="28.01 28.14 28.94 30.04 31.04 30.34 29.52 31.82 29.88 33.9 28.01 32.92 26.14 33.9 26.49 31.82 24.98 30.34 27.07 30.04 28.01 28.14"/><polygon class="cls-2" points="28.01 20.27 28.94 22.17 31.04 22.47 29.52 23.95 29.88 26.03 28.01 25.05 26.14 26.03 26.49 23.95 24.98 22.47 27.07 22.17 28.01 20.27"/><rect class="cls-5" x="13.08" y="17.02" width="19.95" height="0.87"/><rect class="cls-5" x="13.08" y="36.29" width="19.95" height="0.87"/><path class="cls-1" d="M9.81,6.08a.4.4,0,0,1-.28.42,24.58,24.58,0,0,1-2.67.26,1,1,0,0,0,.42.65A1.22,1.22,0,0,0,8,7.66a2,2,0,0,0,1.25-.44l.14-.11h.05a2,2,0,0,1,.16.3,2.72,2.72,0,0,1,.15.31s0,0-.07.1a2.13,2.13,0,0,1-1.63.68,2.16,2.16,0,0,1-1.6-.6,2.19,2.19,0,0,1-.59-1.6,2.3,2.3,0,0,1,.57-1.55,1.88,1.88,0,0,1,1.47-.69,1.76,1.76,0,0,1,1.36.6A2,2,0,0,1,9.81,6.08Zm-1-.27a.84.84,0,0,0-.28-.63.87.87,0,0,0-.64-.28,1,1,0,0,0-.71.32,1,1,0,0,0-.31.72C6.84,6,6.9,6,7,6A10.27,10.27,0,0,0,8.53,5.9C8.7,5.88,8.78,5.85,8.78,5.81Z"/><path class="cls-1" d="M14,8.32s0,.07-.09.08h-.34a.65.65,0,0,1-.41-.08c-.18-.26-.44-.65-.8-1.15-.07-.1-.11-.14-.12-.14a3.87,3.87,0,0,0-.49.66,2.58,2.58,0,0,1-.54.69,6,6,0,0,1-.62,0c-.07,0-.1,0-.1-.08V7.85a6.42,6.42,0,0,1,.57-.75,4,4,0,0,0,.58-.76,4.43,4.43,0,0,0-.58-.76,4.2,4.2,0,0,1-.57-.76V4.36c0-.06,0-.09.1-.09l.33,0,.32,0a.14.14,0,0,1,.11.06c.17.26.43.65.78,1.16a1,1,0,0,0,.11.14s0,0,.09-.11c.17-.23.45-.63.83-1.21a.12.12,0,0,1,.1-.06h.63c.08,0,.11,0,.11.09v.45a3.72,3.72,0,0,1-.57.77,4.43,4.43,0,0,0-.58.76,5.57,5.57,0,0,0,.58.74,4.28,4.28,0,0,1,.57.78Z"/><path class="cls-1" d="M18,4.48a2.67,2.67,0,0,1-.1.42c-.07.22-.12.33-.14.33l-.39-.17A1,1,0,0,0,16.93,5a1.15,1.15,0,0,0-.89.39,1.32,1.32,0,0,0-.35.93A1.27,1.27,0,0,0,16,7.2a1.14,1.14,0,0,0,.89.4,1.33,1.33,0,0,0,.57-.14c.18-.1.27-.14.24-.14s.08.12.13.36a3.07,3.07,0,0,1,.06.45c0,.09-.16.18-.5.27a3,3,0,0,1-.63.11,2,2,0,0,1-1.5-.67,2.2,2.2,0,0,1-.6-1.55,2.19,2.19,0,0,1,.58-1.55,2,2,0,0,1,1.51-.66,2,2,0,0,1,1.11.31Q18,4.44,18,4.48Z"/><path class="cls-1" d="M22.54,6.08a.41.41,0,0,1-.27.42,25.36,25.36,0,0,1-2.68.26,1,1,0,0,0,.42.65,1.22,1.22,0,0,0,.74.25A2,2,0,0,0,22,7.22l.13-.11h.05a2,2,0,0,1,.16.3,2.72,2.72,0,0,1,.15.31s0,0-.07.1a2.13,2.13,0,0,1-1.63.68,2.17,2.17,0,0,1-1.6-.6,2.19,2.19,0,0,1-.59-1.6,2.3,2.3,0,0,1,.57-1.55,1.88,1.88,0,0,1,1.47-.69,1.76,1.76,0,0,1,1.36.6A2,2,0,0,1,22.54,6.08Zm-1-.27a.84.84,0,0,0-.28-.63.87.87,0,0,0-.64-.28,1,1,0,0,0-.7.32,1,1,0,0,0-.31.72q0,.09.15.09a10.27,10.27,0,0,0,1.53-.13C21.43,5.88,21.51,5.85,21.51,5.81Z"/><path class="cls-1" d="M24.6,2.4v.06q-.09,1.6-.09,2.76c0,.34,0,.86,0,1.54s0,1.2,0,1.54c0,.06,0,.1-.07.1h-.82c-.06,0-.08,0-.08-.1,0-.34,0-.85,0-1.54V5.22c0-.31,0-.78,0-1.4s-.05-1.09-.05-1.4a.08.08,0,0,1,.09-.09h.24l.23,0,.24,0h.24C24.57,2.33,24.6,2.35,24.6,2.4Z"/><path class="cls-1" d="M26.9,2.4v.06c-.07,1.07-.1,2-.1,2.76,0,.34,0,.86,0,1.54s0,1.2,0,1.54c0,.06,0,.1-.06.1h-.83c-.05,0-.08,0-.08-.1,0-.34,0-.85,0-1.54s0-1.2,0-1.54,0-.78-.05-1.4,0-1.09,0-1.4a.08.08,0,0,1,.09-.09h.23l.24,0,.24,0h.24C26.88,2.33,26.9,2.35,26.9,2.4Z"/><path class="cls-1" d="M31.77,6.08a.4.4,0,0,1-.28.42,24.58,24.58,0,0,1-2.67.26,1,1,0,0,0,.42.65,1.22,1.22,0,0,0,.74.25,2,2,0,0,0,1.26-.44l.13-.11h.05a2,2,0,0,1,.16.3,2.72,2.72,0,0,1,.15.31s0,0-.07.1A2.13,2.13,0,0,1,30,8.51a2.16,2.16,0,0,1-1.6-.6,2.19,2.19,0,0,1-.59-1.6,2.3,2.3,0,0,1,.57-1.55,1.88,1.88,0,0,1,1.47-.69,1.76,1.76,0,0,1,1.36.6A2,2,0,0,1,31.77,6.08Zm-1-.27a.84.84,0,0,0-.28-.63.87.87,0,0,0-.64-.28,1,1,0,0,0-.71.32,1,1,0,0,0-.3.72q0,.09.15.09a10.27,10.27,0,0,0,1.53-.13C30.66,5.88,30.74,5.85,30.74,5.81Z"/><path class="cls-1" d="M36.54,8.31c0,.06,0,.1-.09.1H35.6c-.05,0-.08,0-.08-.13s0-.35,0-.64,0-.51,0-.65V6.46c0-.23,0-.4,0-.51a1.34,1.34,0,0,0-.14-.7A.75.75,0,0,0,34.76,5a1.23,1.23,0,0,0-.6.24c-.27.17-.41.32-.41.45V8.3c0,.07,0,.11-.08.11h-.83c-.06,0-.09,0-.09-.1,0-.23,0-.57,0-1s0-.79,0-1a6.89,6.89,0,0,0-.19-1.69l0-.06s0,0,.06-.06l.49-.08.49-.08s0,0,0,.07a3.41,3.41,0,0,0,.1.54l.6-.44a1.71,1.71,0,0,1,.87-.28,1.21,1.21,0,0,1,1.12.48,2.22,2.22,0,0,1,.22,1.12c0,.09,0,.22,0,.41s0,.32,0,.41,0,.48,0,.87S36.54,8.12,36.54,8.31Z"/><path class="cls-1" d="M40.12,7.6c0,.07,0,.15,0,.26a2.32,2.32,0,0,0,0,.27.55.55,0,0,1,0,.09.18.18,0,0,1-.08.06,2.82,2.82,0,0,1-1.12.17c-.67,0-1-.31-1-.92,0-.24,0-.61,0-1.1s0-.86,0-1.11a.17.17,0,0,0-.17-.19H37.4c-.06,0-.09-.13-.09-.36a1.18,1.18,0,0,1,0-.26.13.13,0,0,1,.13-.12h.22c.13,0,.2-.06.2-.18s0-.29,0-.52,0-.42,0-.54,0-.31.12-.31l.82.13c.06,0,.1,0,.1.1s0,.32,0,.57,0,.44,0,.57a.11.11,0,0,0,.12.12h1s.07,0,.07.06,0,.09,0,.16a1.31,1.31,0,0,0,0,.17v.2a1.72,1.72,0,0,1,0,.2c0,.06,0,.08-.12.08s-.29,0-.53,0-.4,0-.52,0,0,.08,0,.24,0,.49,0,.86V6.9a1.28,1.28,0,0,0,.07.52.41.41,0,0,0,.42.22,2,2,0,0,0,.4-.06,1.88,1.88,0,0,1,.38-.06S40.12,7.55,40.12,7.6Z"/><path class="cls-6" d="M9.81,6.08a.4.4,0,0,1-.28.42,24.58,24.58,0,0,1-2.67.26,1,1,0,0,0,.42.65A1.22,1.22,0,0,0,8,7.66a2,2,0,0,0,1.25-.44l.14-.11h.05a2,2,0,0,1,.16.3,2.72,2.72,0,0,1,.15.31s0,0-.07.1a2.13,2.13,0,0,1-1.63.68,2.16,2.16,0,0,1-1.6-.6,2.19,2.19,0,0,1-.59-1.6,2.3,2.3,0,0,1,.57-1.55,1.88,1.88,0,0,1,1.47-.69,1.76,1.76,0,0,1,1.36.6A2,2,0,0,1,9.81,6.08Zm-1-.27a.84.84,0,0,0-.28-.63.87.87,0,0,0-.64-.28,1,1,0,0,0-.71.32,1,1,0,0,0-.31.72C6.84,6,6.9,6,7,6A10.27,10.27,0,0,0,8.53,5.9C8.7,5.88,8.78,5.85,8.78,5.81Z"/><path class="cls-6" d="M14,8.32s0,.07-.09.08h-.34a.65.65,0,0,1-.41-.08c-.18-.26-.44-.65-.8-1.15-.07-.1-.11-.14-.12-.14a3.87,3.87,0,0,0-.49.66,2.58,2.58,0,0,1-.54.69,6,6,0,0,1-.62,0c-.07,0-.1,0-.1-.08V7.85a6.42,6.42,0,0,1,.57-.75,4,4,0,0,0,.58-.76,4.43,4.43,0,0,0-.58-.76,4.2,4.2,0,0,1-.57-.76V4.36c0-.06,0-.09.1-.09l.33,0,.32,0a.14.14,0,0,1,.11.06c.17.26.43.65.78,1.16a1,1,0,0,0,.11.14s0,0,.09-.11c.17-.23.45-.63.83-1.21a.12.12,0,0,1,.1-.06h.63c.08,0,.11,0,.11.09v.45a3.72,3.72,0,0,1-.57.77,4.43,4.43,0,0,0-.58.76,5.57,5.57,0,0,0,.58.74,4.28,4.28,0,0,1,.57.78Z"/><path class="cls-6" d="M18,4.48a2.67,2.67,0,0,1-.1.42c-.07.22-.12.33-.14.33l-.39-.17A1,1,0,0,0,16.93,5a1.15,1.15,0,0,0-.89.39,1.32,1.32,0,0,0-.35.93A1.27,1.27,0,0,0,16,7.2a1.14,1.14,0,0,0,.89.4,1.33,1.33,0,0,0,.57-.14c.18-.1.27-.14.24-.14s.08.12.13.36a3.07,3.07,0,0,1,.06.45c0,.09-.16.18-.5.27a3,3,0,0,1-.63.11,2,2,0,0,1-1.5-.67,2.2,2.2,0,0,1-.6-1.55,2.19,2.19,0,0,1,.58-1.55,2,2,0,0,1,1.51-.66,2,2,0,0,1,1.11.31Q18,4.44,18,4.48Z"/><path class="cls-6" d="M22.54,6.08a.41.41,0,0,1-.27.42,25.36,25.36,0,0,1-2.68.26,1,1,0,0,0,.42.65,1.22,1.22,0,0,0,.74.25A2,2,0,0,0,22,7.22l.13-.11h.05a2,2,0,0,1,.16.3,2.72,2.72,0,0,1,.15.31s0,0-.07.1a2.13,2.13,0,0,1-1.63.68,2.17,2.17,0,0,1-1.6-.6,2.19,2.19,0,0,1-.59-1.6,2.3,2.3,0,0,1,.57-1.55,1.88,1.88,0,0,1,1.47-.69,1.76,1.76,0,0,1,1.36.6A2,2,0,0,1,22.54,6.08Zm-1-.27a.84.84,0,0,0-.28-.63.87.87,0,0,0-.64-.28,1,1,0,0,0-.7.32,1,1,0,0,0-.31.72q0,.09.15.09a10.27,10.27,0,0,0,1.53-.13C21.43,5.88,21.51,5.85,21.51,5.81Z"/><path class="cls-6" d="M24.6,2.4v.06q-.09,1.6-.09,2.76c0,.34,0,.86,0,1.54s0,1.2,0,1.54c0,.06,0,.1-.07.1h-.82c-.06,0-.08,0-.08-.1,0-.34,0-.85,0-1.54V5.22c0-.31,0-.78,0-1.4s-.05-1.09-.05-1.4a.08.08,0,0,1,.09-.09h.24l.23,0,.24,0h.24C24.57,2.33,24.6,2.35,24.6,2.4Z"/><path class="cls-6" d="M26.9,2.4v.06c-.07,1.07-.1,2-.1,2.76,0,.34,0,.86,0,1.54s0,1.2,0,1.54c0,.06,0,.1-.06.1h-.83c-.05,0-.08,0-.08-.1,0-.34,0-.85,0-1.54s0-1.2,0-1.54,0-.78-.05-1.4,0-1.09,0-1.4a.08.08,0,0,1,.09-.09h.23l.24,0,.24,0h.24C26.88,2.33,26.9,2.35,26.9,2.4Z"/><path class="cls-6" d="M31.77,6.08a.4.4,0,0,1-.28.42,24.58,24.58,0,0,1-2.67.26,1,1,0,0,0,.42.65,1.22,1.22,0,0,0,.74.25,2,2,0,0,0,1.26-.44l.13-.11h.05a2,2,0,0,1,.16.3,2.72,2.72,0,0,1,.15.31s0,0-.07.1A2.13,2.13,0,0,1,30,8.51a2.16,2.16,0,0,1-1.6-.6,2.19,2.19,0,0,1-.59-1.6,2.3,2.3,0,0,1,.57-1.55,1.88,1.88,0,0,1,1.47-.69,1.76,1.76,0,0,1,1.36.6A2,2,0,0,1,31.77,6.08Zm-1-.27a.84.84,0,0,0-.28-.63.87.87,0,0,0-.64-.28,1,1,0,0,0-.71.32,1,1,0,0,0-.3.72q0,.09.15.09a10.27,10.27,0,0,0,1.53-.13C30.66,5.88,30.74,5.85,30.74,5.81Z"/><path class="cls-6" d="M36.54,8.31c0,.06,0,.1-.09.1H35.6c-.05,0-.08,0-.08-.13s0-.35,0-.64,0-.51,0-.65V6.46c0-.23,0-.4,0-.51a1.34,1.34,0,0,0-.14-.7A.75.75,0,0,0,34.76,5a1.23,1.23,0,0,0-.6.24c-.27.17-.41.32-.41.45V8.3c0,.07,0,.11-.08.11h-.83c-.06,0-.09,0-.09-.1,0-.23,0-.57,0-1s0-.79,0-1a6.89,6.89,0,0,0-.19-1.69l0-.06s0,0,.06-.06l.49-.08.49-.08s0,0,0,.07a3.41,3.41,0,0,0,.1.54l.6-.44a1.71,1.71,0,0,1,.87-.28,1.21,1.21,0,0,1,1.12.48,2.22,2.22,0,0,1,.22,1.12c0,.09,0,.22,0,.41s0,.32,0,.41,0,.48,0,.87S36.54,8.12,36.54,8.31Z"/><path class="cls-6" d="M40.12,7.6c0,.07,0,.15,0,.26a2.32,2.32,0,0,0,0,.27.55.55,0,0,1,0,.09.18.18,0,0,1-.08.06,2.82,2.82,0,0,1-1.12.17c-.67,0-1-.31-1-.92,0-.24,0-.61,0-1.1s0-.86,0-1.11a.17.17,0,0,0-.17-.19H37.4c-.06,0-.09-.13-.09-.36a1.18,1.18,0,0,1,0-.26.13.13,0,0,1,.13-.12h.22c.13,0,.2-.06.2-.18s0-.29,0-.52,0-.42,0-.54,0-.31.12-.31l.82.13c.06,0,.1,0,.1.1s0,.32,0,.57,0,.44,0,.57a.11.11,0,0,0,.12.12h1s.07,0,.07.06,0,.09,0,.16a1.31,1.31,0,0,0,0,.17v.2a1.72,1.72,0,0,1,0,.2c0,.06,0,.08-.12.08s-.29,0-.53,0-.4,0-.52,0,0,.08,0,.24,0,.49,0,.86V6.9a1.28,1.28,0,0,0,.07.52.41.41,0,0,0,.42.22,2,2,0,0,0,.4-.06,1.88,1.88,0,0,1,.38-.06S40.12,7.55,40.12,7.6Z"/></svg>