<svg id="レイヤー_1" data-name="レイヤー 1" xmlns="http://www.w3.org/2000/svg" viewBox="0 0 46 50"><defs><style>.cls-1{fill:none;stroke:#fff;stroke-linecap:round;stroke-linejoin:round;}.cls-2{fill:#c19683;}.cls-3{fill:#a4735c;}.cls-4{fill:#fff;}.cls-5{fill:#917464;}.cls-6{fill:#b0856d;}.cls-7{fill:#65473d;}</style></defs><rect class="cls-1" x="13.13" y="17.05" width="19.95" height="0.87"/><path class="cls-1" d="M36.31,15.51,34.2,13.08l-8.73,0H20.75l-8.73,0L9.91,15.51V47.7l13.2-6.29,13.2,6.29Z"/><path class="cls-1" d="M35.12,16.14l-1.91-2.27-7.95,0H21l-7.94,0L11.1,16.14v30l12-5.86,12,5.86Z"/><path class="cls-1" d="M34.6,45.46,23.11,39.78,11.62,45.46v-29l1.86-2.24h0s4.23,0,7.55,0h4.08c3.32,0,7.51,0,7.55,0h0l1.86,2.24ZM23.11,39.6l0,0L34.44,45.2V16.5l-1.78-2.13-7.51,0H21.07l-7.51,0L11.78,16.5V45.2Z"/><polygon class="cls-1" points="18.5 20.3 19.44 22.2 21.53 22.5 20.02 23.98 20.37 26.06 18.5 25.08 16.63 26.06 16.99 23.98 15.47 22.5 17.57 22.2 18.5 20.3"/><polygon class="cls-1" points="28.12 28.17 29.05 30.07 31.15 30.37 29.63 31.85 29.99 33.93 28.12 32.95 26.25 33.93 26.6 31.85 25.09 30.37 27.18 30.07 28.12 28.17"/><rect class="cls-1" x="13.19" y="36.31" width="19.95" height="0.87"/><rect class="cls-1" x="13.19" y="17.1" width="19.95" height="0.87"/><rect class="cls-2" x="13.13" y="17.05" width="19.95" height="0.87"/><path class="cls-3" d="M36.31,15.51,34.2,13.08l-8.73,0H20.75l-8.73,0L9.91,15.51V47.7l13.2-6.29,13.2,6.29Z"/><path class="cls-4" d="M35.12,16.14l-1.91-2.27-7.95,0H21l-7.94,0L11.1,16.14v30l12-5.86,12,5.86Z"/><path class="cls-5" d="M34.6,45.46,23.11,39.78,11.62,45.46v-29l1.86-2.24h0s4.23,0,7.55,0h4.08c3.32,0,7.51,0,7.55,0h0l1.86,2.24ZM23.11,39.6l0,0L34.44,45.2V16.5l-1.78-2.13-7.51,0H21.07l-7.51,0L11.78,16.5V45.2Z"/><polygon class="cls-6" points="18.5 20.3 19.44 22.2 21.53 22.5 20.02 23.98 20.37 26.06 18.5 25.08 16.63 26.06 16.99 23.98 15.47 22.5 17.57 22.2 18.5 20.3"/><polygon class="cls-6" points="28.12 28.17 29.05 30.07 31.15 30.37 29.63 31.85 29.99 33.93 28.12 32.95 26.25 33.93 26.6 31.85 25.09 30.37 27.18 30.07 28.12 28.17"/><rect class="cls-2" x="13.19" y="36.31" width="19.95" height="0.87"/><rect class="cls-2" x="13.19" y="17.1" width="19.95" height="0.87"/><path class="cls-1" d="M8.13,5.56a3,3,0,0,1,0,.71,7.4,7.4,0,0,1-.7,1.14,4.92,4.92,0,0,1-.78,1,2.05,2.05,0,0,1-.36,0l-.38,0a5.35,5.35,0,0,1-.79-1,8.35,8.35,0,0,1-.73-1.11,2.57,2.57,0,0,1-.1-.85V5c0-.23,0-.41,0-.53s0-.09.1-.09h.85s.08,0,.08.09,0,.23,0,.41,0,.31,0,.41A5.31,5.31,0,0,0,5.3,6a3,3,0,0,0,.44.81c.27.42.45.64.51.64s.22-.21.47-.63A3.41,3.41,0,0,0,7.12,6a5.59,5.59,0,0,0,0-.74c0-.09,0-.24,0-.43s0-.33,0-.42,0-.07.06-.07h.42l.42,0C8.09,4.34,8.13,4.75,8.13,5.56Z"/><path class="cls-1" d="M12.72,6.1a.41.41,0,0,1-.28.43c-.12,0-1,.13-2.67.26a.94.94,0,0,0,.42.65,1.2,1.2,0,0,0,.74.25,2,2,0,0,0,1.25-.44l.14-.11h0s.06.1.16.3a2.72,2.72,0,0,1,.15.31s0,0-.07.1A2.13,2.13,0,0,1,11,8.53a2.16,2.16,0,0,1-1.6-.6,2.13,2.13,0,0,1-.59-1.59,2.28,2.28,0,0,1,.57-1.55,1.88,1.88,0,0,1,1.47-.69,1.8,1.8,0,0,1,1.36.59A2,2,0,0,1,12.72,6.1Zm-1-.26a.87.87,0,0,0-.28-.64.9.9,0,0,0-.64-.27.94.94,0,0,0-.71.32A1,1,0,0,0,9.75,6c0,.06.06.09.16.09a11.81,11.81,0,0,0,1.53-.13C11.61,5.9,11.69,5.87,11.69,5.84Z"/><path class="cls-1" d="M16,4.37a5.71,5.71,0,0,1-.06.86c0,.07,0,.1-.09.1l-.27,0-.28,0c-.36,0-.6.1-.7.31a2.08,2.08,0,0,0-.09.77v.48c0,.16,0,.4,0,.73s0,.58,0,.74,0,.11-.1.11h-.81c-.07,0-.1,0-.1-.11,0-.24,0-.59,0-1.06s0-.82,0-1.06a5.72,5.72,0,0,0-.2-1.71.2.2,0,0,0,0,0s0-.06.06-.08l.45-.05.43-.09c.05,0,.08.09.09.26s0,.25.08.25h0l.36-.22a1.27,1.27,0,0,1,.4-.17,1.3,1.3,0,0,1,.43,0Q16,4.28,16,4.37Z"/><path class="cls-1" d="M20.27,5.42a4.52,4.52,0,0,1-.05.88A13.81,13.81,0,0,1,19.15,8,17,17,0,0,1,18,9.68a2.27,2.27,0,0,1-1.11.15.4.4,0,0,1-.15,0,1.59,1.59,0,0,1-.15-.32,1.84,1.84,0,0,1-.11-.34c0-.07.07-.1.23-.1a1.33,1.33,0,0,0,.71-.14,1.2,1.2,0,0,0,.24-.29.91.91,0,0,0,.15-.34,3.6,3.6,0,0,0-.62-.91A6.17,6.17,0,0,1,16.4,6.3a3.53,3.53,0,0,1-.06-.85V5c0-.22,0-.39,0-.5s0-.1.1-.1l.41,0,.41,0s.07,0,.07.09,0,.2,0,.36,0,.28,0,.36a5.11,5.11,0,0,0,0,.79,3,3,0,0,0,.47.82c.29.43.48.65.55.65a2.29,2.29,0,0,0,.46-.64,3.83,3.83,0,0,0,.42-.8,6,6,0,0,0,0-.78,3.15,3.15,0,0,0,0-.37,3.32,3.32,0,0,1,0-.37c0-.07,0-.11.07-.11h.42a3.75,3.75,0,0,1,.42,0C20.22,4.37,20.27,4.72,20.27,5.42Z"/><path class="cls-1" d="M27.22,4.4c0,.34,0,.86,0,1.55s0,1.22,0,1.56A2.17,2.17,0,0,1,26.76,9a1.88,1.88,0,0,1-1.48.52,3,3,0,0,1-1.58-.37c-.07,0-.1-.08-.1-.11s0-.18.13-.64c0,0,0-.07.06-.07l.06,0a2.55,2.55,0,0,0,1.3.37,1.23,1.23,0,0,0,.71-.19.7.7,0,0,0,.32-.62,4.1,4.1,0,0,0,0-.41A1.49,1.49,0,0,1,25,8.11a1.69,1.69,0,0,1-1.32-.57,2,2,0,0,1-.49-1.36,2.15,2.15,0,0,1,.47-1.4,1.63,1.63,0,0,1,1.32-.61,1.34,1.34,0,0,1,1.13.55c.05.06.08.09.1.09s0,0,0-.08V4.55a1.36,1.36,0,0,1,0-.18c0-.18,0-.26.05-.26a4,4,0,0,1,.47.08l.46.09A.12.12,0,0,1,27.22,4.4Zm-1,1.78a1.3,1.3,0,0,0-.26-.82A.92.92,0,0,0,25.16,5a.91.91,0,0,0-.76.37,1.28,1.28,0,0,0-.26.82A1.33,1.33,0,0,0,24.4,7a1,1,0,0,0,1.51,0A1.28,1.28,0,0,0,26.18,6.18Z"/><path class="cls-1" d="M32.11,6.32a2.2,2.2,0,0,1-.59,1.54,2,2,0,0,1-3,0,2.21,2.21,0,0,1-.59-1.54,2.2,2.2,0,0,1,.59-1.54A2,2,0,0,1,30,4.14a2,2,0,0,1,1.49.65A2.14,2.14,0,0,1,32.11,6.32Zm-.91,0a1.32,1.32,0,0,0-.33-.9,1.13,1.13,0,0,0-1.71,0,1.32,1.32,0,0,0-.33.9,1.35,1.35,0,0,0,.33.9,1.08,1.08,0,0,0,.86.4,1.06,1.06,0,0,0,.85-.4A1.35,1.35,0,0,0,31.2,6.33Z"/><path class="cls-1" d="M36.81,6.32a2.15,2.15,0,0,1-.59,1.54,2,2,0,0,1-3,0,2.18,2.18,0,0,1-.6-1.54,2.16,2.16,0,0,1,.6-1.54,2,2,0,0,1,1.5-.65,2,2,0,0,1,1.5.65A2.17,2.17,0,0,1,36.81,6.32Zm-.91,0a1.36,1.36,0,0,0-.32-.9,1.14,1.14,0,0,0-1.72,0,1.31,1.31,0,0,0-.32.9,1.4,1.4,0,0,0,.32.9,1.12,1.12,0,0,0,1.72,0A1.4,1.4,0,0,0,35.9,6.33Z"/><path class="cls-1" d="M41.75,2.39c0,.38,0,.93,0,1.68s-.05,1.29-.05,1.66c0,1.14,0,2,.08,2.59v0s0,.05-.11.06h-.79s-.06-.1-.07-.3a1.16,1.16,0,0,0,0-.3l-.07,0a1.82,1.82,0,0,1-2.79,0,2.24,2.24,0,0,1-.53-1.52,2.25,2.25,0,0,1,.53-1.54,1.85,1.85,0,0,1,1.47-.66,1.51,1.51,0,0,1,.95.32l.37.32s0,0,0-.06V3.33c0-.09,0-.24,0-.43s0-.34,0-.44,0-.1.07-.1l.48,0,.47,0S41.75,2.33,41.75,2.39ZM40.67,6.33a1.35,1.35,0,0,0-.32-.91A1,1,0,0,0,39.51,5a1.1,1.1,0,0,0-.88.41,1.4,1.4,0,0,0-.33.94,1.31,1.31,0,0,0,.34.9,1.1,1.1,0,0,0,.87.41,1.06,1.06,0,0,0,.85-.41A1.42,1.42,0,0,0,40.67,6.33Z"/><path class="cls-7" d="M8.13,5.56a3,3,0,0,1,0,.71,7.4,7.4,0,0,1-.7,1.14,4.92,4.92,0,0,1-.78,1,2.05,2.05,0,0,1-.36,0l-.38,0a5.35,5.35,0,0,1-.79-1,8.35,8.35,0,0,1-.73-1.11,2.57,2.57,0,0,1-.1-.85V5c0-.23,0-.41,0-.53s0-.09.1-.09h.85s.08,0,.08.09,0,.23,0,.41,0,.31,0,.41A5.31,5.31,0,0,0,5.3,6a3,3,0,0,0,.44.81c.27.42.45.64.51.64s.22-.21.47-.63A3.41,3.41,0,0,0,7.12,6a5.59,5.59,0,0,0,0-.74c0-.09,0-.24,0-.43s0-.33,0-.42,0-.07.06-.07h.42l.42,0C8.09,4.34,8.13,4.75,8.13,5.56Z"/><path class="cls-7" d="M12.72,6.1a.41.41,0,0,1-.28.43c-.12,0-1,.13-2.67.26a.94.94,0,0,0,.42.65,1.2,1.2,0,0,0,.74.25,2,2,0,0,0,1.25-.44l.14-.11h0s.06.1.16.3a2.72,2.72,0,0,1,.15.31s0,0-.07.1A2.13,2.13,0,0,1,11,8.53a2.16,2.16,0,0,1-1.6-.6,2.13,2.13,0,0,1-.59-1.59,2.28,2.28,0,0,1,.57-1.55,1.88,1.88,0,0,1,1.47-.69,1.8,1.8,0,0,1,1.36.59A2,2,0,0,1,12.72,6.1Zm-1-.26a.87.87,0,0,0-.28-.64.9.9,0,0,0-.64-.27.94.94,0,0,0-.71.32A1,1,0,0,0,9.75,6c0,.06.06.09.16.09a11.81,11.81,0,0,0,1.53-.13C11.61,5.9,11.69,5.87,11.69,5.84Z"/><path class="cls-7" d="M16,4.37a5.71,5.71,0,0,1-.06.86c0,.07,0,.1-.09.1l-.27,0-.28,0c-.36,0-.6.1-.7.31a2.08,2.08,0,0,0-.09.77v.48c0,.16,0,.4,0,.73s0,.58,0,.74,0,.11-.1.11h-.81c-.07,0-.1,0-.1-.11,0-.24,0-.59,0-1.06s0-.82,0-1.06a5.72,5.72,0,0,0-.2-1.71.2.2,0,0,0,0,0s0-.06.06-.08l.45-.05.43-.09c.05,0,.08.09.09.26s0,.25.08.25h0l.36-.22a1.27,1.27,0,0,1,.4-.17,1.3,1.3,0,0,1,.43,0Q16,4.28,16,4.37Z"/><path class="cls-7" d="M20.27,5.42a4.52,4.52,0,0,1-.05.88A13.81,13.81,0,0,1,19.15,8,17,17,0,0,1,18,9.68a2.27,2.27,0,0,1-1.11.15.4.4,0,0,1-.15,0,1.59,1.59,0,0,1-.15-.32,1.84,1.84,0,0,1-.11-.34c0-.07.07-.1.23-.1a1.33,1.33,0,0,0,.71-.14,1.2,1.2,0,0,0,.24-.29.91.91,0,0,0,.15-.34,3.6,3.6,0,0,0-.62-.91A6.17,6.17,0,0,1,16.4,6.3a3.53,3.53,0,0,1-.06-.85V5c0-.22,0-.39,0-.5s0-.1.1-.1l.41,0,.41,0s.07,0,.07.09,0,.2,0,.36,0,.28,0,.36a5.11,5.11,0,0,0,0,.79,3,3,0,0,0,.47.82c.29.43.48.65.55.65a2.29,2.29,0,0,0,.46-.64,3.83,3.83,0,0,0,.42-.8,6,6,0,0,0,0-.78,3.15,3.15,0,0,0,0-.37,3.32,3.32,0,0,1,0-.37c0-.07,0-.11.07-.11h.42a3.75,3.75,0,0,1,.42,0C20.22,4.37,20.27,4.72,20.27,5.42Z"/><path class="cls-7" d="M27.22,4.4c0,.34,0,.86,0,1.55s0,1.22,0,1.56A2.17,2.17,0,0,1,26.76,9a1.88,1.88,0,0,1-1.48.52,3,3,0,0,1-1.58-.37c-.07,0-.1-.08-.1-.11s0-.18.13-.64c0,0,0-.07.06-.07l.06,0a2.55,2.55,0,0,0,1.3.37,1.23,1.23,0,0,0,.71-.19.7.7,0,0,0,.32-.62,4.1,4.1,0,0,0,0-.41A1.49,1.49,0,0,1,25,8.11a1.69,1.69,0,0,1-1.32-.57,2,2,0,0,1-.49-1.36,2.15,2.15,0,0,1,.47-1.4,1.63,1.63,0,0,1,1.32-.61,1.34,1.34,0,0,1,1.13.55c.05.06.08.09.1.09s0,0,0-.08V4.55a1.36,1.36,0,0,1,0-.18c0-.18,0-.26.05-.26a4,4,0,0,1,.47.08l.46.09A.12.12,0,0,1,27.22,4.4Zm-1,1.78a1.3,1.3,0,0,0-.26-.82A.92.92,0,0,0,25.16,5a.91.91,0,0,0-.76.37,1.28,1.28,0,0,0-.26.82A1.33,1.33,0,0,0,24.4,7a1,1,0,0,0,1.51,0A1.28,1.28,0,0,0,26.18,6.18Z"/><path class="cls-7" d="M32.11,6.32a2.2,2.2,0,0,1-.59,1.54,2,2,0,0,1-3,0,2.21,2.21,0,0,1-.59-1.54,2.2,2.2,0,0,1,.59-1.54A2,2,0,0,1,30,4.14a2,2,0,0,1,1.49.65A2.14,2.14,0,0,1,32.11,6.32Zm-.91,0a1.32,1.32,0,0,0-.33-.9,1.13,1.13,0,0,0-1.71,0,1.32,1.32,0,0,0-.33.9,1.35,1.35,0,0,0,.33.9,1.08,1.08,0,0,0,.86.4,1.06,1.06,0,0,0,.85-.4A1.35,1.35,0,0,0,31.2,6.33Z"/><path class="cls-7" d="M36.81,6.32a2.15,2.15,0,0,1-.59,1.54,2,2,0,0,1-3,0,2.18,2.18,0,0,1-.6-1.54,2.16,2.16,0,0,1,.6-1.54,2,2,0,0,1,1.5-.65,2,2,0,0,1,1.5.65A2.17,2.17,0,0,1,36.81,6.32Zm-.91,0a1.36,1.36,0,0,0-.32-.9,1.14,1.14,0,0,0-1.72,0,1.31,1.31,0,0,0-.32.9,1.4,1.4,0,0,0,.32.9,1.12,1.12,0,0,0,1.72,0A1.4,1.4,0,0,0,35.9,6.33Z"/><path class="cls-7" d="M41.75,2.39c0,.38,0,.93,0,1.68s-.05,1.29-.05,1.66c0,1.14,0,2,.08,2.59v0s0,.05-.11.06h-.79s-.06-.1-.07-.3a1.16,1.16,0,0,0,0-.3l-.07,0a1.82,1.82,0,0,1-2.79,0,2.24,2.24,0,0,1-.53-1.52,2.25,2.25,0,0,1,.53-1.54,1.85,1.85,0,0,1,1.47-.66,1.51,1.51,0,0,1,.95.32l.37.32s0,0,0-.06V3.33c0-.09,0-.24,0-.43s0-.34,0-.44,0-.1.07-.1l.48,0,.47,0S41.75,2.33,41.75,2.39ZM40.67,6.33a1.35,1.35,0,0,0-.32-.91A1,1,0,0,0,39.51,5a1.1,1.1,0,0,0-.88.41,1.4,1.4,0,0,0-.33.94,1.31,1.31,0,0,0,.34.9,1.1,1.1,0,0,0,.87.41,1.06,1.06,0,0,0,.85-.41A1.42,1.42,0,0,0,40.67,6.33Z"/></svg>