<?xml version="1.0" encoding="UTF-8"?><svg xmlns="http://www.w3.org/2000/svg" xmlns:xlink="http://www.w3.org/1999/xlink" viewBox="0 0 360 480"><defs><style>.cls-1{fill:#fff;}.cls-2{stroke:#dbdada;stroke-width:.44px;}.cls-2,.cls-3,.cls-4,.cls-5,.cls-6,.cls-7,.cls-8,.cls-9,.cls-10,.cls-11{stroke-miterlimit:10;}.cls-2,.cls-3,.cls-5,.cls-6,.cls-7,.cls-9,.cls-10,.cls-12,.cls-11{fill:none;}.cls-13{opacity:.61;}.cls-13,.cls-14{fill:#c0956b;}.cls-3,.cls-5,.cls-6{stroke-width:1.85px;}.cls-3,.cls-10{stroke:#898a89;}.cls-15{fill:#7a9c7f;}.cls-15,.cls-16{opacity:.3;}.cls-4{stroke-width:.29px;}.cls-4,.cls-8{fill:#898a89;}.cls-4,.cls-8,.cls-9,.cls-12{stroke:#81828b;}.cls-17{fill:#3e3a39;}.cls-5,.cls-11{stroke:#b5b4b5;}.cls-18{clip-path:url(#clippath-1);}.cls-6,.cls-7{stroke:#9f9f9f;}.cls-19{fill:#985d66;}.cls-7,.cls-9,.cls-10,.cls-12,.cls-11{stroke-width:1.16px;}.cls-8{stroke-width:.3px;}.cls-20{fill:#e6e4bf;opacity:.39;}.cls-12{stroke-linecap:round;stroke-linejoin:round;}</style><clipPath id="clippath-1"><path class="cls-14" d="M142.98,239.81c-1.14-10.55-4.53-22.36-4.34-25.28,.14-2.1,2.15-11.81,3.09-19.68,.53-4.45,.79-8.78,.68-10.42-.17-2.36,.41-2.96-1.25-8.22-.54-1.7-3.67-7.71-3.77-8.35-.43-2.72-.63-4.95-.71-6.09-.03-.45-.42-.78-.87-.74l-12.01,1.1c-.32,.03-.6,.25-.69,.56l-1.56,5.08s-.02,.07-.04,.1l-3.15,6.86s-.04,.08-.07,.12c-.2,.29-1.16,1.66-2.3,3.28-.02,.02-.03,.05-.05,.07-.44,.5-5.94,6.81-6.45,9.93-.46,2.83,2.15,8.29,2.84,9.66,.02,.03,.03,.06,.04,.09,.12,.35,.24,.75,.35,1.18,0,.04,.02,.07,.02,.11,.02,.16,.04,.34,.09,.53,.48,1.96,.8,7.32,.87,13.1,0,.02,0,.04,0,.06,.03,2.81,0,5.73-.09,8.4-.26,7.25-2.18,13.71-2.18,17.57,0,5.88,.56,12.77,.4,16.5-.14,3.19,.79,12.67,1.06,15.35,.04,.41,.38,.72,.79,.72h20.82c.39,0,.73-.29,.79-.67,.31-2,1.25-7.85,1.9-9.68-.42,1.2,6.95-10.72,5.81-21.27Z"/></clipPath></defs><g id="_背景"><rect class="cls-1" x="-8.69" y="-8.16" width="377.2" height="496.67"/></g><g id="_レイヤー_1"><g><path class="cls-17" d="M21.4,329.22h-.04c.37,.67,.94,1.31,1.69,1.92-.22,.25-.41,.54-.55,.87-.04,.1-.08,.15-.13,.15-.05,0-.12-.07-.22-.2-.45-.58-.79-1.14-1.02-1.66,0,.45,.02,1.05,.03,1.78,.01,.52,.02,.89,.02,1.12,0,.06,0,.1-.02,.12-.01,.02-.05,.02-.12,.02h-.86c-.07,0-.12,0-.13-.03-.01-.02-.02-.05-.02-.11,0-.22,.02-1.16,.05-2.83-.26,.67-.68,1.35-1.26,2.03-.09,.11-.16,.16-.2,.16-.03,0-.1-.07-.21-.2-.13-.17-.26-.31-.39-.42v1.82h2.58l1.31-.03c.07,0,.11,0,.12,.03,.01,.02,.02,.06,.02,.11v.98c0,.05,0,.09-.01,.11,.52-.71,.87-1.62,1.04-2.7,.11-.78,.17-1.88,.17-3.31v-1.41c0-.77-.03-1.54-.08-2.29,.39,.06,.78,.14,1.17,.25,.76-.18,1.44-.43,2.05-.77,.25-.13,.48-.29,.68-.47,.33,.28,.63,.59,.89,.94,.06,.07,.09,.15,.09,.25,0,.08-.07,.13-.2,.14-.19,.03-.37,.09-.52,.16-.68,.35-1.63,.65-2.84,.91v1.66h1.94l1.77-.03c.09,0,.13,.05,.13,.14v.96c0,.09-.04,.14-.13,.14h-.35c-.24-.01-.51-.02-.81-.03v4.63l.03,1.8c0,.1-.04,.15-.13,.15h-1.03c-.07,0-.12-.01-.13-.03-.01-.01-.02-.05-.02-.11l.03-1.8v-4.63h-1.28c-.01,1.68-.1,2.88-.25,3.6-.21,.96-.57,1.85-1.09,2.67-.11,.17-.19,.25-.23,.25-.04,0-.12-.08-.22-.23-.17-.27-.41-.53-.7-.77l.04-.05s-.05,.01-.11,.01l-1.31-.03h-2.58v.56c0,.07,0,.11-.02,.12-.01,.01-.05,.02-.11,.02h-.98c-.07,0-.11,0-.13-.03-.01-.02-.02-.05-.02-.11l.03-1.7v-7.19c0-.75-.02-1.37-.06-1.87,.41,.02,.83,.05,1.28,.1,.11,.01,.16,.05,.16,.11,0,.06-.03,.14-.08,.25-.04,.11-.06,.5-.06,1.16v5.22c.72-.67,1.3-1.46,1.73-2.38l-1.22,.03c-.07,0-.11-.01-.13-.03-.01-.02-.02-.06-.02-.12v-.87c0-.07,.01-.11,.03-.13,.01-.01,.05-.02,.11-.02l1.29,.03h.22v-2.37c0-.53-.02-1.01-.06-1.45,.42,.03,.8,.07,1.12,.11,.14,.01,.21,.05,.21,.13,0,.03-.02,.09-.06,.2-.05,.14-.08,.44-.08,.91v2.48h.22l1.31-.03c.07,0,.11,0,.12,.03,.01,.02,.02,.06,.02,.12v.87c0,.07,0,.12-.03,.13-.02,.01-.06,.02-.12,.02l-1.31-.03Zm-2.11-3.88c.23,.55,.41,1.14,.52,1.76,0,.05,.01,.08,.01,.1,0,.06-.05,.11-.14,.13l-.61,.17c-.06,.02-.1,.03-.13,.03-.06,0-.1-.05-.11-.14-.13-.74-.29-1.33-.48-1.77-.02-.05-.03-.08-.03-.1,0-.05,.05-.09,.15-.12l.59-.17s.07-.02,.1-.02c.05,0,.09,.04,.12,.13Zm2.03,1.9c.19-.42,.37-.96,.53-1.61,.03-.17,.05-.33,.06-.5,.44,.11,.76,.2,.95,.27,.1,.05,.15,.1,.15,.17,0,.05-.03,.09-.08,.12-.04,.05-.08,.15-.13,.3-.17,.56-.33,1.01-.49,1.36-.05,.13-.1,.2-.16,.2-.04,0-.1-.03-.2-.08-.14-.09-.36-.17-.65-.23Z"/><path class="cls-17" d="M31.86,325.95l-1.64,.03c-.1,0-.15-.04-.15-.13v-1.02c0-.07,0-.11,.03-.12,.02-.01,.06-.02,.12-.02l1.64,.03h7.92l1.64-.03c.08,0,.12,0,.14,.03,.01,.02,.02,.06,.02,.11v1.02c0,.06-.01,.09-.03,.11-.02,.01-.06,.02-.13,.02l-1.64-.03h-3.38c-.19,.54-.4,1.03-.64,1.48h3.42l1.76-.03c.07,0,.12,0,.13,.03,.01,.02,.02,.06,.02,.12l-.03,2.45v2.35l.03,3.51c0,.07,0,.11-.03,.12s-.06,.02-.12,.02h-1.1c-.07,0-.11,0-.13-.03-.01-.02-.02-.06-.02-.11v-.48h-7.72v.52c0,.07,0,.11-.03,.13-.02,.01-.06,.02-.12,.02h-1.09c-.07,0-.11-.01-.12-.03-.01-.01-.02-.05-.02-.11l.03-3.54v-2.08l-.03-2.74c0-.07,0-.11,.03-.13,.02-.01,.06-.02,.12-.02l1.76,.03h1.79c.23-.43,.44-.92,.63-1.48h-3.06Zm.1,2.61v5.67h1.61v-5.67h-1.61Zm2.82,1.12h2.05v-1.12h-2.05v1.12Zm0,2.22h2.05v-1.13h-2.05v1.13Zm0,2.33h2.05v-1.24h-2.05v1.24Zm4.91-5.67h-1.63v5.67h1.63v-5.67Z"/><path class="cls-17" d="M43.31,334.95c.51-.57,.88-1.12,1.12-1.64,.19-.44,.34-.96,.44-1.58,.06-.4,.1-.93,.13-1.61-.4,0-.76,.01-1.06,.02,0,0-.09,0-.24,0h-.08c-.06,0-.1-.01-.12-.03-.01-.02-.02-.06-.02-.13v-1.02c0-.09,.04-.14,.13-.14l1.4,.03c0-.32,.01-.84,.01-1.55v-1.18c-.3,0-.57,.01-.81,.02-.16,0-.24,0-.25,0-.07,0-.11,0-.12-.03-.01-.02-.02-.06-.02-.11v-1.02c0-.08,0-.12,.03-.14,.02-.01,.05-.02,.11-.02l1.64,.03h2.85l1.64-.03c.07,0,.11,.01,.12,.03,.01,.02,.02,.06,.02,.13v1.02c0,.07,0,.11-.03,.12-.02,.01-.06,.02-.12,.02-.01,0-.06,0-.13,0-.27,0-.56-.01-.89-.02v2.73l1.22-.03c.07,0,.11,0,.13,.03,.01,.02,.02,.05,.02,.11v1.02c0,.08,0,.12-.03,.14-.02,.01-.06,.02-.12,.02,0,0-.06,0-.16,0-.32,0-.67-.01-1.06-.02v3.71l.03,2.04c0,.06-.01,.1-.03,.11-.02,.01-.06,.02-.13,.02h-1.05c-.07,0-.12,0-.13-.03-.01-.02-.02-.05-.02-.11l.03-2.04v-3.71h-1.45c-.03,.82-.09,1.52-.18,2.08-.21,1.27-.71,2.42-1.49,3.48-.12,.15-.21,.22-.25,.22-.05,0-.14-.07-.26-.22-.25-.31-.52-.55-.82-.72Zm3.04-6.1h1.42v-2.73h-1.42v2.73Zm3.2,5.89c1.05-.41,1.93-.87,2.64-1.39,.6-.44,1.15-.96,1.65-1.57,.24-.33,.41-.57,.5-.73,.46,.31,.82,.59,1.05,.82,.08,.08,.12,.15,.12,.22,0,.05-.06,.11-.17,.16-.06,.03-.21,.18-.45,.46-1.04,1.23-2.4,2.25-4.06,3.06-.16,.08-.26,.11-.31,.11-.06,0-.15-.1-.27-.31-.19-.33-.42-.6-.69-.83Zm3.88-10.41c.39,.21,.75,.46,1.07,.75,.09,.08,.13,.15,.13,.21,0,.08-.05,.14-.16,.18-.12,.05-.26,.15-.44,.31-.81,.82-1.83,1.54-3.07,2.16-.14,.08-.24,.11-.3,.11-.07,0-.16-.11-.26-.34-.15-.32-.33-.59-.56-.81,1.27-.5,2.31-1.15,3.12-1.96,.13-.14,.29-.34,.46-.62Zm.48,3.19c.43,.26,.78,.5,1.03,.73,.09,.09,.14,.17,.14,.22,0,.07-.05,.12-.15,.15-.08,.04-.23,.17-.43,.39-.87,1-2,1.87-3.39,2.6-.14,.08-.24,.11-.29,.11-.07,0-.16-.1-.27-.31-.18-.31-.39-.57-.64-.78,1.37-.55,2.56-1.38,3.58-2.49,.19-.21,.33-.42,.42-.63Z"/><path class="cls-17" d="M59.18,324.2c.5,.01,.96,.04,1.38,.09,.14,.02,.21,.06,.21,.13,0,.05-.03,.14-.08,.26-.05,.14-.08,.62-.08,1.44v7.54l.03,2.29c0,.07,0,.11-.03,.13-.02,.01-.05,.02-.11,.02h-1.08c-.08,0-.12,0-.14-.03-.01-.02-.02-.06-.02-.12l.03-2.27v-2c-.17,.11-.59,.38-1.26,.8-.14,.08-.26,.18-.34,.28-.06,.08-.12,.11-.18,.11-.09,0-.16-.04-.19-.13-.18-.41-.34-.83-.48-1.24,.21-.07,.46-.17,.73-.3,.68-.32,1.26-.64,1.73-.96v-4.07c0-.82-.03-1.47-.1-1.96Zm-1.08,2.04c.35,.62,.67,1.34,.96,2.16,.02,.04,.03,.08,.03,.1,0,.05-.05,.11-.17,.16l-.78,.36c-.08,.03-.13,.05-.16,.05-.04,0-.07-.04-.09-.11-.28-.89-.57-1.61-.88-2.16-.03-.05-.04-.08-.04-.11,0-.04,.05-.09,.14-.13l.76-.37c.06-.03,.1-.04,.12-.04,.03,0,.07,.03,.11,.1Zm4.94,2.82l-1.77,.03c-.07,0-.11,0-.12-.03-.01-.02-.02-.05-.02-.11v-1c0-.07,0-.11,.03-.13,.02-.01,.05-.02,.11-.02l1.77,.03h.91c.02-.69,.03-1.26,.03-1.73,0-.66-.03-1.26-.09-1.82,.54,.01,1.01,.04,1.42,.09,.14,.01,.21,.07,.21,.16,0,.08-.03,.17-.09,.27-.05,.1-.08,.53-.08,1.29,0,.58-.01,1.16-.04,1.74h1.54l1.77-.03c.09,0,.13,.05,.13,.15v1c0,.09-.04,.14-.13,.14l-1.77-.03h-1.35c.25,1.29,.71,2.46,1.4,3.51,.59,.89,1.3,1.64,2.14,2.25-.28,.27-.52,.58-.7,.94-.09,.17-.17,.26-.23,.26-.05,0-.15-.05-.27-.16-1.37-1.13-2.34-2.69-2.9-4.69-.03,.14-.09,.38-.2,.72-.52,1.52-1.41,2.83-2.67,3.94-.15,.12-.24,.18-.29,.18-.05,0-.13-.08-.25-.23-.22-.32-.47-.58-.74-.79,.64-.47,1.17-1,1.59-1.59,.4-.55,.74-1.21,1.03-1.98,.22-.62,.38-1.4,.47-2.36h-.83Zm3.99-4.27c.5,.51,.93,1.07,1.29,1.68,.03,.05,.04,.09,.04,.11,0,.03-.04,.08-.13,.14l-.77,.46c-.06,.05-.11,.08-.15,.08-.03,0-.07-.03-.11-.1-.34-.61-.75-1.18-1.22-1.72-.04-.04-.06-.08-.06-.1,0-.04,.04-.09,.13-.14l.68-.42c.06-.04,.11-.06,.15-.06,.03,0,.07,.03,.13,.09Z"/><path class="cls-17" d="M77.22,327.09c-.33,2.41-.87,4.27-1.62,5.6-.57,1-1.31,1.5-2.22,1.5-.66,0-1.21-.33-1.66-.99-.42-.63-.63-1.41-.63-2.35,0-1.27,.49-2.4,1.47-3.38,1.11-1.11,2.52-1.66,4.23-1.66s2.9,.48,3.81,1.45c.76,.81,1.14,1.83,1.14,3.06,0,2.35-1.33,3.93-4,4.74-.08,.02-.14,.03-.19,.03-.13,0-.25-.09-.37-.27-.19-.29-.49-.57-.91-.82,1.34-.32,2.31-.76,2.92-1.34,.67-.63,1-1.48,1-2.55,0-.87-.3-1.6-.91-2.2-.55-.55-1.22-.82-2-.82h-.05Zm-1.51,.08c-.93,.19-1.67,.58-2.22,1.18-.68,.76-1.02,1.56-1.02,2.41,0,.6,.11,1.08,.32,1.44,.17,.28,.36,.42,.56,.42,.36,0,.68-.26,.98-.79,.32-.58,.61-1.32,.87-2.23,.24-.83,.41-1.63,.51-2.42Z"/><path class="cls-17" d="M87.29,332.16c.13,0,.2-.11,.2-.34v-4.16h-.53v6.17l.03,2.09c0,.07,0,.11-.03,.13-.02,.01-.06,.02-.12,.02h-.93c-.07,0-.12,0-.13-.03-.01-.02-.02-.06-.02-.12l.03-2.09v-6.17h-.51v4.14l.03,1.51c0,.06-.01,.1-.03,.11-.02,.01-.06,.02-.12,.02h-.79c-.09,0-.14-.04-.14-.13l.03-1.54v-3.59l-.03-1.55c0-.08,0-.12,.03-.14,.02-.01,.06-.02,.12-.02l1.24,.03h.17v-.45c0-.75-.03-1.37-.09-1.86,.37,0,.78,.04,1.21,.09,.13,.01,.2,.06,.2,.13,0,.04-.01,.1-.03,.17-.03,.08-.04,.14-.05,.16-.04,.2-.06,.64-.06,1.3v.46h.21l1.23-.03c.07,0,.11,.01,.13,.03,.01,.02,.02,.06,.02,.13l-.03,1.64v1.85l.04,1.8c0,.53-.07,.87-.2,1.02-.14,.19-.39,.29-.74,.32-.07,0-.12,0-.16,0-.09,0-.15-.03-.17-.08-.01-.03-.03-.12-.04-.26-.01-.31-.09-.58-.23-.81,.13,.02,.23,.03,.29,.03Zm3.4-6.28l-1.68,.03c-.08,0-.12,0-.14-.03-.01-.02-.02-.05-.02-.11v-.93c0-.07,.01-.12,.03-.13,.02-.01,.06-.02,.13-.02l1.68,.03h3.26l1.7-.03c.07,0,.11,0,.13,.03,.01,.02,.02,.06,.02,.13v.93c0,.07-.01,.11-.03,.12-.01,.01-.05,.02-.12,.02l-1.7-.03h-3.26Zm-.38,10.05c0,.06,0,.09-.03,.11-.02,.01-.06,.02-.13,.02h-.93c-.09,0-.14-.04-.14-.13l.03-2.51v-1.29l-.03-1.75c0-.07,0-.11,.03-.13,.02-.01,.05-.02,.11-.02l1.67,.03h2.88l1.68-.03c.1,0,.15,.02,.15,.06l-.03,1.66v1.44l.03,2.48c0,.07,0,.11-.03,.12-.02,.01-.05,.02-.11,.02h-.95c-.07,0-.11,0-.12-.03-.01-.02-.02-.06-.02-.11v-.44h-4.06v.5Zm3.03-9.33l1.5-.03c.08,0,.12,0,.14,.03,.01,.02,.02,.06,.02,.12l-.03,.87v.95l.03,.88c0,.06,0,.1-.03,.11-.02,.01-.07,.02-.13,.02l-1.5-.03h-2.08l-1.52,.03c-.09,0-.14-.04-.14-.13l.03-.88v-.95l-.03-.87c0-.07,0-.11,.03-.13,.02-.01,.05-.02,.11-.02l1.52,.03h2.08Zm-3.03,5.72h1.4v-1.04h-1.4v1.04Zm0,2.1h1.4v-1.1h-1.4v1.1Zm3.46-5.85v-1.02h-2.95v1.02h2.95Zm.6,2.7h-1.49v1.04h1.49v-1.04Zm-1.49,3.14h1.49v-1.1h-1.49v1.1Z"/><path class="cls-17" d="M100.92,324.75c.71,0,1.28,.05,1.71,.16,.16,.04,.23,.11,.23,.2l-.1,.55c0,.08,.02,.38,.06,.88,.1,.78,.24,1.52,.42,2.23,.26-.14,.58-.31,.95-.51,.43-.23,.73-.39,.89-.48,.42-.25,.72-.48,.89-.7,.4,.41,.72,.82,.95,1.22,.06,.09,.09,.18,.09,.27,0,.15-.09,.24-.26,.26-.33,.05-.74,.19-1.25,.39-1.28,.52-2.3,1.03-3.05,1.52-1.02,.67-1.54,1.33-1.54,1.97,0,.41,.18,.7,.54,.87,.33,.15,.84,.22,1.53,.22,1.54,0,2.87-.1,3.97-.3,.03,0,.06,0,.08,0,.08,0,.13,.05,.15,.17,.05,.28,.09,.68,.13,1.21,.01,.13-.07,.2-.23,.22-.99,.13-2.28,.2-3.87,.2-2.5,0-3.76-.83-3.76-2.5,0-.72,.25-1.38,.76-1.97,.37-.44,.94-.9,1.71-1.39-.3-.96-.52-2.02-.67-3.17-.09-.69-.21-1.2-.34-1.51Z"/><path class="cls-17" d="M113.06,333.16l-1.65,.03c-.07,0-.11,0-.13-.03-.01-.02-.02-.06-.02-.11v-.9c0-.08,.05-.13,.15-.13h1.65s3.05,.01,3.05,.01c.01-.14,.02-.27,.02-.39s0-.24-.02-.38c.45,.01,.87,.04,1.25,.08,.18,.03,.27,.09,.27,.17,0,.06-.03,.15-.08,.25-.03,.06-.07,.15-.09,.27h5.06c.09-.01,.14,.03,.14,.11v.9c0,.06,0,.1-.02,.12s-.05,.02-.12,.02l-1.66-.03h-2.82c.96,.92,2.59,1.47,4.88,1.65-.2,.27-.36,.58-.48,.91-.05,.16-.1,.25-.14,.29-.03,.04-.09,.06-.16,.06-.02,0-.1,0-.26-.03-2.25-.35-3.93-1.16-5.03-2.43-.81,1.21-2.42,2.02-4.84,2.43-.12,.03-.21,.04-.27,.04-.08,0-.14-.03-.17-.08-.03-.04-.06-.13-.11-.27-.11-.33-.27-.62-.47-.86,2.31-.2,3.85-.77,4.63-1.71h-2.56Zm.46-6.77v2.74l.03,2.29c0,.07,0,.11-.03,.12s-.05,.02-.11,.02h-1.02c-.08,0-.12,0-.14-.03-.01-.02-.02-.06-.02-.11l.03-2.3v-1.75l-.03-1.89c0-.07,.01-.11,.03-.12,.02-.01,.06-.02,.13-.02l1.79,.03h1.33s.12-.25,.3-.62c.09-.21,.15-.42,.2-.65,.66,.09,1.11,.16,1.36,.22,.12,.03,.17,.08,.17,.16,0,.04-.04,.1-.11,.18-.1,.1-.17,.19-.21,.27l-.22,.44h2.78l1.79-.03c.07,0,.11,0,.13,.03,.01,.02,.02,.06,.02,.11l-.03,1.68v1.96l.03,2.3c0,.06,0,.1-.02,.12s-.06,.02-.12,.02h-1.02c-.07,0-.12,0-.13-.03-.01-.02-.02-.06-.02-.11l.03-2.28v-2.75h-6.89Zm4.68,2.73h-.2c.56,.48,1.3,.85,2.23,1.1-.19,.23-.36,.49-.48,.79-.05,.14-.11,.21-.17,.21-.03,0-.12-.03-.26-.1-.77-.38-1.41-.88-1.92-1.5,0,.28,.01,.59,.03,.93,.01,.25,.02,.4,.02,.44,0,.07,0,.11-.03,.13-.02,.01-.06,.02-.12,.02h-.86c-.06,0-.1,0-.11-.03,0-.02-.01-.06-.01-.12,0-.04,0-.21,.01-.51,.01-.29,.02-.56,.03-.81-.52,.64-1.1,1.13-1.76,1.46-.14,.07-.22,.1-.26,.1-.05,0-.11-.08-.19-.23-.13-.23-.29-.44-.5-.65,.89-.3,1.6-.71,2.12-1.25h-.06l-1.58,.03c-.09,0-.13-.05-.13-.14v-.67c0-.09,.04-.14,.13-.14l1.58,.03h.6v-.51c0-.5-.01-.85-.04-1.05,.52,.02,.89,.04,1.09,.07,.14,0,.21,.05,.21,.11,0,.03-.02,.07-.05,.14-.05,.08-.08,.21-.08,.38v.86h.74l1.58-.03c.09,0,.13,.05,.13,.14v.67c0,.09-.04,.14-.13,.14l-1.58-.03Zm-2.94-2.31c.19,.2,.38,.48,.57,.84,.02,.04,.03,.07,.03,.09,0,.04-.03,.07-.1,.11l-.64,.26c-.07,.03-.12,.04-.14,.04-.03,0-.05-.03-.08-.08-.14-.32-.3-.6-.48-.85-.04-.07-.06-.11-.06-.13,0-.02,.04-.05,.12-.09l.57-.22c.06-.02,.1-.03,.12-.03,.03,0,.06,.02,.1,.06Zm2.62,1.05c.21-.24,.38-.47,.51-.7,.08-.14,.13-.27,.17-.41,.41,.11,.7,.19,.86,.26,.11,.04,.16,.09,.16,.14,0,.05-.02,.08-.06,.11-.09,.07-.15,.14-.2,.2-.24,.38-.37,.58-.39,.6-.08,.1-.14,.15-.2,.15-.05,0-.17-.05-.34-.15-.12-.07-.28-.13-.49-.19Z"/><path class="cls-17" d="M127.56,327.15c.4,.23,.73,.44,.98,.63,.11,.09,.16,.17,.16,.23,0,.05-.03,.1-.09,.15-.11,.07-.2,.17-.28,.3-.25,.37-.45,.65-.6,.84v5.01l.03,1.6c0,.07,0,.11-.03,.13-.02,.01-.06,.02-.12,.02h-1.11c-.07,0-.11,0-.12-.03-.01-.02-.02-.06-.02-.12l.03-1.6v-1.91s.01-.58,.04-1.62c-.37,.36-.7,.65-1,.9-.14,.11-.23,.17-.27,.17-.06,0-.12-.09-.18-.27-.14-.4-.3-.71-.47-.92,1.09-.82,1.99-1.76,2.7-2.84,.13-.22,.25-.44,.35-.67Zm-.04-3c.4,.2,.75,.41,1.07,.63,.12,.1,.18,.18,.18,.24,0,.07-.07,.14-.2,.21-.09,.07-.21,.19-.35,.36-.71,.84-1.54,1.58-2.51,2.23-.12,.08-.22,.13-.29,.13s-.15-.1-.25-.3c-.14-.3-.34-.57-.58-.81,1.07-.64,1.92-1.34,2.55-2.09,.15-.19,.27-.39,.37-.6Zm3.33,5.25l-1.75,.03c-.07,0-.11,0-.13-.03-.01-.02-.02-.06-.02-.11v-1.04c0-.07,.01-.11,.03-.12,.01-.01,.05-.02,.11-.02l1.75,.03h3.72l1.73-.03c.07,0,.11,0,.13,.03,.01,.02,.02,.06,.02,.11v1.04c0,.07,0,.11-.03,.12s-.06,.02-.12,.02l-1.73-.03h-.27v2.46l.04,2.46c.01,.62-.14,1.05-.44,1.3-.14,.13-.38,.21-.72,.25-.27,.03-.72,.05-1.33,.06-.22,0-.35-.02-.39-.06-.04-.03-.08-.15-.12-.34-.11-.44-.24-.78-.39-1,.47,.03,.93,.05,1.4,.05,.23,0,.39-.03,.47-.1,.07-.06,.1-.16,.1-.31v-4.76h-2.07Zm.52-3.21l-1.6,.03c-.07,0-.11,0-.12-.03-.01-.02-.02-.05-.02-.11v-1.05c0-.07,0-.11,.03-.12,.02-.01,.06-.02,.12-.02l1.6,.03h2.7l1.61-.03c.08,0,.12,0,.14,.03,.01,.02,.02,.05,.02,.11v1.05c0,.07-.01,.11-.03,.12-.02,.01-.06,.02-.13,.02l-1.61-.03h-2.7Z"/><path class="cls-17" d="M142.96,326.42c-.11-.33-.22-.61-.31-.84-.14-.34-.3-.62-.46-.83,.55-.09,1.07-.14,1.57-.14,.19,0,.29,.08,.29,.24l-.03,.25c0,.07,.02,.2,.05,.39,.07,.24,.14,.46,.21,.67,.86-.17,1.75-.39,2.65-.69,.05-.02,.08-.03,.11-.03,.05,0,.09,.03,.11,.1,.09,.27,.16,.56,.22,.87,0,.02,0,.03,0,.04,0,.1-.05,.16-.16,.19-.72,.23-1.57,.45-2.55,.67,.12,.33,.28,.69,.46,1.09,.85-.18,1.64-.4,2.37-.68,.05-.02,.08-.03,.12-.03,.05,0,.09,.04,.12,.11,.08,.2,.16,.48,.24,.86,0,.04,.01,.07,.01,.09,0,.06-.04,.11-.12,.14-.67,.25-1.4,.47-2.2,.63,.61,1.01,1.17,1.76,1.7,2.25,.07,.06,.11,.12,.11,.17,0,.03-.01,.08-.04,.14-.13,.27-.3,.54-.53,.81-.07,.08-.14,.13-.2,.13-.05,0-.11-.03-.18-.08-.15-.12-.4-.26-.77-.42-.64-.28-1.46-.42-2.44-.42-.65,0-1.15,.1-1.49,.3-.3,.17-.44,.4-.44,.69,0,.43,.3,.73,.91,.91,.49,.14,1.22,.21,2.19,.21,0,0,.48-.03,1.43-.08,.11,0,.16,.04,.16,.13v.04c-.08,.52-.17,.91-.26,1.18-.04,.12-.13,.18-.27,.2-.3,.03-.61,.04-.94,.04-1.6,0-2.78-.24-3.56-.71-.68-.41-1.02-.99-1.02-1.73s.32-1.33,.96-1.73c.57-.36,1.32-.53,2.26-.53s1.73,.11,2.23,.33c-.29-.35-.65-.86-1.08-1.54-1.52,.24-2.71,.37-3.56,.39-.12,0-.2-.06-.23-.18-.12-.42-.2-.77-.24-1.06,1.19-.03,2.35-.13,3.5-.32-.05-.1-.13-.28-.25-.55-.11-.25-.2-.43-.25-.53-1.3,.19-2.35,.3-3.16,.31-.15,0-.24-.06-.26-.18-.03-.1-.1-.45-.21-1.04,.99,.01,2.07-.06,3.24-.21Z"/><path class="cls-17" d="M158.34,327.09c-.33,2.41-.87,4.27-1.62,5.6-.57,1-1.31,1.5-2.22,1.5-.66,0-1.21-.33-1.66-.99-.42-.63-.63-1.41-.63-2.35,0-1.27,.49-2.4,1.47-3.38,1.11-1.11,2.52-1.66,4.23-1.66s2.9,.48,3.81,1.45c.76,.81,1.14,1.83,1.14,3.06,0,2.35-1.33,3.93-4,4.74-.08,.02-.14,.03-.19,.03-.13,0-.25-.09-.37-.27-.19-.29-.49-.57-.91-.82,1.34-.32,2.31-.76,2.92-1.34,.67-.63,1-1.48,1-2.55,0-.87-.3-1.6-.91-2.2-.55-.55-1.22-.82-2-.82h-.05Zm-1.51,.08c-.93,.19-1.67,.58-2.22,1.18-.68,.76-1.02,1.56-1.02,2.41,0,.6,.11,1.08,.32,1.44,.17,.28,.36,.42,.56,.42,.36,0,.68-.26,.98-.79,.32-.58,.61-1.32,.87-2.23,.24-.83,.41-1.63,.51-2.42Z"/><path class="cls-17" d="M169.97,328.26h-.6v.68h.41l1.51-.03c.06,0,.1,0,.11,.03,0,.02,.01,.06,.01,.12v.73c0,.07,0,.11-.02,.12s-.05,.02-.11,.02l-1.51-.03h-.41v.69h.97l1.7-.03c.08,0,.12,0,.14,.03,.01,.02,.02,.06,.02,.12v.76c0,.07-.01,.11-.03,.12-.02,.01-.06,.02-.13,.02l-1.7-.03h-3.33l-1.71,.03c-.07,0-.12,0-.13-.03-.01-.02-.02-.06-.02-.11v-.76c0-.07,0-.11,.03-.13s.06-.02,.12-.02l1.71,.03h1.14v-.69h-.41l-1.51,.03c-.07,0-.11,0-.13-.03-.01-.02-.02-.06-.02-.11v-.73c0-.07,0-.11,.03-.13,.01-.01,.05-.02,.11-.02l1.51,.03h.41v-.68h-.6l-1.44,.03c-.1,0-.15-.04-.15-.13v-.62h-.49c-.07,0-.11-.01-.12-.03-.01-.02-.02-.06-.02-.13l.03-1.14v-.32l-.03-.57c0-.07,0-.11,.03-.13,.02-.01,.06-.02,.12-.02l1.72,.03h.93v-.03c0-.37-.03-.72-.09-1.05,.39,0,.83,.04,1.33,.1,.14,.01,.21,.06,.21,.13,0,.06-.03,.15-.08,.27-.04,.09-.06,.28-.06,.57h.87l1.7-.03c.08,0,.12,0,.14,.03,.01,.02,.02,.06,.02,.12l-.03,.49v.41l.03,1.14c0,.08-.01,.12-.03,.13-.02,.02-.06,.03-.13,.03h-.45v.62c0,.08-.05,.13-.15,.13l-1.45-.03Zm-2.64,7.78h-1.03c-.07,0-.11,0-.12-.03-.01-.02-.02-.06-.02-.11l.03-1.68v-.86l-.03-1.06c0-.08,0-.12,.03-.14,.02-.01,.05-.02,.11-.02l1.49,.03h2.04l1.48-.03c.07,0,.11,.01,.13,.03,.01,.02,.02,.06,.02,.13l-.03,.91v.92l.03,1.64c0,.09-.05,.13-.14,.13h-1.02c-.09,0-.13-.04-.13-.13v-.34h-2.69v.47c0,.07,0,.11-.03,.12-.01,.01-.05,.02-.11,.02Zm-.77-9.78v1.03c.11,0,.44,.01,1,.01h.6c-.01-.23-.04-.51-.08-.82,.42,.02,.83,.05,1.22,.09,.14,.01,.21,.07,.21,.16,0,.04-.03,.12-.08,.25-.04,.08-.06,.19-.06,.32h.6c.57,0,.91,0,1.02-.01v-1.03h-4.42Zm.91,6.96v1.17h2.69v-1.17h-2.69Zm5.25-7.9c.47,.01,.91,.04,1.31,.09,.12,.02,.18,.07,.18,.15,0,.04-.01,.09-.04,.15-.03,.07-.05,.12-.05,.13-.02,.12-.03,.59-.03,1.39v3.6l.03,1.72c0,.06,0,.1-.03,.12-.02,.01-.06,.02-.13,.02h-1.06c-.08,0-.13-.05-.13-.14l.03-1.72v-3.59c0-.81-.03-1.45-.09-1.92Zm.61,9.13c.47,.05,.89,.08,1.25,.08,.24,0,.39-.04,.47-.11,.07-.07,.1-.2,.1-.39v-7.84c0-.77-.03-1.39-.1-1.85,.52,.02,.98,.05,1.38,.1,.15,.01,.22,.06,.22,.14,0,.04-.03,.13-.09,.27-.05,.13-.08,.57-.08,1.31v5.48l.04,2.58c0,.67-.16,1.11-.47,1.33-.2,.14-.43,.23-.69,.27-.26,.04-.65,.06-1.17,.06-.2,0-.32-.02-.36-.06-.03-.04-.07-.16-.11-.36-.09-.39-.22-.73-.38-1.01Z"/><path class="cls-17" d="M190.81,328.72c-.23,.29-.42,.62-.55,.99-.07,.22-.15,.34-.23,.34-.06,0-.17-.04-.31-.11-.94-.42-1.79-.91-2.54-1.45v.91c0,.07,0,.11-.03,.12-.01,.01-.05,.02-.12,.02l-1.47-.03h-2.02l-1.47,.03c-.07,0-.11,0-.13-.03-.01-.02-.02-.06-.02-.11v-.94c-.73,.57-1.53,1.08-2.41,1.54-.17,.08-.27,.13-.3,.13-.07,0-.15-.11-.25-.32-.16-.33-.36-.62-.61-.87,2.19-.99,3.86-2.31,5-3.97,.23-.33,.4-.64,.51-.93,.63,.1,1.09,.18,1.37,.25,.16,.05,.23,.12,.23,.21,0,.08-.04,.14-.13,.2-.05,.03-.09,.06-.11,.09,1.44,1.84,3.29,3.16,5.55,3.96Zm-9,7.31h-1.1c-.07,0-.11,0-.12-.03-.01-.02-.02-.06-.02-.11l.03-2.31v-1.12l-.03-1.57c0-.07,0-.11,.03-.12,.02-.01,.06-.02,.12-.02l1.78,.03h4.16l1.78-.03c.08,0,.12,0,.14,.03,.01,.02,.02,.06,.02,.11l-.03,1.38v1.28l.03,2.29c0,.07,0,.11-.03,.12-.02,.01-.06,.02-.12,.02h-1.1c-.07,0-.12,0-.13-.03-.01-.02-.02-.06-.02-.11v-.43h-5.22v.5c0,.07-.01,.11-.03,.12-.02,.01-.06,.02-.13,.02Zm.16-4.08v2.27h5.22v-2.27h-5.22Zm.18-3.67c.21,.02,.67,.03,1.4,.03h3.35c-.91-.71-1.71-1.53-2.39-2.48-.63,.87-1.42,1.69-2.37,2.46Z"/><path class="cls-17" d="M195.91,327.79c.13-.47,.26-1.02,.39-1.64,.09-.52,.13-1,.13-1.44,.63,.14,1.15,.28,1.56,.43,.14,.04,.21,.13,.21,.26,0,.07-.03,.14-.09,.2-.11,.13-.19,.3-.26,.5-.06,.19-.15,.47-.25,.83-.1,.33-.17,.57-.22,.74,.32-.04,.66-.06,1.02-.06,.66,0,1.14,.23,1.46,.7,.28,.41,.43,.98,.43,1.71,0,.84-.07,1.66-.21,2.46-.13,.72-.29,1.29-.5,1.72-.37,.81-.95,1.22-1.75,1.22-.56,0-.99-.05-1.29-.15-.16-.05-.24-.17-.24-.36-.05-.53-.13-.94-.24-1.21,.5,.19,.98,.29,1.43,.29,.23,0,.4-.05,.53-.17,.11-.1,.21-.28,.3-.53,.34-.9,.51-1.97,.51-3.22,0-.5-.06-.83-.18-.99-.11-.15-.3-.22-.57-.22-.29,0-.65,.03-1.09,.09-.85,2.48-1.72,4.51-2.62,6.11-.05,.11-.11,.16-.19,.16-.04,0-.09-.01-.15-.04-.4-.19-.7-.38-.9-.57-.07-.07-.1-.13-.1-.19,0-.05,.02-.1,.05-.15,1.03-1.78,1.82-3.48,2.38-5.1-.3,.05-.72,.12-1.27,.22-.23,.05-.47,.12-.72,.21-.06,.02-.11,.03-.16,.03-.12,0-.21-.07-.26-.2-.12-.32-.26-.77-.4-1.34,.48,0,1.05-.03,1.71-.09,.47-.05,.98-.11,1.54-.2Zm4.63-.1c.49-.33,.84-.55,1.05-.67,.03-.02,.06-.03,.09-.03,.05,0,.1,.03,.16,.09,.99,.93,1.71,1.98,2.16,3.16,.02,.05,.03,.08,.03,.11,0,.05-.03,.1-.08,.15-.25,.23-.57,.45-.98,.65-.05,.03-.09,.04-.13,.04-.08,0-.14-.05-.17-.14-.54-1.41-1.25-2.53-2.13-3.36Z"/><path class="cls-17" d="M208.02,327.29c.7,.2,1.15,.36,1.35,.47,.14,.06,.21,.15,.21,.25,0,.06-.02,.12-.06,.2-.12,.22-.21,.45-.26,.69-.15,.78-.26,1.57-.32,2.37,.67-.68,1.39-1.2,2.18-1.55,.73-.33,1.45-.5,2.17-.5,1,0,1.78,.29,2.32,.86,.47,.49,.7,1.13,.7,1.92,0,1.29-.65,2.26-1.96,2.91-.83,.42-1.94,.72-3.33,.89-.09,.01-.16,.02-.2,.02-.14,0-.24-.06-.32-.18-.28-.5-.57-.86-.88-1.1,1.51-.09,2.7-.34,3.57-.73,1.02-.44,1.54-1.09,1.54-1.96,0-.41-.14-.74-.41-.98-.28-.24-.66-.36-1.15-.36-.61,0-1.26,.2-1.97,.6-.61,.34-1.21,.8-1.78,1.38-.22,.22-.4,.46-.56,.72-.05,.08-.1,.11-.16,.11-.03,0-.08,0-.14-.03-.36-.12-.66-.24-.88-.35-.12-.05-.18-.13-.18-.26,.07-1.31,.2-2.71,.4-4.2,.08-.59,.12-.98,.12-1.17Zm.91-1.8c.33-.5,.59-.83,.77-1.02,.05-.06,.11-.08,.16-.08,.03,0,.05,0,.08,.01,.93,.36,1.78,.88,2.55,1.55,.06,.05,.09,.1,.09,.15,0,.03-.02,.08-.06,.15-.19,.32-.42,.62-.67,.91-.06,.07-.1,.1-.14,.1-.05,0-.1-.03-.16-.09-.81-.71-1.69-1.27-2.63-1.69Z"/><path class="cls-17" d="M231.27,329.29c-.25,.22-.5,.55-.75,.97-.11,.19-.2,.29-.25,.29-.04,0-.13-.06-.27-.17-.46-.33-.87-.68-1.24-1.05,0,.03-.01,.46-.04,1.29-.04,1.31-.15,2.52-.32,3.64-.1,.58-.3,.99-.62,1.24-.31,.24-.75,.36-1.32,.36-.38,0-.68,0-.89-.03-.21-.01-.33-.04-.37-.09-.03-.04-.07-.16-.11-.37-.1-.46-.23-.8-.41-1.04,.56,.08,1.05,.12,1.49,.12,.29,0,.5-.07,.62-.2,.11-.12,.2-.32,.25-.6,.14-.82,.22-1.89,.25-3.22h-2.32c-.25,2.62-1.57,4.46-3.95,5.52-.15,.07-.26,.1-.32,.1s-.15-.1-.27-.31c-.17-.33-.39-.59-.66-.78,1.26-.46,2.19-1.08,2.79-1.88,.53-.69,.85-1.58,.96-2.65h-.16l-1.71,.03c-.07,0-.11,0-.13-.03-.01-.02-.02-.06-.02-.11v-.95c-.38,.37-.8,.73-1.26,1.08-.16,.11-.25,.17-.29,.17-.05,0-.15-.09-.27-.29-.24-.37-.48-.63-.73-.8,1.7-1.1,2.95-2.53,3.76-4.29,.11-.25,.2-.53,.26-.83,.5,.13,.95,.28,1.35,.46,.12,.06,.18,.13,.18,.22,0,.06-.03,.12-.1,.2-.11,.09-.21,.23-.3,.41-.61,1.32-1.41,2.47-2.38,3.45,.25,.02,.79,.03,1.64,.03h3.5c.95,0,1.51,0,1.69-.03-1.18-1.2-2.11-2.57-2.79-4.12-.02-.05-.03-.08-.03-.1,0-.04,.05-.08,.15-.12l.92-.37c.07-.03,.12-.04,.15-.04,.04,0,.07,.04,.1,.11,.45,1.05,1.08,2.03,1.9,2.93,.71,.77,1.48,1.39,2.3,1.87Z"/><path class="cls-17" d="M236.09,327.98h-.1c.39,.97,.94,1.85,1.65,2.62-.19,.25-.33,.54-.44,.86-.06,.15-.11,.22-.15,.22-.06,0-.12-.07-.2-.2-.38-.58-.7-1.2-.96-1.86,0,1.47,.03,2.99,.06,4.58,0,.34,.02,.78,.03,1.33,0,.24,0,.38,0,.42,0,.07,0,.11-.03,.12-.02,.01-.06,.02-.12,.02h-1.07c-.07,0-.11,0-.12-.03-.01-.02-.02-.05-.02-.11,0-.02,0-.32,.02-.91,.04-1.72,.07-3.32,.07-4.81-.33,1.05-.79,2-1.38,2.86-.09,.13-.16,.2-.21,.2-.04,0-.09-.07-.14-.21-.12-.39-.27-.72-.44-.99,.95-1.15,1.63-2.52,2.06-4.11h-.24l-1.36,.03c-.07,0-.11-.01-.13-.03-.01-.02-.02-.06-.02-.12v-.93c0-.08,.05-.13,.15-.13l1.36,.03h.31v-.87c0-.77-.04-1.36-.11-1.77,.49,.01,.92,.04,1.3,.09,.15,.02,.22,.06,.22,.13,0,.06-.03,.15-.08,.27-.06,.12-.09,.54-.09,1.26v.88h.17l1.37-.03c.08,0,.12,0,.14,.03,.01,.01,.02,.05,.02,.1v.93c0,.07,0,.12-.03,.13-.02,.01-.06,.02-.13,.02l-1.37-.03Zm.32,7.21c.67-.66,1.14-1.48,1.4-2.48,.23-.92,.35-2.11,.35-3.56v-1.72c0-.85-.03-1.55-.08-2.11,.45,.07,.84,.18,1.18,.31,1.1-.2,2.12-.51,3.09-.93,.27-.11,.51-.25,.71-.41,.31,.27,.6,.59,.88,.96,.07,.1,.1,.18,.1,.24,0,.11-.07,.16-.21,.16s-.31,.04-.51,.13c-1.21,.47-2.5,.82-3.86,1.03v1.64h3.43l1.49-.03c.08,0,.12,0,.14,.03,.01,.02,.02,.06,.02,.11v1c0,.07,0,.11-.03,.12-.02,.01-.06,.02-.13,.02l-1.49-.03h-.18v4.67l.03,1.61c0,.07,0,.11-.03,.13-.02,.01-.05,.02-.11,.02h-1.1c-.07,0-.11-.01-.12-.03-.01-.01-.02-.05-.02-.11l.03-1.61v-4.67h-1.92c-.03,1.47-.17,2.67-.43,3.6-.27,.9-.69,1.75-1.27,2.53-.12,.15-.21,.22-.26,.22-.05,0-.15-.07-.3-.21-.25-.26-.51-.46-.79-.61Z"/><path class="cls-17" d="M249.12,324.8c.82,.09,1.37,.17,1.62,.24,.21,.05,.31,.13,.31,.25,0,.07-.04,.21-.13,.43-.06,.18-.12,.71-.18,1.58-.13,2.01-.2,3.68-.2,5.03,0,.71,.08,1.16,.24,1.35,.16,.18,.47,.27,.95,.27,.69,0,1.45-.21,2.28-.64,.82-.43,1.58-1.01,2.28-1.75,.05,.46,.15,.88,.3,1.24,.07,.15,.1,.26,.1,.31,0,.12-.09,.25-.26,.41-.73,.67-1.57,1.18-2.53,1.52-.8,.29-1.6,.43-2.4,.43-.91,0-1.55-.22-1.92-.67-.35-.42-.52-1.08-.52-1.99,0-.81,.06-2.68,.18-5.62,.01-.44,.02-.74,.02-.9,0-.58-.05-1.08-.15-1.48Z"/><path class="cls-17" d="M260.66,332.69c.05,0,.11,.03,.17,.08,.97,.61,1.84,1.4,2.59,2.38,.06,.08,.09,.15,.09,.2,0,.06-.04,.13-.13,.21l-.79,.67c-.09,.08-.16,.12-.18,.12-.07,0-.13-.04-.18-.13-.71-1.02-1.53-1.85-2.46-2.49-.08-.05-.11-.09-.11-.13s.03-.09,.09-.16l.73-.65c.07-.07,.13-.11,.2-.11Z"/><path class="cls-17" d="M18.45,356.87l-1.65,.03c-.07,0-.11,0-.13-.03-.01-.02-.02-.06-.02-.11v-1.19c0-.07,0-.11,.03-.12s.06-.02,.12-.02l1.65,.03h2.74v-7.33c0-1-.04-1.73-.11-2.17,.64,.02,1.15,.05,1.52,.09,.16,.02,.23,.07,.23,.17,0,.04-.03,.14-.09,.3-.06,.17-.09,.58-.09,1.24v2.06h2.54l1.6-.03c.07,0,.11,0,.13,.03,.01,.02,.02,.05,.02,.11v1.19c0,.07-.01,.11-.03,.12-.01,.01-.05,.02-.12,.02l-1.6-.03h-2.54v4.23h3.55l1.65-.03c.07,0,.11,0,.12,.03,.01,.02,.02,.06,.02,.11v1.19c0,.06,0,.1-.02,.12s-.05,.02-.12,.02l-1.65-.03h-7.76Z"/><path class="cls-17" d="M32.72,351.24l-1.74,.03c-.07,0-.11-.01-.13-.03-.01-.02-.02-.06-.02-.12v-.96c0-.07,0-.11,.03-.12s.06-.02,.12-.02l1.74,.03h2.33v-2.37c0-.85-.04-1.5-.11-1.96,.6,.02,1.09,.05,1.47,.09,.13,.02,.2,.07,.2,.15,0,.04-.03,.13-.08,.27-.06,.18-.09,.66-.09,1.43v2.39h2.53l1.74-.03c.08,0,.12,0,.14,.03,.01,.02,.02,.06,.02,.11v.96c0,.07-.01,.12-.03,.13-.02,.01-.06,.02-.13,.02l-1.74-.03h-2.53v1.68h3.49l1.61-.03c.09,0,.13,.05,.13,.15v.98c0,.1-.04,.15-.13,.15l-1.61-.03h-3.49v1.04l.03,2.27c0,.07,0,.11-.03,.13-.02,.01-.06,.02-.13,.02h-1.14c-.07,0-.11,0-.12-.03-.01-.02-.02-.06-.02-.12l.03-2.27v-1.04h-3.29l-1.61,.03c-.08,0-.13-.05-.13-.15v-.98c0-.1,.04-.15,.13-.15l1.61,.03h3.29v-1.68h-2.33Zm-.3-4.64c.55,.72,1.03,1.47,1.45,2.25,.02,.05,.03,.08,.03,.1,0,.04-.05,.09-.15,.15l-.79,.48c-.08,.06-.13,.08-.16,.08-.03,0-.06-.03-.09-.1-.33-.74-.78-1.5-1.37-2.28-.03-.05-.05-.08-.05-.1,0-.03,.04-.07,.11-.12l.74-.47c.08-.05,.13-.08,.17-.08,.04,0,.08,.03,.12,.09Zm5.02,2.65c.53-.7,.98-1.41,1.36-2.15,.09-.18,.17-.39,.23-.63,.43,.17,.81,.35,1.15,.55,.11,.05,.17,.12,.17,.18,0,.08-.05,.15-.16,.22-.08,.07-.15,.17-.22,.3-.3,.52-.69,1.12-1.15,1.81-.13,.17-.22,.25-.27,.25-.05,0-.15-.05-.32-.16-.25-.14-.5-.26-.78-.36Z"/><path class="cls-17" d="M49.64,356.15c.39,.05,.87,.07,1.44,.07,.31,0,.47-.16,.47-.47v-1.73c-1.84,1.31-4.1,2.39-6.79,3.25-.16,.04-.26,.06-.31,.06-.1,0-.19-.11-.29-.32-.14-.32-.32-.57-.54-.77,2.75-.72,5.02-1.66,6.82-2.81-1.67,.23-3.5,.43-5.48,.6-.2,.01-.36,.05-.47,.12-.08,.05-.16,.08-.22,.08-.08,0-.13-.07-.18-.2-.09-.32-.16-.71-.22-1.17,.43,0,.88-.01,1.36-.04,.12,0,.31,0,.57-.03v-4.13l-.03-1.54c0-.07,0-.11,.03-.13,.02-.01,.05-.02,.11-.02l1.72,.03h.25c.11-.2,.22-.43,.34-.71,.08-.22,.15-.46,.18-.74,.57,.05,1.03,.11,1.38,.19,.12,.03,.18,.09,.18,.18,0,.06-.04,.12-.11,.18-.09,.07-.16,.16-.21,.26-.14,.3-.25,.51-.31,.62h1.68l1.72-.03c.07,0,.11,0,.12,.03,.01,.02,.02,.06,.02,.12l-.03,1.73v2.61c.3-.31,.57-.64,.83-.99,.2-.24,.38-.52,.55-.84,.38,.3,.66,.54,.82,.71,.11,.13,.17,.22,.17,.27,0,.1-.05,.17-.16,.21-.14,.06-.31,.21-.52,.45-.5,.6-1.06,1.17-1.69,1.72v1.33l.04,1.73c0,.52-.14,.88-.43,1.09-.18,.13-.44,.21-.78,.25-.26,.03-.67,.05-1.22,.06-.08,0-.13,0-.15,0-.12,0-.2-.03-.23-.08-.03-.04-.06-.14-.1-.31-.08-.31-.19-.62-.34-.91Zm1.91-8.08h-4.46v.81h4.46v-.81Zm-4.46,2.62h4.46v-.8h-4.46v.8Zm4.46,1.57v-.56h-4.46v1c1.29-.09,2.77-.24,4.46-.44Z"/><path class="cls-17" d="M60.36,346.26c.71,0,1.28,.05,1.71,.16,.16,.04,.23,.11,.23,.2l-.1,.55c0,.08,.02,.38,.06,.88,.1,.78,.24,1.52,.42,2.23,.26-.14,.58-.31,.95-.51,.43-.23,.73-.39,.89-.48,.42-.25,.72-.48,.89-.7,.4,.41,.72,.82,.95,1.22,.06,.09,.09,.18,.09,.27,0,.15-.09,.24-.26,.26-.33,.05-.74,.19-1.25,.39-1.28,.52-2.3,1.03-3.05,1.52-1.02,.67-1.54,1.33-1.54,1.97,0,.41,.18,.7,.54,.87,.33,.15,.84,.22,1.53,.22,1.54,0,2.87-.1,3.97-.3,.03,0,.06,0,.08,0,.08,0,.13,.05,.15,.17,.05,.28,.09,.68,.13,1.21,.01,.13-.07,.2-.23,.22-.99,.13-2.28,.2-3.87,.2-2.5,0-3.76-.83-3.76-2.5,0-.72,.25-1.38,.76-1.97,.37-.44,.94-.9,1.71-1.39-.3-.96-.52-2.02-.67-3.17-.09-.69-.21-1.2-.34-1.51Z"/><path class="cls-17" d="M72.43,347.89l-1.64,.03c-.07,0-.12,0-.13-.03-.01-.02-.02-.05-.02-.11v-1.1c0-.07,0-.11,.03-.12s.06-.02,.12-.02l1.64,.03h7.91l1.64-.03c.07,0,.12,0,.13,.03,.01,.02,.02,.05,.02,.11v1.1c0,.07,0,.11-.03,.12s-.06,.02-.12,.02l-1.64-.03h-3.48v1.73c1.57,.63,2.92,1.33,4.04,2.09,.07,.04,.11,.09,.11,.13,0,.02-.02,.07-.06,.14l-.62,.87c-.06,.09-.11,.14-.15,.14-.03,0-.07-.01-.11-.04-1.24-.85-2.31-1.48-3.21-1.9v4.56l.03,1.77c0,.07-.01,.11-.03,.13-.02,.01-.06,.02-.13,.02h-1.19c-.08,0-.12-.01-.13-.03-.01-.01-.02-.05-.02-.11l.03-1.77v-7.72h-2.98Z"/><path class="cls-17" d="M86.8,351.24l-1.74,.03c-.07,0-.11-.01-.13-.03-.01-.02-.02-.06-.02-.12v-.96c0-.07,0-.11,.03-.12s.06-.02,.12-.02l1.74,.03h2.33v-2.37c0-.85-.04-1.5-.11-1.96,.6,.02,1.09,.05,1.47,.09,.13,.02,.2,.07,.2,.15,0,.04-.03,.13-.08,.27-.06,.18-.09,.66-.09,1.43v2.39h2.53l1.74-.03c.08,0,.12,0,.14,.03,.01,.02,.02,.06,.02,.11v.96c0,.07-.01,.12-.03,.13-.02,.01-.06,.02-.13,.02l-1.74-.03h-2.53v1.68h3.49l1.61-.03c.09,0,.13,.05,.13,.15v.98c0,.1-.04,.15-.13,.15l-1.61-.03h-3.49v1.04l.03,2.27c0,.07,0,.11-.03,.13-.02,.01-.06,.02-.13,.02h-1.14c-.07,0-.11,0-.12-.03-.01-.02-.02-.06-.02-.12l.03-2.27v-1.04h-3.29l-1.61,.03c-.08,0-.13-.05-.13-.15v-.98c0-.1,.04-.15,.13-.15l1.61,.03h3.29v-1.68h-2.33Zm-.3-4.64c.55,.72,1.03,1.47,1.45,2.25,.02,.05,.03,.08,.03,.1,0,.04-.05,.09-.15,.15l-.79,.48c-.08,.06-.13,.08-.16,.08-.03,0-.06-.03-.09-.1-.33-.74-.78-1.5-1.37-2.28-.03-.05-.05-.08-.05-.1,0-.03,.04-.07,.11-.12l.74-.47c.08-.05,.13-.08,.17-.08,.04,0,.08,.03,.12,.09Zm5.02,2.65c.53-.7,.98-1.41,1.36-2.15,.09-.18,.17-.39,.23-.63,.43,.17,.81,.35,1.15,.55,.11,.05,.17,.12,.17,.18,0,.08-.05,.15-.16,.22-.08,.07-.15,.17-.22,.3-.3,.52-.69,1.12-1.15,1.81-.13,.17-.22,.25-.27,.25-.05,0-.15-.05-.32-.16-.25-.14-.5-.26-.78-.36Z"/><path class="cls-17" d="M103.72,356.15c.39,.05,.87,.07,1.44,.07,.31,0,.47-.16,.47-.47v-1.73c-1.84,1.31-4.1,2.39-6.79,3.25-.16,.04-.26,.06-.31,.06-.1,0-.19-.11-.29-.32-.14-.32-.32-.57-.54-.77,2.75-.72,5.02-1.66,6.82-2.81-1.67,.23-3.5,.43-5.48,.6-.2,.01-.36,.05-.47,.12-.08,.05-.16,.08-.22,.08-.08,0-.13-.07-.18-.2-.09-.32-.16-.71-.22-1.17,.43,0,.88-.01,1.36-.04,.12,0,.31,0,.57-.03v-4.13l-.03-1.54c0-.07,0-.11,.03-.13,.02-.01,.05-.02,.11-.02l1.72,.03h.25c.11-.2,.22-.43,.34-.71,.08-.22,.15-.46,.18-.74,.57,.05,1.03,.11,1.38,.19,.12,.03,.18,.09,.18,.18,0,.06-.04,.12-.11,.18-.09,.07-.16,.16-.21,.26-.14,.3-.25,.51-.31,.62h1.68l1.72-.03c.07,0,.11,0,.12,.03,.01,.02,.02,.06,.02,.12l-.03,1.73v2.61c.3-.31,.57-.64,.83-.99,.2-.24,.38-.52,.55-.84,.38,.3,.66,.54,.82,.71,.11,.13,.17,.22,.17,.27,0,.1-.05,.17-.16,.21-.14,.06-.31,.21-.52,.45-.5,.6-1.06,1.17-1.69,1.72v1.33l.04,1.73c0,.52-.14,.88-.43,1.09-.18,.13-.44,.21-.78,.25-.26,.03-.67,.05-1.22,.06-.08,0-.13,0-.15,0-.12,0-.2-.03-.23-.08-.03-.04-.06-.14-.1-.31-.08-.31-.19-.62-.34-.91Zm1.91-8.08h-4.46v.81h4.46v-.81Zm-4.46,2.62h4.46v-.8h-4.46v.8Zm4.46,1.57v-.56h-4.46v1c1.29-.09,2.77-.24,4.46-.44Z"/><path class="cls-17" d="M113.38,346.7c.29,.02,.56,.03,.83,.03,.16,0,.31,0,.46-.01,.44-.03,1.43-.16,2.96-.39,.27-.04,.5-.12,.69-.22,.08-.06,.17-.09,.25-.09s.19,.07,.35,.2c.22,.18,.44,.39,.63,.65,.11,.13,.16,.25,.16,.36,0,.12-.08,.22-.23,.3-.21,.12-.39,.25-.53,.39-1.56,1.38-2.87,2.47-3.94,3.28l.03,.04c2.07-.6,4.16-1.08,6.26-1.43,.03,0,.04,0,.06,0,.1,0,.16,.07,.19,.21,.07,.27,.12,.62,.15,1.06v.03c0,.09-.07,.14-.21,.15-.96,.07-1.77,.21-2.42,.42-.77,.27-1.36,.64-1.75,1.12-.32,.39-.48,.81-.48,1.26,0,1.08,1.08,1.62,3.25,1.62,.13,0,.2,.07,.2,.2v.04c0,.1-.07,.47-.17,1.09-.03,.19-.12,.29-.29,.29s-.44-.03-.86-.08c-1.26-.13-2.19-.49-2.78-1.08-.49-.48-.73-1.1-.73-1.86,0-.48,.15-.96,.45-1.43,.28-.45,.66-.81,1.14-1.08v-.03c-1.06,.28-2.48,.73-4.28,1.37-.22,.1-.35,.15-.38,.15-.11,0-.2-.09-.26-.26-.12-.24-.27-.6-.43-1.07,.19-.05,.41-.12,.67-.21,.34-.14,.76-.4,1.25-.77,.9-.7,2.14-1.84,3.71-3.4-.5,.13-1.27,.3-2.32,.5-.28,.06-.45,.1-.49,.11-.03,0-.07,.03-.12,.05-.11,.05-.19,.08-.24,.08-.11,0-.21-.1-.31-.29-.13-.23-.29-.66-.47-1.28Z"/><path class="cls-17" d="M127.42,346.07c.69,.07,1.18,.15,1.48,.25,.18,.05,.27,.13,.27,.26,0,.06-.03,.14-.09,.25-.06,.1-.1,.32-.12,.64-.02,.33-.04,.76-.06,1.29,.2,.1,.36,.2,.5,.29,.08,.06,.11,.12,.11,.18,0,.04-.02,.09-.06,.15-.25,.41-.47,.82-.67,1.23v.06c.36-.41,.77-.83,1.21-1.26,.89-.85,1.68-1.28,2.35-1.28,.52,0,.92,.17,1.2,.52,.24,.3,.36,.71,.36,1.21,0,.67-.04,1.45-.11,2.36-.02,.33-.05,.82-.09,1.46-.03,.34-.04,.58-.04,.72,0,.33,.04,.54,.13,.63,.07,.07,.18,.11,.35,.11,.27,0,.59-.16,.96-.47,.27-.23,.53-.59,.78-1.09,.16,.44,.32,.76,.48,.98,.09,.12,.14,.22,.14,.3,0,.06-.03,.13-.09,.22-.71,.99-1.54,1.49-2.5,1.49-1.11,0-1.66-.66-1.66-1.99,0-.27,.03-1,.1-2.18,.06-1.06,.09-1.77,.09-2.13,0-.57-.13-.86-.41-.86-.34,0-.82,.28-1.45,.84-.71,.69-1.31,1.33-1.82,1.91,0,.31,.01,1.21,.03,2.72,.01,.95,.02,1.69,.02,2.21,0,.12-.06,.18-.18,.18-.22,.03-.56,.05-1.01,.05-.12,0-.18-.07-.18-.22,0-1.7,.01-2.94,.04-3.72-.42,.67-.93,1.45-1.51,2.34-.05,.08-.09,.13-.14,.13-.03,0-.09-.02-.16-.06-.31-.2-.58-.44-.81-.73-.05-.05-.08-.1-.08-.14,0-.07,.04-.15,.11-.22,.87-1.1,1.72-2.24,2.55-3.42,0-.38,0-.67,.01-.88-.62,.16-1.14,.33-1.56,.51-.03,.01-.07,.04-.12,.07-.11,.08-.2,.11-.25,.11-.11,0-.19-.07-.26-.21-.13-.21-.3-.61-.51-1.19,.25,0,.56-.05,.95-.12,.69-.16,1.3-.32,1.83-.49v-1.77c0-.52-.04-.94-.13-1.26Z"/><path class="cls-17" d="M140.37,346.7c.29,.02,.57,.03,.83,.03,.15,0,.3,0,.46-.01,.43-.03,1.42-.16,2.96-.39,.28-.04,.51-.12,.69-.22,.08-.06,.17-.09,.25-.09s.19,.07,.35,.2c.22,.18,.44,.39,.63,.65,.11,.13,.16,.25,.16,.36,0,.12-.08,.22-.23,.3-.21,.12-.39,.25-.53,.39-1.56,1.38-2.87,2.47-3.94,3.28l.03,.04c2.07-.6,4.16-1.08,6.26-1.43,.03,0,.04,0,.06,0,.1,0,.17,.07,.19,.21,.07,.27,.12,.62,.15,1.05v.03c0,.09-.07,.14-.21,.15-.96,.07-1.77,.21-2.42,.42-.77,.27-1.36,.64-1.75,1.12-.32,.39-.48,.81-.48,1.26,0,1.08,1.08,1.62,3.25,1.62,.13,0,.2,.07,.2,.2v.04c0,.1-.07,.47-.17,1.09-.03,.19-.12,.29-.29,.29-.16,0-.44-.03-.86-.08-1.26-.13-2.19-.49-2.78-1.08-.49-.48-.73-1.1-.73-1.86,0-.48,.15-.96,.45-1.43,.28-.45,.66-.81,1.14-1.08v-.03c-1.07,.28-2.49,.74-4.28,1.37-.22,.09-.35,.14-.37,.14-.11,0-.2-.09-.26-.26-.12-.24-.27-.6-.43-1.07,.19-.05,.42-.12,.67-.21,.34-.14,.76-.4,1.25-.77,.9-.7,2.14-1.84,3.71-3.4-.51,.14-1.28,.31-2.32,.5-.28,.06-.45,.1-.5,.11-.03,0-.07,.03-.12,.05-.11,.05-.19,.08-.24,.08-.11,0-.21-.1-.31-.29-.13-.23-.29-.66-.47-1.28Zm6.58,.66l.69-.48s.05-.03,.08-.03c.03,0,.07,.02,.12,.06,.44,.35,.85,.81,1.23,1.4,.03,.03,.04,.07,.04,.1,0,.04-.03,.07-.08,.11l-.55,.41s-.07,.04-.1,.04c-.04,0-.08-.03-.12-.08-.4-.62-.84-1.12-1.31-1.5Zm1.2-.86l.65-.47s.06-.03,.08-.03c.03,0,.07,.02,.11,.06,.5,.38,.91,.83,1.24,1.34,.03,.04,.04,.08,.04,.11,0,.05-.03,.09-.08,.13l-.51,.41s-.07,.04-.11,.04c-.04,0-.08-.03-.11-.08-.36-.58-.8-1.08-1.3-1.49Z"/><path class="cls-17" d="M154.46,346.07c.69,.07,1.18,.15,1.48,.25,.18,.05,.27,.13,.27,.26,0,.06-.03,.14-.09,.25-.06,.1-.1,.32-.12,.64-.02,.33-.04,.76-.06,1.29,.2,.1,.36,.2,.5,.29,.08,.06,.11,.12,.11,.18,0,.04-.02,.09-.06,.15-.25,.41-.47,.82-.67,1.23v.06c.36-.41,.77-.83,1.21-1.26,.89-.85,1.68-1.28,2.35-1.28,.52,0,.92,.17,1.2,.52,.24,.3,.36,.71,.36,1.21,0,.67-.04,1.45-.11,2.36-.02,.33-.05,.82-.09,1.46-.03,.34-.04,.58-.04,.72,0,.33,.04,.54,.13,.63,.07,.07,.18,.11,.35,.11,.27,0,.59-.16,.96-.47,.27-.23,.53-.59,.78-1.09,.16,.44,.32,.76,.48,.98,.09,.12,.14,.22,.14,.3,0,.06-.03,.13-.09,.22-.71,.99-1.54,1.49-2.5,1.49-1.11,0-1.66-.66-1.66-1.99,0-.27,.03-1,.1-2.18,.06-1.06,.09-1.77,.09-2.13,0-.57-.13-.86-.41-.86-.34,0-.82,.28-1.45,.84-.71,.69-1.31,1.33-1.82,1.91,0,.31,.01,1.21,.03,2.72,.01,.95,.02,1.69,.02,2.21,0,.12-.06,.18-.18,.18-.22,.03-.56,.05-1.01,.05-.12,0-.18-.07-.18-.22,0-1.7,.01-2.94,.04-3.72-.42,.67-.93,1.45-1.51,2.34-.05,.08-.09,.13-.14,.13-.03,0-.09-.02-.16-.06-.31-.2-.58-.44-.81-.73-.05-.05-.08-.1-.08-.14,0-.07,.04-.15,.11-.22,.87-1.1,1.72-2.24,2.55-3.42,0-.38,0-.67,.01-.88-.62,.16-1.14,.33-1.56,.51-.03,.01-.07,.04-.12,.07-.11,.08-.2,.11-.25,.11-.11,0-.19-.07-.26-.21-.13-.21-.3-.61-.51-1.19,.25,0,.56-.05,.95-.12,.69-.16,1.3-.32,1.83-.49v-1.77c0-.52-.04-.94-.13-1.26Z"/><path class="cls-17" d="M17.7,366.92h4.08v.72h-3.3v10.63h-.78v-11.35Z"/><path class="cls-17" d="M30.37,368.13v8.71h1.99v1.28h-5.68v-1.28h2.09v-7.05c-.59,.39-1.25,.68-1.97,.88l-.27-1.38c.87-.23,1.69-.62,2.48-1.17h1.37Z"/><path class="cls-17" d="M42.83,371.85c.38,0,.71,.14,.96,.43,.22,.25,.34,.54,.34,.87,0,.38-.14,.71-.43,.96-.25,.22-.54,.34-.87,.34-.38,0-.71-.14-.96-.43-.22-.25-.34-.54-.34-.87,0-.39,.14-.71,.43-.96,.25-.22,.54-.34,.87-.34Z"/><path class="cls-17" d="M53.15,370.77c.12-.93,.52-1.64,1.18-2.13,.56-.41,1.24-.62,2.06-.62,1.03,0,1.83,.26,2.39,.79,.5,.47,.76,1.1,.76,1.89,0,.59-.17,1.15-.52,1.67-.31,.47-.85,1.03-1.6,1.69-.79,.67-1.38,1.2-1.75,1.62-.35,.38-.62,.76-.79,1.12h4.7v1.31h-6.51v-1.17c.59-1.17,1.59-2.39,3-3.67,.73-.66,1.2-1.17,1.43-1.54,.19-.32,.29-.67,.29-1.05,0-.46-.14-.81-.43-1.05-.25-.21-.58-.32-.99-.32-.47,0-.84,.17-1.1,.51-.24,.3-.38,.73-.41,1.27l-1.69-.34Z"/><path class="cls-17" d="M69.87,371.85c.38,0,.71,.14,.96,.43,.22,.25,.34,.54,.34,.87,0,.38-.14,.71-.43,.96-.25,.22-.54,.34-.87,.34-.38,0-.71-.14-.96-.43-.22-.25-.34-.54-.34-.87,0-.39,.14-.71,.43-.96,.25-.22,.54-.34,.87-.34Z"/><path class="cls-17" d="M80.09,370.17c.21-.74,.63-1.29,1.25-1.66,.53-.32,1.18-.48,1.93-.48,1.01,0,1.81,.27,2.41,.8,.5,.45,.75,1.02,.75,1.7,0,.63-.2,1.14-.61,1.55-.35,.36-.82,.58-1.4,.68v.09c.76,.16,1.33,.47,1.71,.95,.34,.42,.51,.93,.51,1.55,0,.94-.35,1.68-1.05,2.23-.61,.48-1.38,.72-2.32,.72-1.79,0-2.9-.73-3.35-2.2l1.66-.47c.13,.52,.35,.89,.64,1.11,.26,.19,.6,.28,1.03,.28,.53,0,.95-.17,1.26-.51,.27-.3,.4-.68,.4-1.16,0-1.19-.69-1.78-2.08-1.78h-.79v-1.34h.73c1.31,0,1.96-.52,1.96-1.56,0-.47-.15-.82-.46-1.07-.26-.21-.6-.31-1.02-.31s-.75,.12-1.02,.38c-.25,.24-.41,.56-.48,.98l-1.66-.48Z"/><path class="cls-17" d="M95.03,379.38h-4.08v-.72h3.3v-10.63h.78v11.35Z"/><path class="cls-17" d="M111.28,370.12c-.33,2.41-.87,4.27-1.62,5.6-.57,1-1.31,1.5-2.22,1.5-.66,0-1.21-.33-1.66-.99-.42-.63-.63-1.41-.63-2.35,0-1.27,.49-2.4,1.47-3.38,1.11-1.11,2.52-1.66,4.23-1.66s2.9,.48,3.81,1.45c.76,.81,1.14,1.83,1.14,3.06,0,2.35-1.33,3.93-4,4.74-.08,.02-.14,.03-.19,.03-.13,0-.25-.09-.37-.27-.19-.29-.49-.56-.91-.82,1.34-.32,2.31-.76,2.92-1.34,.67-.63,1-1.48,1-2.54,0-.87-.3-1.6-.91-2.2-.55-.55-1.22-.82-2-.82h-.05Zm-1.51,.08c-.93,.19-1.67,.58-2.22,1.18-.68,.76-1.02,1.56-1.02,2.41,0,.6,.11,1.08,.32,1.44,.17,.28,.36,.42,.56,.42,.36,0,.68-.26,.98-.79,.32-.58,.61-1.33,.87-2.23,.24-.83,.41-1.63,.51-2.42Z"/><path class="cls-17" d="M121.35,370.17c.2-.74,.59-1.29,1.18-1.66,.5-.32,1.11-.48,1.82-.48,.96,0,1.71,.27,2.27,.8,.47,.45,.71,1.02,.71,1.7,0,.63-.19,1.15-.57,1.55-.33,.36-.78,.58-1.33,.68v.09c.71,.15,1.25,.47,1.62,.95,.32,.42,.48,.93,.48,1.55,0,.94-.33,1.68-.99,2.23-.57,.48-1.3,.72-2.18,.72-1.68,0-2.73-.73-3.15-2.2l1.59-.47c.12,.53,.31,.9,.59,1.12,.24,.19,.56,.29,.96,.29,.5,0,.89-.17,1.16-.5,.24-.3,.36-.69,.36-1.17,0-1.2-.64-1.8-1.92-1.8h-.76v-1.33h.69c1.21,0,1.82-.52,1.82-1.56,0-.48-.14-.84-.42-1.08-.24-.21-.55-.31-.95-.31s-.7,.13-.95,.38c-.23,.24-.37,.57-.43,.98l-1.6-.48Z"/><path class="cls-17" d="M140.59,374.18c.57,.46,1.04,.89,1.4,1.31,.05,.05,.08,.12,.08,.18,0,.06-.03,.12-.08,.17-.27,.32-.54,.59-.81,.82-.06,.04-.11,.06-.16,.06-.04,0-.09-.03-.14-.08-.36-.41-.78-.84-1.26-1.26-1.24,1.34-2.62,2.42-4.14,3.25-.14,.08-.25,.11-.32,.11s-.16-.04-.25-.11c-.34-.28-.75-.5-1.24-.66,1.08-.55,2-1.11,2.75-1.68,.68-.51,1.36-1.13,2.04-1.85-.55-.45-1.17-.86-1.87-1.22,.52-.57,.81-.88,.86-.93,.06-.06,.12-.09,.17-.09,.02,0,.06,.02,.13,.05,.37,.18,.93,.52,1.68,1.04,.58-.74,1.08-1.6,1.52-2.57l-3.22,.06c-1.04,1.33-1.96,2.3-2.78,2.93-.11,.08-.2,.11-.26,.11-.08,0-.15-.03-.21-.09-.3-.22-.67-.42-1.09-.6,.92-.73,1.69-1.45,2.3-2.18,.48-.55,.94-1.18,1.38-1.9,.37-.63,.6-1.17,.7-1.6,.79,.28,1.29,.49,1.52,.63,.09,.05,.14,.12,.14,.21s-.05,.18-.16,.26c-.1,.06-.19,.15-.27,.27-.1,.18-.24,.39-.41,.65l2.29-.05c.28,0,.52-.07,.71-.2,.09-.06,.16-.09,.22-.09s.14,.03,.23,.1c.28,.17,.57,.43,.89,.79,.07,.07,.1,.15,.1,.23s-.05,.16-.15,.25c-.17,.15-.29,.31-.39,.5-.64,1.26-1.28,2.31-1.91,3.15Z"/><path class="cls-17" d="M153.44,371.35v4.3c0,.76,.01,1.66,.04,2.7v.04c0,.12-.07,.18-.2,.18-.21,.01-.43,.02-.65,.02s-.44,0-.65-.02c-.12,0-.18-.06-.18-.17v-.04c0-.2,.01-.68,.03-1.44,.01-.5,.02-.9,.02-1.23v-3.03c-1.31,1.1-2.5,1.93-3.57,2.49-.06,.03-.12,.05-.2,.05-.09,0-.18-.04-.27-.13-.25-.25-.62-.5-1.12-.77,1.54-.79,2.9-1.68,4.09-2.67,1.06-.87,1.98-1.77,2.77-2.72,.38-.44,.66-.89,.83-1.34,.69,.39,1.17,.69,1.44,.91,.07,.05,.1,.11,.1,.19,0,.11-.06,.21-.18,.29-.19,.13-.45,.37-.77,.72-.45,.54-.96,1.08-1.52,1.64Z"/><path class="cls-17" d="M160.43,369.18c.55,.06,1.38,.09,2.5,.09h4.64c.33,0,.57-.04,.72-.13,.08-.05,.15-.08,.22-.08,.08,0,.16,.03,.22,.09,.39,.31,.69,.61,.89,.9,.07,.09,.1,.18,.1,.25,0,.08-.04,.16-.13,.25-.09,.09-.19,.26-.3,.51-.7,1.68-1.54,3.09-2.52,4.23-1.17,1.33-2.4,2.37-3.69,3.1-.12,.08-.24,.11-.36,.11s-.23-.05-.32-.15c-.27-.26-.67-.5-1.21-.71,1-.51,1.84-1.03,2.52-1.57,.59-.47,1.16-1.03,1.73-1.68,.98-1.12,1.71-2.35,2.2-3.71h-4.7c-.49,0-1.21,.02-2.15,.06-.14,0-.22-.08-.25-.26-.03-.22-.07-.65-.12-1.31Zm10.09-2.38c.42,0,.77,.15,1.04,.46,.24,.26,.36,.57,.36,.93,0,.42-.16,.77-.46,1.04-.26,.24-.58,.36-.94,.36-.42,0-.77-.15-1.04-.46-.24-.26-.36-.58-.36-.94,0-.43,.16-.77,.46-1.04,.26-.23,.58-.35,.94-.35Zm0,.62c-.24,0-.43,.08-.58,.25-.13,.14-.19,.32-.19,.52,0,.24,.08,.44,.25,.58,.14,.13,.31,.19,.52,.19,.24,0,.43-.08,.58-.25,.13-.14,.19-.32,.19-.53,0-.24-.08-.43-.25-.58-.14-.13-.31-.19-.52-.19Z"/><path class="cls-17" d="M174.88,368.19c.61,.14,1.07,.3,1.4,.48,.2,.11,.3,.21,.3,.31,0,.06-.07,.19-.2,.39-.11,.2-.21,.51-.31,.92-.36,1.61-.55,3.01-.55,4.2,0,.55,.03,1.06,.08,1.52,.59-1.29,.88-1.93,.88-1.94,.05,.14,.2,.41,.46,.82,.06,.1,.09,.17,.09,.2,0,.07-.02,.14-.06,.21-.36,.82-.61,1.47-.74,1.96-.03,.08-.04,.22-.04,.41l.03,.36c0,.09-.06,.15-.17,.17-.37,.1-.72,.17-1.06,.21h-.03c-.07,0-.12-.05-.15-.15-.19-.47-.34-1.12-.46-1.92-.09-.68-.14-1.33-.14-1.95,0-1.19,.15-2.62,.44-4.27,.15-.89,.23-1.53,.23-1.94Zm3,6.7l1.18-.1h.03c.07,0,.1,.07,.1,.2,.04,.47,.25,.8,.63,.98,.33,.16,.82,.23,1.49,.23,.71,0,1.53-.05,2.48-.17,.03,0,.05,0,.06,0,.07,0,.11,.06,.13,.17,.05,.36,.08,.74,.08,1.12,0,.08-.01,.14-.03,.15-.03,.02-.09,.03-.19,.04-.81,.1-1.51,.15-2.12,.15-1.01,0-1.78-.1-2.3-.29-.45-.17-.81-.43-1.07-.79-.3-.39-.45-.95-.45-1.69Zm.41-3.69c.01-.74,.03-1.17,.04-1.28,.01-.13,.07-.2,.18-.22,.84-.16,1.78-.23,2.82-.23,.74,0,1.38,.03,1.92,.08,.14,0,.23,.03,.26,.05,.03,.02,.04,.06,.04,.12,0,.5,0,.86-.03,1.1-.01,.11-.06,.16-.14,.16h-.03c-.78-.06-1.49-.08-2.12-.08-.85,0-1.84,.1-2.95,.3Z"/><path class="cls-17" d="M198.69,372.32c-.25,.22-.5,.55-.75,.97-.11,.19-.2,.29-.25,.29-.04,0-.13-.06-.27-.17-.46-.33-.87-.68-1.24-1.05,0,.03-.01,.46-.04,1.29-.04,1.31-.15,2.52-.32,3.64-.1,.58-.3,.99-.62,1.24-.31,.24-.75,.36-1.32,.36-.38,0-.68,0-.89-.03-.21-.01-.33-.04-.37-.09-.03-.04-.07-.16-.11-.37-.1-.46-.23-.8-.41-1.04,.56,.08,1.05,.12,1.49,.12,.29,0,.5-.07,.62-.2,.11-.12,.2-.32,.25-.6,.14-.82,.22-1.89,.25-3.22h-2.32c-.25,2.62-1.57,4.46-3.95,5.52-.15,.07-.26,.1-.32,.1s-.15-.1-.27-.31c-.17-.33-.39-.59-.66-.78,1.26-.46,2.19-1.08,2.79-1.88,.53-.69,.85-1.58,.96-2.65h-.16l-1.71,.03c-.07,0-.11,0-.13-.03-.01-.02-.02-.05-.02-.11v-.95c-.38,.37-.8,.73-1.26,1.08-.16,.11-.25,.17-.29,.17-.05,0-.15-.1-.27-.29-.24-.37-.48-.63-.73-.8,1.7-1.1,2.95-2.53,3.76-4.29,.11-.25,.2-.53,.26-.83,.5,.13,.95,.28,1.35,.46,.12,.05,.18,.13,.18,.22,0,.06-.03,.12-.1,.2-.11,.09-.21,.23-.3,.41-.61,1.33-1.41,2.47-2.38,3.45,.25,.02,.79,.03,1.64,.03h3.5c.95,0,1.51,0,1.69-.03-1.18-1.2-2.11-2.57-2.79-4.12-.02-.05-.03-.08-.03-.1,0-.04,.05-.08,.15-.12l.92-.37c.07-.03,.12-.04,.15-.04,.04,0,.07,.04,.1,.11,.45,1.05,1.08,2.03,1.9,2.93,.71,.77,1.48,1.39,2.3,1.87Z"/><path class="cls-17" d="M204.24,370.77h-.16c.46,.58,1.1,1.07,1.9,1.49-.17,.2-.31,.42-.42,.66-.09,.21-.17,.31-.23,.31-.04,0-.14-.06-.29-.18-.63-.55-1.1-1.07-1.42-1.58,0,.43,.02,.79,.04,1.1,0,.2,.01,.31,.01,.33,0,.07,0,.11-.03,.13-.02,.01-.06,.02-.12,.02h-.87c-.07,0-.11-.01-.12-.03-.01-.01-.02-.05-.02-.11,0-.02,0-.08,.01-.18,.02-.3,.03-.68,.04-1.12-.4,.58-.96,1.15-1.7,1.7-.14,.11-.24,.16-.3,.16-.07,0-.15-.08-.22-.25-.13-.29-.28-.53-.47-.71,.92-.46,1.67-1.04,2.25-1.72h-.26l-1.54,.03c-.09,0-.13-.05-.13-.14v-.73c0-.09,.04-.14,.13-.14l1.54,.03h.64v-.99c0-.56-.03-1.09-.1-1.57,.39,.01,.8,.04,1.22,.09,.14,.01,.21,.06,.21,.13,0,.05-.01,.1-.04,.17-.03,.07-.05,.12-.06,.14-.03,.15-.05,.5-.05,1.04v.99h.54l1.55-.03c.07,0,.11,0,.12,.03,.01,.02,.02,.05,.02,.11v.73c0,.07,0,.11-.03,.12-.02,.01-.06,.02-.12,.02l-1.55-.03Zm-2.43,4.69l-1.55,.03c-.07,0-.11,0-.12-.03-.01-.02-.02-.06-.02-.11v-.82c0-.07,0-.11,.03-.13,.02-.01,.05-.02,.11-.02l1.55,.03h.6c.02-.24,.03-.43,.03-.57,0-.19-.01-.37-.04-.55,.58,.05,.97,.08,1.16,.11,.15,.03,.22,.08,.22,.15,0,.03-.02,.1-.06,.21-.05,.08-.08,.3-.11,.65h.6l1.56-.03c.07,0,.12,0,.13,.03,.01,.02,.02,.06,.02,.12v.82c0,.07,0,.11-.03,.12-.02,.01-.06,.02-.13,.02l-1.56-.03h-.32c.42,.71,1.07,1.27,1.94,1.66-.25,.21-.45,.43-.61,.67-.13,.19-.22,.29-.29,.29-.05,0-.15-.06-.3-.17-.58-.43-1.06-.96-1.42-1.6-.4,.98-1.08,1.75-2.04,2.32-.13,.08-.22,.11-.27,.11-.08,0-.18-.1-.3-.29-.17-.25-.38-.48-.63-.67,1.2-.49,1.97-1.26,2.29-2.32h-.43Zm-.41-7.67c.25,.33,.49,.73,.71,1.21,.02,.05,.03,.09,.03,.11,0,.05-.05,.09-.16,.15l-.61,.29c-.08,.04-.13,.06-.16,.06-.03,0-.06-.03-.09-.1-.16-.4-.38-.81-.67-1.24-.04-.06-.06-.11-.06-.13,0-.04,.05-.08,.14-.13l.6-.27c.05-.03,.09-.04,.12-.04,.04,0,.08,.03,.14,.09Zm2.5,1.43c.23-.36,.42-.71,.56-1.04,.1-.2,.16-.39,.18-.57,.36,.1,.68,.22,.96,.36,.1,.03,.15,.08,.15,.15,0,.06-.04,.12-.12,.18-.05,.04-.11,.12-.18,.25-.07,.15-.22,.42-.44,.81-.1,.16-.18,.23-.23,.23-.04,0-.12-.04-.25-.11-.18-.09-.39-.18-.62-.26Zm3.52,7.41c.31,.17,.6,.36,.88,.56,.1,.07,.15,.14,.15,.21,0,.06-.05,.11-.16,.15-.07,.03-.18,.11-.34,.23-.49,.42-1.07,.81-1.74,1.17-.17,.09-.29,.13-.34,.13-.08,0-.19-.1-.31-.31-.16-.27-.34-.49-.53-.65,.85-.33,1.5-.68,1.95-1.04,.14-.1,.29-.25,.44-.45Zm.35-7.74l-1.62,.03c-.07,0-.11,0-.13-.03-.01-.02-.02-.06-.02-.11v-.95c0-.07,.01-.11,.03-.12,.01-.01,.05-.02,.11-.02l1.62,.03h2.42l1.64-.03c.08,0,.13,.05,.13,.14v.95c0,.09-.04,.14-.13,.14l-1.64-.03h-.65c-.12,.35-.26,.68-.4,.98h.61l1.5-.03c.09,0,.14,.04,.14,.13l-.03,1.52v3.45l.03,1.49c0,.07,0,.12-.02,.13-.01,.02-.05,.03-.12,.03l-1.5-.03h-1.73l-1.48,.03c-.08,0-.12-.01-.14-.03-.01-.02-.02-.06-.02-.13l.03-1.49v-3.4l-.03-1.57c0-.06,.01-.1,.03-.11,.02-.01,.06-.02,.13-.02l1.29,.03c.11-.24,.24-.56,.38-.98h-.44Zm-.15,2.06v.82h2.5v-.82h-2.5Zm0,2.65h2.5v-.85h-2.5v.85Zm2.5,1.9v-.92h-2.5v.92h2.5Zm2.09,2.5c-.19,.17-.36,.41-.53,.72-.11,.2-.2,.3-.29,.3-.06,0-.16-.04-.3-.11-.69-.38-1.32-.85-1.88-1.42-.04-.04-.06-.09-.06-.13s.04-.1,.11-.15l.52-.47c.06-.06,.11-.09,.17-.09,.03,0,.07,.02,.13,.06,.62,.55,1.34,.98,2.14,1.29Z"/><path class="cls-17" d="M216.53,367.83c.82,.09,1.37,.17,1.62,.23,.21,.05,.31,.13,.31,.25,0,.07-.04,.21-.13,.43-.06,.18-.12,.7-.18,1.58-.13,2.01-.2,3.68-.2,5.03,0,.71,.08,1.16,.24,1.35,.16,.18,.47,.27,.95,.27,.69,0,1.45-.21,2.28-.64,.82-.43,1.58-1.01,2.28-1.75,.05,.47,.15,.88,.3,1.24,.07,.15,.1,.26,.1,.31,0,.12-.09,.25-.26,.41-.73,.67-1.57,1.18-2.53,1.52-.8,.29-1.6,.43-2.4,.43-.91,0-1.55-.22-1.92-.67-.35-.41-.52-1.08-.52-1.99,0-.81,.06-2.68,.18-5.62,.01-.44,.02-.74,.02-.9,0-.58-.05-1.08-.15-1.48Z"/><path class="cls-17" d="M227.8,369.79c.46-.02,1.15-.09,2.07-.22,3.5-.51,6.1-.88,7.81-1.1,.03,0,.06,0,.08,0,.12,0,.18,.05,.2,.15,.08,.38,.13,.76,.15,1.15,0,.13-.08,.19-.25,.19-.59,.04-1.12,.13-1.59,.29-1.14,.39-2,.97-2.59,1.75-.48,.63-.72,1.33-.72,2.08,0,1.68,1.15,2.59,3.46,2.73,.19,0,.29,.07,.29,.2,0,.41-.05,.78-.15,1.12-.03,.18-.12,.27-.24,.27-1.36,0-2.51-.38-3.44-1.13-.91-.74-1.36-1.7-1.36-2.89,0-.94,.25-1.78,.74-2.5,.4-.58,.99-1.12,1.75-1.62v-.03c-1.53,.29-2.99,.57-4.37,.86-.45,.11-.72,.18-.82,.21-.16,.07-.26,.1-.29,.1-.11,0-.19-.07-.25-.2-.13-.28-.3-.75-.48-1.4Z"/><path class="cls-17" d="M241.62,369.06c.71,.08,1.26,.23,1.65,.43,.14,.06,.21,.14,.21,.23,0,.08-.04,.2-.11,.36-.08,.24-.11,.66-.11,1.28,0,1.08,.08,2.07,.24,2.96,.22,1.27,.58,1.91,1.07,1.91,.22,0,.43-.15,.63-.46,.18-.27,.38-.72,.62-1.35,.22,.35,.5,.68,.83,1,.09,.08,.13,.17,.13,.28,0,.06-.01,.13-.04,.2-.26,.7-.6,1.22-1.03,1.57-.36,.3-.75,.45-1.18,.45-.58,0-1.09-.33-1.55-.99-.43-.62-.72-1.42-.88-2.4-.21-1.24-.31-2.5-.31-3.78,0-.66-.05-1.22-.16-1.7Zm6.66,1.84c.43-.27,.77-.47,1.02-.6,.07-.03,.12-.05,.15-.05,.04,0,.09,.03,.14,.08,.64,.55,1.2,1.27,1.68,2.16,.43,.77,.71,1.54,.86,2.29,0,.03,.01,.05,.01,.08,0,.08-.05,.15-.15,.21-.38,.25-.72,.42-1.02,.52-.04,.01-.08,.02-.11,.02-.08,0-.14-.06-.16-.17-.24-1.02-.56-1.89-.96-2.62-.37-.67-.86-1.31-1.47-1.92Z"/><path class="cls-17" d="M259.58,375.23c-.03-.81-.05-1.33-.06-1.55-.36,0-.69,.01-.98,.01-.61,0-1.17-.02-1.7-.07-.13,0-.2-.07-.21-.22-.05-.29-.08-.66-.08-1.1,.66,.08,1.36,.12,2.09,.12,.27,0,.55,0,.83-.02l-.03-1.49c-.52,.02-.95,.03-1.31,.03-.68,0-1.28-.03-1.8-.09-.14,0-.21-.06-.22-.18-.04-.32-.07-.71-.09-1.17,.75,.08,1.89,.13,3.41,.13,0-.25,0-.67-.03-1.26-.03-.34-.08-.63-.16-.87,.71,.04,1.25,.12,1.64,.24,.12,.04,.18,.12,.18,.25,0,.05-.01,.1-.04,.14-.12,.24-.19,.45-.2,.63,0,.1,0,.23-.01,.39,0,.19,0,.34-.01,.44,.98-.08,1.92-.21,2.84-.39,.04,0,.07-.01,.09-.01,.08,0,.12,.06,.13,.17,.04,.3,.06,.62,.06,.95,0,.13-.05,.2-.14,.21-.94,.16-1.94,.27-3,.34v1.47c.41-.03,1.25-.14,2.56-.34,.05-.01,.08-.02,.11-.02,.06,0,.09,.04,.1,.12,.03,.5,.04,.85,.04,1.07,0,.11-.07,.17-.2,.18-.91,.15-1.76,.25-2.54,.31,.04,.88,.07,1.49,.09,1.83,1.25,.35,2.4,.87,3.45,1.57,.08,.07,.11,.13,.11,.18,0,.03,0,.07-.03,.13-.13,.36-.32,.69-.57,.96-.05,.07-.1,.1-.17,.1-.05,0-.1-.02-.15-.06-.75-.59-1.61-1.08-2.58-1.48,0,.74-.26,1.26-.75,1.57-.42,.27-1.05,.4-1.89,.4-.89,0-1.57-.19-2.05-.57-.4-.32-.6-.74-.6-1.24,0-.58,.27-1.04,.81-1.38,.47-.31,1.07-.46,1.8-.46,.42,0,.84,.02,1.24,.05Zm.03,1.23c-.43-.1-.83-.15-1.21-.15-.94,0-1.4,.23-1.4,.69,0,.39,.43,.58,1.29,.58,.58,0,.98-.13,1.18-.39,.09-.13,.14-.37,.14-.73Z"/><path class="cls-17" d="M273.6,369.58c0-.13,0-.33-.01-.6,0-.2,0-.36-.01-.48-.03-.33-.08-.64-.16-.95,.63,.04,1.14,.1,1.52,.18,.24,.04,.36,.12,.36,.25,0,.07-.04,.17-.11,.3-.05,.09-.08,.21-.11,.37,0,.06-.01,.33-.03,.83,1.16-.04,2.49-.06,3.99-.06,.08,0,.13,.01,.15,.04s.03,.08,.04,.16c0,.17,.01,.33,.01,.5s0,.33-.01,.5c0,.11-.05,.17-.17,.17h-.05c-.79-.03-1.62-.04-2.51-.04-.53,0-1.02,0-1.46,0,0,1.08,0,1.89,.01,2.42,.13,.35,.2,.78,.2,1.29,0,1.79-.77,3.18-2.32,4.2-.25,.17-.42,.25-.51,.25-.09,0-.22-.07-.39-.2-.28-.23-.61-.4-.99-.51,.79-.35,1.43-.81,1.9-1.38,.4-.47,.65-.96,.76-1.49-.24,.35-.64,.52-1.22,.52s-1.02-.2-1.35-.6c-.3-.36-.46-.83-.46-1.4,0-.63,.22-1.12,.66-1.49,.36-.3,.8-.46,1.3-.46,.46,0,.79,.09,.99,.26v-1.33c-1.89,.11-3.39,.24-4.51,.39-.1,.01-.23,.04-.39,.1-.11,.04-.19,.06-.22,.06-.11,0-.18-.06-.22-.18-.09-.22-.2-.66-.32-1.31,.13,.01,.27,.02,.41,.02,.13,0,.52-.02,1.17-.07,.7-.06,2.04-.15,4.03-.26Zm-.83,3.34c-.25,0-.45,.08-.62,.24-.17,.16-.25,.36-.25,.61,0,.3,.09,.53,.27,.69,.15,.13,.33,.2,.56,.2,.28,0,.5-.08,.66-.25,.15-.16,.23-.38,.23-.65s-.09-.49-.27-.64c-.15-.13-.34-.19-.59-.19Z"/><path class="cls-17" d="M283.06,375.63c.56,0,1.02,.21,1.4,.62,.33,.36,.49,.77,.49,1.26,0,.56-.21,1.02-.62,1.39-.36,.32-.78,.48-1.26,.48-.56,0-1.02-.21-1.4-.62-.33-.36-.49-.77-.49-1.26,0-.56,.21-1.02,.62-1.39,.36-.32,.78-.48,1.26-.48Zm0,.79c-.33,0-.59,.12-.81,.35-.18,.2-.27,.45-.27,.73,0,.33,.12,.59,.35,.81,.2,.18,.45,.27,.73,.27,.33,0,.59-.12,.81-.35,.18-.2,.27-.45,.27-.73,0-.33-.12-.59-.35-.81-.2-.18-.45-.27-.73-.27Z"/></g><g><ellipse class="cls-3" cx="198.45" cy="80.36" rx="91.9" ry="44.32"/><path class="cls-17" d="M60.4,74.92v10.54h-2.83v-9.25c-.48,.39-1.17,.72-1.87,.86l-.11-.3c1.01-.26,2.23-1.05,2.83-1.85h1.97Z"/><path class="cls-17" d="M62.06,62.78v1.67h-7.05v-.41l2.39-3.36c.89-1.25,1.73-2.48,1.73-4.07,0-1.36-.65-2.21-1.82-2.21s-2.09,.95-2.09,2.21h-.33c0-1.55,1.4-2.86,3.51-2.86s3.63,1.22,3.63,2.8-1.49,2.74-3.33,4.32l-2.2,1.9h5.56Z"/><path class="cls-17" d="M62.38,43.25c0,1.64-1.55,2.79-3.89,2.79-2.15,0-3.58-1.02-3.58-2.54h.33c0,1.13,.92,1.97,2.14,1.97,1.39,0,2.24-1.01,2.24-2.58,0-1.39-.69-2.32-1.75-2.32h-1.04v-.3h1.04c.87,0,1.46-.86,1.46-2.12,0-1.45-.74-2.38-1.97-2.38-1.13,0-1.97,.84-1.97,1.97h-.33c0-1.52,1.39-2.55,3.45-2.55s3.55,1.04,3.55,2.61c0,1.33-1.11,2.32-2.82,2.62,1.9,.29,3.13,1.36,3.13,2.83Z"/><ellipse class="cls-6" cx="196.89" cy="80.36" rx="100.37" ry="36.89"/><ellipse class="cls-5" cx="196.36" cy="80.36" rx="108.41" ry="26.38"/><line class="cls-11" x1="69.13" y1="80.36" x2="87.27" y2="80.36"/><line class="cls-7" x1="68.3" y1="59.73" x2="113.5" y2="59.73"/><line class="cls-10" x1="69.13" y1="42.46" x2="150.8" y2="42.46"/><g><path class="cls-17" d="M167.79,69.12h-15.09v5.01c0,6.02-.57,9.62-3.11,13.02l-.93-.75c1.92-3.27,2.32-6.93,2.32-12.18v-6.33c0-.33,.29-.62,.86-.62s.86,.27,.86,.62l13.66,.02c.11-.55,.53-.9,1.28-.9,.86,0,1.39,.44,1.39,1.17,0,.62-.42,.95-1.24,.95Zm.04,13.39h-6.38v3c0,1.28-.88,1.9-2.01,1.9-.75,0-1.1-.49-1.1-.93v-.27h-1.24v-1.17h2.6v-2.54h-7.02v-1.24h7.02v-.77c0-.29,.18-.6,.86-.6,.27,0,.46,.04,.6,.13l1.77-1.02h-8.27v-1.21h9.13c.22-.31,.6-.49,1.08-.49,.82,0,1.41,.53,1.41,1.21,0,.64-.55,.99-1.24,.99l-3.6,1.28v.46h5.05c.13-.57,.57-.86,1.24-.86s1.24,.38,1.24,1.15c0,.6-.33,.95-1.15,.95Zm-1.66-10.59v5.14h-1.74v-.55h-7.66v.55h-1.81v-6.66c0-.31,.2-.6,.88-.6s.91,.26,.93,.55h7.72c.11-.33,.46-.6,1.06-.6,.88,0,1.32,.62,1.32,1.12,0,.46-.31,.86-.71,1.04Zm-1.74-.46h-7.66v1.43h7.66v-1.43Zm0,2.52h-7.66v1.46h7.66v-1.46Z"/><path class="cls-17" d="M178.31,79.28l-.07,.11c-1.34,3.09-2.66,4.68-3.97,4.76-.24,.01-.5-.04-.75-.15-.53-.29-.8-.84-.82-1.66-.04-1.25,.51-2.3,1.66-3.15,.79-.62,1.8-.98,3.04-1.1,.5-1.16,1.04-2.78,1.62-4.85l-.34,.11c-.83,.32-1.43,.59-1.79,.82-.26,.07-.47,.11-.62,.11-.72,0-1.17-.65-1.36-1.94-.06-.29,0-.53,.16-.72s.36-.12,.59,.23c.32,.4,.65,.6,.99,.6,.59,0,1.23-.1,1.92-.3,.33-.06,.59-.15,.78-.28,.2-.13,.37-.19,.52-.19,.24,0,.45,.17,.62,.5,.34,.49,.52,.88,.52,1.19,0,.23-.11,.4-.32,.5-.17,.1-.55,.86-1.12,2.27-.58,1.42-.83,2.08-.78,1.99,1.49-.06,3.02,.22,4.59,.82,.14-.45,.22-.88,.22-1.29,0-.83-.37-1.39-1.12-1.66-.19-.09-.24-.24-.16-.45,.08-.22,.28-.3,.59-.26,1.62,.4,2.41,1.19,2.35,2.35-.03,.58-.18,1.23-.45,1.96,1.24,.6,2.16,1.11,2.78,1.53,.39,.3,.58,.69,.58,1.16,0,.57-.24,.88-.73,.93-.17,0-.45-.16-.84-.47-.59-.47-1.39-1.03-2.39-1.66-1.11,2.59-3.11,4.46-6.01,5.63-.39,.11-.69,.08-.91-.11-.22-.19-.17-.35,.13-.5,2.79-1.58,4.6-3.5,5.45-5.75-1.51-.79-3.03-1.14-4.55-1.06Zm-3.19,.71c-.79,.65-1.18,1.35-1.16,2.11-.01,.29,.06,.5,.22,.65,.04,.04,.09,.06,.15,.04,.79-.06,1.66-1.23,2.61-3.51-.69,.07-1.29,.31-1.81,.71Z"/><path class="cls-17" d="M202.05,73.46c.33-.04,.65-.17,.97-.39,.24-.16,.45-.24,.6-.24,.2,0,.5,.15,.89,.46,.4,.31,.57,.66,.53,1.05,0,.2-.12,.38-.34,.54-.19,.12-.45,.53-.78,1.25-.53,1.06-1.06,1.97-1.59,2.72,.68,.45,1.09,.92,1.25,1.42,.17,.75-.14,1.13-.95,1.14-.23-.01-.41-.08-.54-.19-.17-.04-.34-.18-.5-.41-.16-.24-.28-.4-.37-.47-.91,1.15-2.01,2.18-3.32,3.1-1.51,1.05-3.35,1.91-5.52,2.59-.45,.1-.74,0-.87-.28-.14-.29,0-.51,.4-.67,3.63-1.24,6.39-3.19,8.28-5.86-.53-.49-1.05-.88-1.55-1.16-.24-.17-.29-.37-.15-.58,.14-.22,.38-.27,.71-.17,.6,.23,1.19,.5,1.77,.8,.72-1.11,1.29-2.28,1.7-3.51l-1.72,.13c-.65,.01-1.06,0-1.23-.06-1.42,2.16-3.41,3.92-5.97,5.3-.46,.19-.79,.16-.98-.08-.19-.24-.1-.46,.29-.68,1.92-1.15,3.48-2.61,4.68-4.38,.8-1.16,1.22-1.95,1.25-2.37,.01-.22-.23-.37-.73-.45-.27-.04-.39-.19-.34-.44,.04-.25,.32-.38,.82-.4,1.55,.06,2.31,.47,2.26,1.23-.01,.29-.21,.71-.58,1.27,.13-.01,.67-.08,1.64-.19Z"/><path class="cls-17" d="M219.24,77.02c.21,.4,.29,.8,.23,1.19-.06,.39-.1,.68-.1,.88,0,2.93,.05,4.53,.15,4.81,.01,.2,.02,.42,.02,.67,0,.7-.14,1.24-.41,1.6-.21,.29-.46,.43-.73,.43-.5,0-.75-.37-.75-1.12,0-.22,0-.41,.02-.58,.16-1.06,.24-3.33,.24-6.81-2.24,1.93-4.8,3.28-7.67,4.05-.58,.16-.97,.09-1.19-.2s-.03-.56,.56-.81c3.66-1.36,6.62-3.3,8.88-5.82,1.38-1.58,2.07-2.59,2.07-3.04,0-.22-.13-.39-.39-.52-.34-.14-.45-.33-.32-.55,.13-.22,.36-.3,.69-.23,1.48,.36,2.22,.91,2.22,1.64,0,.23-.18,.57-.54,1.01-.96,1.28-1.95,2.41-2.97,3.41Z"/><path class="cls-17" d="M228.97,72.9c.5,.5,1.14,.75,1.92,.75,2.38,0,4.73-.15,7.03-.45,.03-.01,.12-.02,.26-.02,.24-.03,.49-.14,.73-.32,.19-.11,.35-.17,.5-.17,.32,0,.67,.19,1.08,.56,.29,.29,.45,.56,.47,.82,.04,.23-.08,.44-.37,.62-.1,.09-.25,.34-.45,.78-.98,2.69-2.44,4.98-4.39,6.89-1.95,1.9-4.51,3.25-7.68,4.04-.47,.13-.77,.03-.87-.29-.11-.32,.03-.56,.42-.72,3.13-1.02,5.6-2.59,7.4-4.7,1.8-2.11,3.01-4.23,3.61-6.36-3.78,.4-6.29,.73-7.54,.97-.17,.03-.34,.04-.52,.04-.99,0-1.72-.53-2.2-1.59-.16-.4-.15-.72,.03-.96,.18-.24,.37-.2,.57,.12Zm13.75-3.45c.37,0,.71,.09,1.01,.26,.72,.4,1.08,1.01,1.08,1.81,0,.37-.09,.7-.28,.99-.37,.72-.98,1.08-1.81,1.08-.46,0-.87-.14-1.23-.41-.55-.42-.82-.97-.82-1.66,0-.57,.21-1.08,.62-1.51,.42-.37,.89-.56,1.42-.56Zm.02,.97c-.22,0-.42,.06-.6,.17-.34,.19-.52,.5-.52,.93,0,.27,.09,.52,.28,.75,.22,.24,.49,.37,.82,.37,.2,0,.38-.04,.54-.13,.39-.2,.58-.53,.58-.99,0-.3-.12-.55-.34-.75-.21-.23-.47-.34-.75-.34Z"/></g></g><g><g class="cls-16"><g><path class="cls-14" d="M142.98,239.81c-1.14-10.55-4.53-22.36-4.34-25.28,.14-2.1,2.15-11.81,3.09-19.68,.53-4.45,.79-8.78,.68-10.42-.17-2.36,.41-2.96-1.25-8.22-.54-1.7-3.67-7.71-3.77-8.35-.43-2.72-.63-4.95-.71-6.09-.03-.45-.42-.78-.87-.74l-12.01,1.1c-.32,.03-.6,.25-.69,.56l-1.56,5.08s-.02,.07-.04,.1l-3.15,6.86s-.04,.08-.07,.12c-.2,.29-1.16,1.66-2.3,3.28-.02,.02-.03,.05-.05,.07-.44,.5-5.94,6.81-6.45,9.93-.46,2.83,2.15,8.29,2.84,9.66,.02,.03,.03,.06,.04,.09,.12,.35,.24,.75,.35,1.18,0,.04,.02,.07,.02,.11,.02,.16,.04,.34,.09,.53,.48,1.96,.8,7.32,.87,13.1,0,.02,0,.04,0,.06,.03,2.81,0,5.73-.09,8.4-.26,7.25-2.18,13.71-2.18,17.57,0,5.88,.56,12.77,.4,16.5-.14,3.19,.79,12.67,1.06,15.35,.04,.41,.38,.72,.79,.72h20.82c.39,0,.73-.29,.79-.67,.31-2,1.25-7.85,1.9-9.68-.42,1.2,6.95-10.72,5.81-21.27Z"/><g class="cls-18"><path class="cls-13" d="M142.98,239.81c-1.14-10.55-4.53-22.36-4.34-25.28,.14-2.1,2.15-11.81,3.09-19.68,.53-4.45,.79-8.78,.68-10.42-.17-2.36,.41-2.96-1.25-8.22-.54-1.7-3.67-7.71-3.77-8.35-.43-2.72-.63-4.95-.71-6.09-.03-.45-.42-.78-.87-.74l-12.01,1.1c-.32,.03-.6,.25-.69,.56l-1.56,5.08s-.02,.07-.04,.1l-3.15,6.86s-.04,.08-.07,.12c-.2,.29-1.16,1.66-2.3,3.28-.02,.02-.03,.05-.05,.07-.44,.5-5.94,6.81-6.45,9.93-.46,2.83,2.15,8.29,2.84,9.66,.02,.03,.03,.06,.04,.09,.12,.35,.24,.75,.35,1.18,0,.04,.02,.07,.02,.11,.02,.16,.04,.34,.09,.53,.48,1.96,.8,7.32,.87,13.1,0,.02,0,.04,0,.06,.03,2.81,0,5.73-.09,8.4-.26,7.25-2.18,13.71-2.18,17.57,0,5.88,.56,12.77,.4,16.5-.14,3.19,.79,12.67,1.06,15.35,.04,.41,.38,.72,.79,.72h20.82c.39,0,.73-.29,.79-.67,.31-2,1.25-7.85,1.9-9.68-.42,1.2,6.95-10.72,5.81-21.27Z"/></g></g></g><path class="cls-15" d="M98.72,244.58c-.12-3.65-2.83-8.59-3.41-10.13-.59-1.53-2.12-9.66-1.81-11.83,.3-2.17,2.52-24.79,3.48-29.38,.95-4.59,.22-14.83,0-16.84-.21-1.85-5.53-10.06-6.36-11.32-.07-.11-.11-.23-.13-.36-.19-1.78-.35-3.33-.45-4.27-.05-.49-.53-.83-1.01-.71l-14.04,3.53c-.31,.08-.54,.33-.6,.64-.19,1-.59,3.18-.63,4.1,0,.1-.03,.2-.07,.29-.82,1.79-8.73,19.01-8.87,21.32-.15,2.43-.65,21.6-.65,21.6h0c-.52,8.63-1.34,23.47-1.08,28.03,.2,3.44,1.15,8.46,2.02,12.46,0,.05,.02,.09,.02,.14,.04,.98,.26,1.38,.26,1.7,0,2.59,2.02,5.26,2.02,6.8v11.55c0,.45,.37,.82,.82,.82h23.2c.44,0,.81-.35,.82-.8,.03-1.57,.12-5.03,.3-6.23,.24-1.57,2.98-6.75,4.45-10.52,1.46-3.77,1.87-6.95,1.75-10.6Z"/><line class="cls-2" x1="64.3" y1="247.9" x2="98.65" y2="247.9"/><line class="cls-2" x1="68.87" y1="178.83" x2="97.1" y2="178.83"/><path class="cls-8" d="M296.99,217.81h-1.88v-.45h1.88v.45Zm-3.75,0h-1.88v-.45h1.88v.45Zm-3.75,0h-1.88v-.45h1.88v.45Zm-3.75,0h-1.88v-.45h1.88v.45Zm-3.75,0h-1.88v-.45h1.88v.45Zm-3.75,0h-1.88v-.45h1.88v.45Zm-3.75,0h-1.88v-.45h1.88v.45Zm-3.75,0h-1.88v-.45h1.88v.45Zm-3.75,0h-1.88v-.45h1.88v.45Zm-3.75,0h-1.88v-.45h1.88v.45Zm-3.75,0h-1.88v-.45h1.88v.45Zm-3.75,0h-1.88v-.45h1.88v.45Zm-3.75,0h-1.88v-.45h1.88v.45Zm-3.75,0h-1.88v-.45h1.88v.45Zm-3.75,0h-1.88v-.45h1.88v.45Zm-3.75,0h-1.88v-.45h1.88v.45Zm-3.75,0h-1.88v-.45h1.88v.45Zm-3.75,0h-1.88v-.45h1.88v.45Zm-3.75,0h-1.88v-.45h1.88v.45Zm-3.75,0h-1.88v-.45h1.88v.45Zm-3.75,0h-1.88v-.45h1.88v.45Zm-3.75,0h-1.88v-.45h1.88v.45Zm-3.75,0h-1.88v-.45h1.88v.45Zm-3.75,0h-1.88v-.45h1.88v.45Zm-3.75,0h-1.88v-.45h1.88v.45Zm-3.75,0h-1.88v-.45h1.88v.45Zm-3.75,0h-1.88v-.45h1.88v.45Zm-3.75,0h-1.88v-.45h1.88v.45Zm-3.75,0h-1.88v-.45h1.88v.45Zm-3.75,0h-1.88v-.45h1.88v.45Zm-3.75,0h-1.88v-.45h1.88v.45Zm-3.75,0h-1.88v-.45h1.88v.45Zm-3.75,0h-1.88v-.45h1.88v.45Zm-3.75,0h-1.88v-.45h1.88v.45Zm-3.75,0h-1.88v-.45h1.88v.45Zm-3.75,0h-1.88v-.45h1.88v.45Zm-3.75,0h-1.88v-.45h1.88v.45Zm-3.75,0h-1.88v-.45h1.88v.45Zm-3.75,0h-1.88v-.45h1.88v.45Zm-3.75,0h-1.88v-.45h1.88v.45Zm-3.75,0h-1.88v-.45h1.88v.45Zm-3.75,0h-1.88v-.45h1.88v.45Zm-3.75,0h-1.88v-.45h1.88v.45Zm-3.75,0h-1.88v-.45h1.88v.45Zm-3.75,0h-1.88v-.45h1.88v.45Zm-3.75,0h-1.88v-.45h1.88v.45Zm-3.75,0h-1.88v-.45h1.88v.45Zm-3.75,0h-1.88v-.45h1.88v.45Zm-3.75,0h-1.88v-.45h1.88v.45Zm-3.75,0h-1.88v-.45h1.88v.45Zm-3.75,0h-1.88v-.45h1.88v.45Zm-3.75,0h-1.88v-.45h1.88v.45Zm-3.75,0h-1.88v-.45h1.88v.45Zm-3.75,0h-1.88v-.45h1.88v.45Zm-3.75,0h-1.88v-.45h1.88v.45Zm-3.75,0h-1.88v-.45h1.88v.45Zm-3.75,0h-1.88v-.45h1.88v.45Zm-3.75,0h-1.88v-.45h1.88v.45Zm-3.75,0h-1.88v-.45h1.88v.45Zm-3.75,0h-1.88v-.45h1.88v.45Zm-3.75,0h-1.88v-.45h1.88v.45Zm-3.75,0h-1.88v-.45h1.88v.45Zm-3.75,0h-1.88v-.45h1.88v.45Z"/><g><path class="cls-4" d="M150.85,268.85h-.45v-.55h.45v.55Zm0-2.44h-.45v-1.89h.45v1.89Zm0-3.78h-.45v-1.89h.45v1.89Zm0-3.78h-.45v-1.89h.45v1.89Zm0-3.78h-.45v-1.89h.45v1.89Zm0-3.78h-.45v-1.89h.45v1.89Zm0-3.78h-.45v-1.89h.45v1.89Zm0-3.78h-.45v-1.89h.45v1.89Zm0-3.78h-.45v-1.89h.45v1.89Zm0-3.78h-.45v-1.89h.45v1.89Zm0-3.78h-.45v-1.89h.45v1.89Zm0-3.78h-.45v-1.89h.45v1.89Zm0-3.78h-.45v-1.89h.45v1.89Zm0-3.78h-.45v-1.89h.45v1.89Zm0-3.78h-.45v-1.89h.45v1.89Zm0-3.78h-.45v-1.89h.45v1.89Zm0-3.78h-.45v-1.89h.45v1.89Zm0-3.78h-.45v-1.89h.45v1.89Zm0-3.78h-.45v-1.89h.45v1.89Zm0-3.78h-.45v-1.89h.45v1.89Zm0-3.78h-.45v-1.89h.45v1.89Zm0-3.78h-.45v-1.89h.45v1.89Zm0-3.78h-.45v-1.89h.45v1.89Zm0-3.78h-.45v-1.89h.45v1.89Zm0-3.78h-.45v-1.89h.45v1.89Zm0-3.78h-.45v-1.89h.45v1.89Zm0-3.78h-.45v-1.89h.45v1.89Zm0-3.78h-.45v-1.89h.45v1.89Z"/><path class="cls-4" d="M199.75,268.85h-.45v-.55h.45v.55Zm0-2.44h-.45v-1.89h.45v1.89Zm0-3.78h-.45v-1.89h.45v1.89Zm0-3.78h-.45v-1.89h.45v1.89Zm0-3.78h-.45v-1.89h.45v1.89Zm0-3.78h-.45v-1.89h.45v1.89Zm0-3.78h-.45v-1.89h.45v1.89Zm0-3.78h-.45v-1.89h.45v1.89Zm0-3.78h-.45v-1.89h.45v1.89Zm0-3.78h-.45v-1.89h.45v1.89Zm0-3.78h-.45v-1.89h.45v1.89Zm0-3.78h-.45v-1.89h.45v1.89Zm0-3.78h-.45v-1.89h.45v1.89Zm0-3.78h-.45v-1.89h.45v1.89Zm0-3.78h-.45v-1.89h.45v1.89Zm0-3.78h-.45v-1.89h.45v1.89Zm0-3.78h-.45v-1.89h.45v1.89Zm0-3.78h-.45v-1.89h.45v1.89Zm0-3.78h-.45v-1.89h.45v1.89Zm0-3.78h-.45v-1.89h.45v1.89Zm0-3.78h-.45v-1.89h.45v1.89Zm0-3.78h-.45v-1.89h.45v1.89Zm0-3.78h-.45v-1.89h.45v1.89Zm0-3.78h-.45v-1.89h.45v1.89Zm0-3.78h-.45v-1.89h.45v1.89Zm0-3.78h-.45v-1.89h.45v1.89Zm0-3.78h-.45v-1.89h.45v1.89Zm0-3.78h-.45v-1.89h.45v1.89Z"/><path class="cls-4" d="M248.65,268.85h-.45v-.55h.45v.55Zm0-2.44h-.45v-1.89h.45v1.89Zm0-3.78h-.45v-1.89h.45v1.89Zm0-3.78h-.45v-1.89h.45v1.89Zm0-3.78h-.45v-1.89h.45v1.89Zm0-3.78h-.45v-1.89h.45v1.89Zm0-3.78h-.45v-1.89h.45v1.89Zm0-3.78h-.45v-1.89h.45v1.89Zm0-3.78h-.45v-1.89h.45v1.89Zm0-3.78h-.45v-1.89h.45v1.89Zm0-3.78h-.45v-1.89h.45v1.89Zm0-3.78h-.45v-1.89h.45v1.89Zm0-3.78h-.45v-1.89h.45v1.89Zm0-3.78h-.45v-1.89h.45v1.89Zm0-3.78h-.45v-1.89h.45v1.89Zm0-3.78h-.45v-1.89h.45v1.89Zm0-3.78h-.45v-1.89h.45v1.89Zm0-3.78h-.45v-1.89h.45v1.89Zm0-3.78h-.45v-1.89h.45v1.89Zm0-3.78h-.45v-1.89h.45v1.89Zm0-3.78h-.45v-1.89h.45v1.89Zm0-3.78h-.45v-1.89h.45v1.89Zm0-3.78h-.45v-1.89h.45v1.89Zm0-3.78h-.45v-1.89h.45v1.89Zm0-3.78h-.45v-1.89h.45v1.89Zm0-3.78h-.45v-1.89h.45v1.89Zm0-3.78h-.45v-1.89h.45v1.89Zm0-3.78h-.45v-1.89h.45v1.89Z"/><path class="cls-4" d="M297.55,268.85h-.45v-.55h.45v.55Zm0-2.44h-.45v-1.89h.45v1.89Zm0-3.78h-.45v-1.89h.45v1.89Zm0-3.78h-.45v-1.89h.45v1.89Zm0-3.78h-.45v-1.89h.45v1.89Zm0-3.78h-.45v-1.89h.45v1.89Zm0-3.78h-.45v-1.89h.45v1.89Zm0-3.78h-.45v-1.89h.45v1.89Zm0-3.78h-.45v-1.89h.45v1.89Zm0-3.78h-.45v-1.89h.45v1.89Zm0-3.78h-.45v-1.89h.45v1.89Zm0-3.78h-.45v-1.89h.45v1.89Zm0-3.78h-.45v-1.89h.45v1.89Zm0-3.78h-.45v-1.89h.45v1.89Zm0-3.78h-.45v-1.89h.45v1.89Zm0-3.78h-.45v-1.89h.45v1.89Zm0-3.78h-.45v-1.89h.45v1.89Zm0-3.78h-.45v-1.89h.45v1.89Zm0-3.78h-.45v-1.89h.45v1.89Zm0-3.78h-.45v-1.89h.45v1.89Zm0-3.78h-.45v-1.89h.45v1.89Zm0-3.78h-.45v-1.89h.45v1.89Zm0-3.78h-.45v-1.89h.45v1.89Zm0-3.78h-.45v-1.89h.45v1.89Zm0-3.78h-.45v-1.89h.45v1.89Zm0-3.78h-.45v-1.89h.45v1.89Zm0-3.78h-.45v-1.89h.45v1.89Zm0-3.78h-.45v-1.89h.45v1.89Z"/></g><path class="cls-17" d="M176.7,143.95v12.53h-3.37v-10.99c-.57,.47-1.4,.86-2.22,1.02l-.12-.36c1.2-.3,2.65-1.25,3.37-2.2h2.34Z"/><path class="cls-17" d="M227.3,154.49v1.99h-8.38v-.48l2.85-3.99c1.06-1.49,2.06-2.95,2.06-4.83,0-1.61-.77-2.63-2.17-2.63s-2.49,1.13-2.49,2.63h-.39c0-1.84,1.66-3.4,4.17-3.4s4.31,1.45,4.31,3.33-1.77,3.26-3.96,5.14l-2.61,2.26h6.6Z"/><path class="cls-17" d="M276.63,153.34c0,1.95-1.84,3.31-4.62,3.31-2.56,0-4.26-1.22-4.26-3.02h.39c0,1.34,1.09,2.34,2.54,2.34,1.65,0,2.67-1.2,2.67-3.06,0-1.65-.82-2.76-2.08-2.76h-1.24v-.36h1.24c1.04,0,1.74-1.02,1.74-2.52,0-1.72-.88-2.83-2.34-2.83-1.34,0-2.34,1-2.34,2.34h-.39c0-1.81,1.65-3.02,4.1-3.02s4.22,1.23,4.22,3.1c0,1.57-1.32,2.76-3.35,3.11,2.25,.34,3.72,1.61,3.72,3.36Z"/><g><path class="cls-17" d="M75.65,180.26v-7.57h3.37v7.86c0,2.42,1.38,3.9,3.63,3.9s3.53-1.49,3.53-3.9v-7.86h.43v7.96c0,2.86-1.84,4.74-5.08,4.74s-5.87-2.04-5.87-5.14Z"/><path class="cls-17" d="M100.98,180.74c0,2.65-1.65,4.65-3.83,4.65-1.11,0-2.13-.54-2.76-1.38v5.14h-3.37v-12.46l3.37-.52v1.36c.59-.88,1.65-1.45,2.79-1.45,2.17,0,3.79,2,3.79,4.65Zm-3.44,0c0-2.22-.68-3.71-1.65-3.71-.61,0-1.16,.5-1.5,1.29v4.94c.34,.73,.86,1.18,1.43,1.18,1.04,0,1.72-1.47,1.72-3.71Z"/><path class="cls-17" d="M114.82,180.74c0,2.65-1.65,4.65-3.83,4.65-1.11,0-2.13-.54-2.76-1.38v5.14h-3.37v-12.46l3.37-.52v1.36c.59-.88,1.65-1.45,2.79-1.45,2.17,0,3.79,2,3.79,4.65Zm-3.44,0c0-2.22-.68-3.71-1.65-3.71-.61,0-1.16,.5-1.5,1.29v4.94c.34,.73,.86,1.18,1.43,1.18,1.04,0,1.72-1.47,1.72-3.71Z"/><path class="cls-17" d="M126.92,183.44h.41c-.55,1.16-2.08,1.95-3.85,1.95-3.08,0-5.26-2-5.26-4.67s2.15-4.64,4.83-4.64,4.55,1.93,4.55,4.51h-5.94c.05,2.92,1.04,4.22,2.77,4.22,1.04,0,1.97-.5,2.49-1.38Zm-5.26-3.2h2.83c-.04-2.4-.54-3.79-1.36-3.79-.91,0-1.45,1.63-1.47,3.79Z"/><path class="cls-17" d="M139.26,178.15h-.38c0-1-.66-1.66-1.65-1.66-1.09,0-1.99,.79-2.36,2.04v6.69h-3.37v-8.52l3.37-.52v1.52c.46-1,1.31-1.61,2.34-1.61,1.23,0,2.04,.82,2.04,2.06Z"/><path class="cls-17" d="M92.23,201.71c0,2.65-1.65,4.65-3.83,4.65-1.11,0-2.13-.54-2.76-1.38v1.2h-3.37v-12.55l3.37-.52v5.39c.59-.88,1.65-1.45,2.79-1.45,2.17,0,3.79,2,3.79,4.65Zm-3.44,0c0-2.22-.68-3.71-1.65-3.71-.61,0-1.16,.5-1.5,1.29v4.94c.34,.73,.86,1.18,1.43,1.18,1.04,0,1.72-1.47,1.72-3.71Z"/><path class="cls-17" d="M95.63,201.71c0-2.65,2.15-4.65,4.98-4.65s4.98,2,4.98,4.65-2.13,4.65-4.98,4.65-4.98-2-4.98-4.65Zm6.52,0c0-2.72-.57-4.3-1.54-4.3s-1.54,1.58-1.54,4.3,.57,4.3,1.54,4.3,1.54-1.57,1.54-4.3Z"/><path class="cls-17" d="M118.96,193.12v13.07h-3.37v-1.2c-.63,.84-1.65,1.38-2.76,1.38-2.18,0-3.83-2-3.83-4.65s1.63-4.65,3.79-4.65c1.15,0,2.2,.57,2.79,1.45v-4.87l3.37-.52Zm-3.37,11.11v-4.94c-.34-.79-.89-1.29-1.49-1.29-.98,0-1.67,1.49-1.67,3.71s.7,3.71,1.72,3.71c.57,0,1.09-.45,1.43-1.18Z"/><path class="cls-17" d="M131.27,197.23l-5.1,11.65c-.54,1.18-1.29,1.41-2.15,1.41-1.02,0-1.92-.77-1.92-1.7h.38c0,.75,.72,1.34,1.54,1.34,.68,0,1.32-.21,1.68-1.06l.95-2.18-4.15-9.47h3.56l2.33,5.46,2.38-5.46h.5Z"/></g><g><path class="cls-17" d="M85.76,242.33v.36h-9.02v-12.53h3.37v12.17h5.66Z"/><path class="cls-17" d="M88.99,238.21c0-2.65,2.15-4.65,4.98-4.65s4.98,2,4.98,4.65-2.13,4.65-4.98,4.65-4.98-2-4.98-4.65Zm6.52,0c0-2.72-.57-4.3-1.54-4.3s-1.54,1.58-1.54,4.3,.57,4.3,1.54,4.3,1.54-1.58,1.54-4.3Z"/><path class="cls-17" d="M116.52,233.74l-3.92,8.95h-1.09l-2.25-5.16-2.26,5.16h-1.09l-3.92-8.95h3.56l2.42,5.62,1.04-2.38-1.41-3.24h3.56l2.42,5.6,2.45-5.6h.5Z"/><path class="cls-17" d="M127.92,240.91h.41c-.55,1.16-2.08,1.95-3.85,1.95-3.08,0-5.26-2-5.26-4.67s2.15-4.64,4.83-4.64,4.55,1.93,4.55,4.51h-5.94c.05,2.92,1.04,4.22,2.77,4.22,1.04,0,1.97-.5,2.49-1.38Zm-5.26-3.2h2.83c-.04-2.4-.54-3.79-1.36-3.79-.91,0-1.45,1.63-1.47,3.79Z"/><path class="cls-17" d="M140.26,235.62h-.38c0-1-.66-1.66-1.65-1.66-1.09,0-1.99,.79-2.36,2.04v6.69h-3.37v-8.52l3.37-.52v1.52c.46-1,1.31-1.61,2.34-1.61,1.23,0,2.04,.82,2.04,2.06Z"/><path class="cls-17" d="M93.19,255.67c0,2.65-1.65,4.65-3.83,4.65-1.11,0-2.13-.54-2.76-1.38v1.2h-3.37v-12.55l3.37-.52v5.39c.59-.88,1.65-1.45,2.79-1.45,2.17,0,3.79,2,3.79,4.65Zm-3.44,0c0-2.22-.68-3.71-1.65-3.71-.61,0-1.16,.5-1.5,1.29v4.94c.34,.73,.86,1.18,1.43,1.18,1.04,0,1.72-1.47,1.72-3.71Z"/><path class="cls-17" d="M96.6,255.67c0-2.65,2.15-4.65,4.98-4.65s4.98,2,4.98,4.65-2.13,4.65-4.98,4.65-4.98-2-4.98-4.65Zm6.52,0c0-2.72-.57-4.3-1.54-4.3s-1.54,1.58-1.54,4.3,.57,4.3,1.54,4.3,1.54-1.58,1.54-4.3Z"/><path class="cls-17" d="M119.92,247.08v13.07h-3.37v-1.2c-.63,.84-1.65,1.38-2.76,1.38-2.18,0-3.83-2-3.83-4.65s1.63-4.65,3.79-4.65c1.15,0,2.2,.57,2.79,1.45v-4.87l3.37-.52Zm-3.37,11.12v-4.94c-.34-.79-.89-1.29-1.49-1.29-.98,0-1.67,1.49-1.67,3.71s.7,3.71,1.72,3.71c.57,0,1.09-.45,1.43-1.18Z"/><path class="cls-17" d="M132.24,251.19l-5.1,11.65c-.54,1.18-1.29,1.41-2.15,1.41-1.02,0-1.92-.77-1.92-1.7h.38c0,.75,.72,1.34,1.54,1.34,.68,0,1.32-.21,1.68-1.06l.95-2.18-4.15-9.47h3.56l2.33,5.46,2.38-5.46h.5Z"/></g><path class="cls-9" d="M210.34,205.56c.91,.31,10.07,.25,11.34,0,.04,0,.08-.01,.12-.02,.53-.09,1.07-.09,1.6,0,.04,0,.08,.01,.12,.02,1.27,.25,10.43,.31,11.34,0,.91-.31,6.32-1.64,5.56-5.82-.64-3.51-1-6.81-1.78-8.14h0s-3.58-7.32-7.69-7.93c-4.12-.61-7.25,1.31-8.23,1.68,0,0-.02,0-.02,0,0,0-.02,0-.02,0-.98-.37-4.12-2.29-8.23-1.68-3.54,.52-6.78,6.01-7.61,7.52-.05,.09-.11,.17-.17,.26-.85,1.21-1.22,4.65-1.88,8.3-.76,4.19,4.65,5.51,5.56,5.82Z"/><path class="cls-9" d="M162.16,203.23c.5,.16,3.55,.21,6.38,.19,2.27-.02,4.39-.09,4.96-.19,.04,0,.08-.01,.12-.02,.53-.08,1.07-.08,1.6,0,.04,0,.08,.01,.12,.02,1.27,.23,10.43,.28,11.34,0,.91-.28,6.32-1.48,5.56-5.26-.42-2.06-1.32-3.99-2.12-5.43-.23-.51-.61-1.14-1.1-1.81,0,0,0,0,0,0h0c-1.47-2.03-3.91-4.41-6.26-4.73-4.12-.55-7.25,1.18-8.23,1.52,0,0-.02,0-.02,0,0,0-.02,0-.02,0-.98-.34-4.12-2.07-8.23-1.52-2.33,.31-4.52,2.56-5.99,4.45h0c-.92,.98-2.98,4.11-3.67,7.53-.76,3.78,4.65,4.98,5.56,5.26Z"/><path class="cls-9" d="M157.36,240.45c-.18,3.2,1.45,4.28,3.36,6.18,1.91,1.9,5.1,3.37,6.57,3.67,1.47,.3,4.7,.3,6.57-.56,.22-.1,.4-.18,.57-.23,.16,.06,.35,.13,.57,.23,1.86,.86,5.1,.86,6.57,.56,1.47-.3,4.65-1.77,6.57-3.67,1.91-1.9,3.54-2.98,3.36-6.18-.02-.36-.48-1.01-.9-1.63-.2-.4-.42-.79-.67-1.15,0,0,0,0,0,0h0c-1.05-1.52-2.57-2.69-4.39-2.77-2.31-.11-4.95,.37-7.14,.64-1.25-.19-2.96-.37-3.91-.32-.96-.05-2.7,.14-3.95,.33-2.21-.26-4.87-.75-7.2-.64-1.69,.08-3.11,1.08-4.15,2.44,0,0,0,0,0,0,0,0,0,0,0,0-.31,.41-.59,.85-.83,1.31-.47,.64-.95,1.3-.98,1.79Z"/><path class="cls-9" d="M208.89,247.33c1.91,2.1,5.1,3.72,6.57,4.05,1.47,.33,4.7,.33,6.57-.62,.22-.11,.4-.19,.57-.26,.16,.06,.35,.15,.57,.26,1.86,.95,5.1,.95,6.57,.62,1.47-.33,4.65-1.96,6.57-4.05,1.91-2.1,3.54-3.29,3.36-6.82-.18-3.53-2.53-8.16-5.96-8.35-2.39-.13-5.14,.48-7.38,.78-1.16-.25-3.6-.62-4.81-.55-.94-.05-2.61,.15-3.86,.37-1.97-.31-4.18-.7-6.14-.59-3.43,.19-5.78,4.82-5.96,8.35-.18,3.53,1.45,4.72,3.36,6.82Z"/><path class="cls-9" d="M255.88,242.25c-.18,3.69,1.45,4.94,3.36,7.13,1.91,2.19,5.1,3.89,6.57,4.24,1.47,.35,4.7,.35,6.57-.65,.22-.12,.4-.2,.57-.27,.16,.07,.35,.15,.57,.27,1.86,1,5.1,1,6.57,.65,1.47-.35,4.65-2.04,6.57-4.24,1.91-2.19,3.54-3.44,3.36-7.13-.04-.72,.11-2.82-.09-3.59h0c-.02-.36-.09-.79-.26-1.3-.8-3.15-2.85-6.31-5.61-6.47-2.03-.12-4.32,.32-6.34,.65-1.18-.26-3.57-.64-4.76-.56-1.19-.07-3.58,.3-4.76,.56-2.02-.33-4.31-.77-6.34-.65-2.51,.15-4.44,2.77-5.37,5.62-.29,.89-.4,1.74-.43,2.38h0c-.34,1.04-.11,2.37-.16,3.36Z"/><path class="cls-12" d="M255.16,198.76c-.05,.53-.08,1.09-.08,1.69,0,.23,.02,.45,.04,.67,0,.03,0,.04,0,.04h0c.45,4.15,4.66,5.01,5.52,5.32,.5,.18,3.55,.24,6.38,.21,2.27-.02,4.39-.1,4.96-.21,.21-.04,.51-.08,.86-.11,.04,0,.07,0,.11,0,.35,.03,.65,.06,.86,.11,1.27,.26,10.43,.33,11.34,0,.84-.3,5.56-1.5,5.63-5.13v.02s0-.05,0-.13h0c0-.77-.03-4.71-.44-7.22-.25-1.55-.99-3.26-1.61-4.47-.06-.14-.09-.22-.12-.27h0s-.03-.05-.04-.08c0,0,0,0,0,0h0c-.19-.34-.43-.75-.71-1.21-.02-.03-.03-.05-.03-.05h0c-1.42-2.28-3.92-5.64-6.61-6.05-4.12-.63-7.25,1.36-8.23,1.74,0,0-.02,0-.02,0,0,0-.02,0-.02,0-.98-.39-4.12-2.37-8.23-1.74-2.69,.41-5.19,3.77-6.61,6.05h0s-.29,.45-.68,1.15c-.02,.03-.03,.06-.05,.08h0s-.05,.04-.19,.35c-.64,1.21-1.42,2.93-1.67,4.5-.23,1.44-.33,3.3-.38,4.76Z"/></g><rect class="cls-20" x="21.76" y="305.07" width="141.59" height="7.62" rx="3.81" ry="3.81"/><g><path class="cls-19" d="M22.04,308.28c.69-1.11,1.15-2.38,1.38-3.81,.24-1.41,.36-3.29,.36-5.66l-.03-3.59c0-.1,.01-.16,.03-.18,.02-.02,.07-.02,.15-.02l2.3,.03h8.87l2.27-.03c.08,0,.13,.01,.15,.04,.02,.02,.02,.07,.02,.16v1.17c0,.13-.06,.19-.17,.19l-2.27-.02h-9.57v2.27c0,2.51-.14,4.61-.42,6.29-.25,1.43-.71,2.81-1.38,4.13-.12,.22-.21,.32-.27,.32-.07,0-.19-.1-.34-.31-.35-.44-.71-.77-1.07-.99Zm6-1.36l-2.35,.03c-.11,0-.17-.06-.17-.18v-1.05c0-.12,.06-.18,.17-.18l2.35,.03h2.75c0-.06-.01-.17-.03-.36-.02-.14-.03-.25-.03-.35,.19,.02,.47,.04,.82,.07,.49-.23,.96-.5,1.41-.83h-3.79l-2.27,.03c-.09,0-.14-.01-.16-.03-.02-.02-.03-.07-.03-.15v-.95c0-.1,.01-.16,.03-.18,.02-.02,.07-.03,.15-.03l2.27,.03h5.34c.08,0,.17-.01,.26-.03,.13-.03,.21-.05,.22-.05,.14,0,.36,.11,.65,.34,.3,.23,.45,.4,.45,.49,0,.11-.07,.19-.22,.24-.15,.08-.31,.17-.47,.29-.81,.5-1.69,.99-2.62,1.47h2.46l2.33-.03c.09,0,.14,.01,.16,.03,.02,.02,.03,.07,.03,.15v1.05c0,.08,0,.13-.03,.15s-.07,.03-.15,.03l-2.33-.03h-2.69v.13l.03,1.28c0,.52-.17,.91-.51,1.16-.35,.26-1.16,.39-2.42,.39-.25,0-.41-.02-.46-.06-.04-.03-.08-.14-.12-.33-.14-.54-.29-.94-.46-1.2,.64,.06,1.17,.09,1.57,.09,.28,0,.46-.05,.55-.15,.07-.08,.11-.23,.11-.45v-.87h-2.76Zm5.57-9.59l2.24-.03c.09,0,.15,.01,.17,.03,.02,.03,.02,.09,.02,.17l-.03,1.34v1.65l.03,1.36c0,.09-.01,.14-.03,.16-.02,.02-.07,.03-.16,.03l-2.24-.03h-4.25l-2.22,.03c-.09,0-.15-.01-.17-.03-.02-.02-.03-.07-.03-.15l.03-1.36v-1.65l-.03-1.34c0-.1,.01-.16,.03-.18,.02-.02,.08-.02,.17-.02l2.22,.03h4.25Zm.71,1.09h-5.71v.71h5.71v-.71Zm0,2.5v-.73h-5.71v.73h5.71Z"/><path class="cls-19" d="M50.77,302.27c.18-.84,.3-1.57,.36-2.19,.02-.17,.03-.33,.03-.49,0-.2-.01-.42-.04-.66,.89,.22,1.55,.46,1.97,.73,.12,.07,.17,.16,.17,.29,0,.07-.02,.12-.05,.17-.17,.35-.26,.58-.27,.66-.1,.54-.26,1.27-.47,2.19,1.01,.51,1.89,1.06,2.65,1.64,.09,.05,.14,.11,.14,.18,0,.04-.01,.1-.03,.17-.22,.53-.46,1.01-.73,1.46-.05,.08-.1,.12-.16,.12s-.12-.04-.2-.12c-.74-.64-1.48-1.17-2.23-1.6-.47,1.06-.98,1.94-1.54,2.64-.5,.64-1.14,1.25-1.9,1.83-.16,.13-.27,.19-.34,.19-.05,0-.14-.04-.25-.12-.38-.31-.88-.54-1.49-.71,1.09-.76,1.95-1.55,2.58-2.37,.5-.66,.91-1.41,1.23-2.24-.98-.5-2.1-.84-3.36-1.04-.82,1.71-1.52,2.84-2.08,3.4-.59,.63-1.32,.94-2.17,.94-.6,0-1.08-.21-1.46-.62-.38-.42-.56-.99-.56-1.71,0-1.13,.54-2.07,1.63-2.8,.94-.64,2.07-.96,3.39-.96,.56-1.41,1.04-2.75,1.41-4.03-.76,.08-1.54,.17-2.34,.27-.29,.04-.54,.1-.77,.19-.11,.04-.21,.07-.31,.07-.13,0-.22-.06-.27-.19-.15-.33-.32-.94-.5-1.85,.35,.07,.74,.11,1.17,.11,.09,0,.2,0,.32,0,.71,0,1.59-.07,2.64-.22,.33-.05,.6-.15,.83-.29,.06-.04,.14-.07,.22-.07,.09,0,.17,.02,.23,.07,.42,.25,.81,.56,1.16,.94,.1,.1,.15,.2,.15,.29,0,.08-.06,.17-.17,.29-.12,.1-.21,.25-.29,.44l-.17,.44c-.85,2.22-1.32,3.46-1.42,3.71,1.04,.13,2.13,.42,3.29,.85Zm-5.8,.61c-.9,.03-1.61,.27-2.15,.71-.44,.35-.66,.77-.66,1.24,0,.52,.2,.78,.6,.78,.31,0,.64-.22,.98-.65,.39-.49,.81-1.18,1.24-2.08Z"/><path class="cls-19" d="M68.24,303.49c.74,.6,1.35,1.17,1.83,1.71,.07,.07,.1,.15,.1,.24,0,.08-.03,.15-.1,.22-.35,.42-.7,.78-1.05,1.07-.08,.05-.15,.08-.21,.08-.05,0-.12-.03-.18-.1-.46-.54-1.02-1.09-1.65-1.65-1.62,1.75-3.43,3.17-5.42,4.25-.18,.1-.32,.15-.42,.15s-.21-.05-.32-.15c-.45-.37-.99-.65-1.62-.86,1.42-.72,2.61-1.46,3.59-2.19,.88-.67,1.77-1.47,2.66-2.42-.72-.59-1.54-1.12-2.45-1.6,.68-.74,1.05-1.15,1.12-1.21,.08-.08,.15-.12,.22-.12,.02,0,.08,.02,.17,.07,.49,.23,1.22,.69,2.19,1.36,.75-.97,1.42-2.09,1.99-3.36l-4.22,.08c-1.36,1.73-2.57,3.01-3.64,3.83-.14,.1-.26,.15-.34,.15-.11,0-.2-.04-.27-.12-.4-.29-.88-.55-1.43-.78,1.2-.95,2.21-1.9,3.01-2.85,.62-.72,1.23-1.55,1.8-2.49,.49-.83,.79-1.53,.91-2.09,1.03,.36,1.69,.64,1.99,.83,.12,.06,.18,.15,.18,.27s-.07,.24-.21,.34c-.13,.08-.24,.2-.35,.36-.13,.23-.31,.51-.53,.85l3-.07c.37-.01,.68-.1,.93-.26,.12-.08,.21-.12,.29-.12s.18,.04,.31,.13c.36,.22,.75,.56,1.16,1.04,.09,.09,.13,.2,.13,.31,0,.1-.06,.21-.19,.32-.22,.19-.38,.41-.51,.65-.83,1.65-1.67,3.02-2.5,4.12Z"/><path class="cls-19" d="M85.04,299.8v5.63c0,1,.02,2.17,.05,3.54v.05c0,.16-.09,.24-.26,.24-.28,.02-.56,.03-.85,.03s-.57,0-.85-.03c-.16,0-.24-.07-.24-.22v-.06c0-.27,.02-.89,.04-1.88,.02-.65,.03-1.18,.03-1.6v-3.96c-1.71,1.44-3.27,2.53-4.67,3.26-.08,.04-.16,.07-.26,.07-.12,0-.24-.06-.36-.17-.32-.32-.81-.66-1.46-1,2.01-1.03,3.79-2.2,5.35-3.49,1.38-1.13,2.59-2.32,3.62-3.55,.5-.58,.86-1.17,1.08-1.75,.9,.5,1.52,.9,1.88,1.2,.09,.06,.13,.14,.13,.25,0,.15-.08,.27-.24,.37-.25,.17-.59,.48-1.01,.94-.59,.7-1.25,1.42-1.99,2.14Z"/><path class="cls-19" d="M94.18,296.96c.71,.08,1.8,.12,3.26,.12h6.07c.43,0,.74-.06,.94-.17,.1-.07,.2-.1,.29-.1,.11,0,.21,.04,.28,.12,.51,.41,.9,.8,1.16,1.18,.09,.12,.13,.23,.13,.33,0,.1-.06,.21-.17,.32-.12,.12-.25,.34-.4,.67-.91,2.2-2.01,4.05-3.3,5.53-1.53,1.74-3.13,3.09-4.82,4.05-.15,.1-.31,.15-.46,.15s-.3-.06-.42-.19c-.35-.34-.88-.65-1.58-.93,1.31-.66,2.41-1.35,3.29-2.05,.77-.61,1.52-1.35,2.26-2.2,1.28-1.46,2.24-3.08,2.88-4.86h-6.14c-.64,0-1.58,.03-2.81,.08-.18,.01-.29-.1-.32-.34-.04-.28-.09-.85-.15-1.71Zm13.19-3.11c.55,0,1,.2,1.36,.6,.32,.34,.47,.75,.47,1.22,0,.55-.2,1-.61,1.36-.34,.31-.75,.46-1.23,.46-.55,0-1-.2-1.36-.6-.32-.34-.47-.75-.47-1.23,0-.56,.2-1.01,.61-1.36,.34-.3,.75-.46,1.23-.46Zm0,.81c-.31,0-.56,.11-.75,.32-.17,.19-.25,.42-.25,.68,0,.32,.11,.57,.32,.76,.18,.17,.41,.25,.68,.25,.31,0,.56-.11,.75-.32,.17-.19,.25-.42,.25-.69,0-.31-.11-.56-.32-.76-.18-.17-.41-.25-.68-.25Z"/><path class="cls-19" d="M120.72,295.13c.93,0,1.67,.07,2.23,.21,.2,.05,.31,.14,.31,.27l-.12,.71c0,.11,.03,.49,.08,1.15,.13,1.02,.31,1.99,.55,2.92,.34-.18,.75-.4,1.25-.66,.56-.3,.95-.51,1.17-.63,.55-.32,.94-.63,1.17-.91,.53,.54,.94,1.07,1.25,1.59,.08,.12,.12,.24,.12,.36,0,.19-.11,.31-.34,.34-.43,.07-.97,.24-1.63,.51-1.67,.68-3,1.34-3.99,1.98-1.34,.88-2.01,1.74-2.01,2.57,0,.54,.24,.92,.71,1.14,.43,.19,1.09,.29,2,.29,2.02,0,3.75-.13,5.19-.4,.04,0,.08,0,.11,0,.11,0,.17,.07,.2,.22,.07,.37,.12,.89,.17,1.58,.02,.17-.09,.27-.31,.28-1.29,.17-2.98,.26-5.06,.26-3.28,0-4.91-1.09-4.91-3.26,0-.95,.33-1.8,.99-2.57,.49-.58,1.23-1.18,2.24-1.82-.39-1.26-.69-2.64-.88-4.14-.12-.91-.27-1.57-.45-1.98Z"/><path class="cls-19" d="M136.22,295.33c.95,.24,1.6,.44,1.93,.61,.17,.09,.26,.21,.26,.34,0,.09-.04,.22-.12,.37-.09,.16-.2,.47-.31,.94-.56,2.6-.85,4.66-.85,6.19,0,.97,.02,1.7,.05,2.17,.08-.19,.27-.6,.56-1.24,.21-.45,.37-.82,.5-1.13,.2,.46,.4,.82,.6,1.07,.07,.08,.1,.16,.1,.24s-.03,.17-.1,.27c-.5,1.11-.79,1.97-.87,2.58-.03,.19-.04,.37-.04,.52,0,.1,0,.23,.02,.38v.03c0,.08-.07,.14-.21,.18-.3,.11-.73,.21-1.27,.29-.06,.02-.1,.03-.13,.03-.08,0-.15-.08-.21-.22-.49-1.24-.73-2.97-.73-5.19,0-1.44,.23-3.59,.7-6.45,.09-.66,.14-1.17,.14-1.53,0-.17,0-.33-.03-.47Zm7.85,9.04c-.02-.93-.04-2.23-.07-3.89-.8,.03-1.42,.04-1.87,.04-.61,0-1.15-.02-1.63-.05-.19,0-.29-.07-.3-.22-.08-.48-.12-.99-.12-1.55,.75,.07,1.51,.11,2.27,.11,.53,0,1.07-.02,1.61-.06l-.02-1.78c-.02-.59-.09-1.14-.22-1.66,.92,.08,1.61,.18,2.06,.32,.2,.06,.31,.16,.31,.29,0,.04-.03,.14-.1,.29-.07,.17-.12,.37-.14,.6-.02,.38-.03,.98-.03,1.8,.76-.07,1.56-.17,2.42-.31,.04-.01,.08-.02,.11-.02,.08,0,.14,.07,.17,.22,.07,.31,.1,.71,.1,1.21,0,.15-.06,.24-.19,.26-.6,.15-1.47,.27-2.62,.36,0,1.67,.04,3.19,.12,4.56,1.03,.42,1.97,.96,2.82,1.63,.09,.06,.13,.12,.13,.17,0,.03-.02,.09-.05,.17-.26,.51-.52,.95-.78,1.31-.06,.07-.11,.1-.16,.1-.04,0-.09-.03-.15-.08-.53-.5-1.14-.95-1.83-1.36-.14,1.47-1.18,2.21-3.11,2.21-1.04,0-1.82-.24-2.36-.72-.46-.42-.69-.97-.69-1.65,0-.75,.32-1.35,.96-1.81,.55-.39,1.22-.59,2.03-.59,.46,0,.92,.04,1.35,.13Zm.04,1.62c-.47-.15-.96-.22-1.48-.22-.85,0-1.28,.27-1.28,.81,0,.57,.46,.86,1.38,.86,.44,0,.8-.12,1.06-.37,.22-.21,.33-.45,.33-.74,0-.14,0-.25-.02-.34Z"/><path class="cls-19" d="M154.81,298.56c.17-1.22,.7-2.15,1.57-2.79,.77-.56,1.74-.85,2.91-.85,1.42,0,2.52,.37,3.32,1.1,.7,.64,1.05,1.47,1.05,2.48,0,.65-.17,1.25-.51,1.8-.32,.51-.83,1.07-1.52,1.65-.72,.6-1.18,1.13-1.38,1.59-.16,.37-.24,.94-.25,1.7h-1.75v-.41c0-.88,.12-1.58,.37-2.12,.22-.45,.62-.97,1.19-1.54,.65-.64,1.07-1.16,1.28-1.56,.18-.34,.27-.72,.27-1.13,0-.61-.21-1.09-.63-1.44-.37-.3-.84-.45-1.43-.45-.72,0-1.28,.24-1.69,.73-.35,.43-.56,1-.61,1.71l-2.19-.51Zm3.1,8.35h2.42v2.29h-2.42v-2.29Z"/></g></g></svg>